<svg width="1920" height="1080" viewBox="0 0 1920 1080" fill="none" xmlns="http://www.w3.org/2000/svg">
<g clip-path="url(#clip0_429_2)">
<rect width="1920" height="1080" fill="#013880"/>
<circle cx="1530.5" cy="906.5" r="1190.5" fill="#64B5F6" fill-opacity="0.07"/>
<circle cx="1530" cy="906" r="953" fill="#64B5F6" fill-opacity="0.13"/>
<circle cx="1530.5" cy="906.5" r="778.5" fill="#64B5F6" fill-opacity="0.13"/>
<path d="M1920 810.4C1920 848.84 1889.11 880 1851 880C1812.89 880 1782 848.84 1782 810.4" stroke="black" stroke-opacity="0.1" stroke-width="25" stroke-linecap="round" stroke-linejoin="round"/>
<path d="M164.681 1306C75.0548 1306 2.39844 1233.74 2.39844 1144.6C2.39844 1055.45 75.0548 983.199 164.681 983.199H313.198" stroke="black" stroke-opacity="0.1" stroke-width="25" stroke-linecap="round" stroke-linejoin="round"/>
<path d="M154.777 1195.6C124.966 1195.6 100.801 1172.23 100.801 1143.4C100.801 1114.57 124.966 1091.2 154.777 1091.2H212.401" stroke="black" stroke-opacity="0.1" stroke-width="25" stroke-linecap="round" stroke-linejoin="round"/>
<path d="M1920 166V-35.9825C1920 -75.536 1887.76 -107.6 1848 -107.6C1808.24 -107.6 1776 -75.536 1776 -35.9825V-4.71882" stroke="black" stroke-opacity="0.1" stroke-width="25" stroke-linecap="round" stroke-linejoin="round"/>
<path d="M807.599 782.743C814.503 782.743 820.099 777.147 820.099 770.243C820.099 763.34 814.503 757.743 807.599 757.743V782.743ZM681.146 978.248C688.049 978.248 693.646 972.651 693.646 965.748C693.646 958.844 688.049 953.248 681.146 953.248V978.248ZM440.209 1318.5C447.112 1318.5 452.709 1312.9 452.709 1306C452.709 1299.1 447.112 1293.5 440.209 1293.5V1318.5ZM694.287 1067.26C694.287 1060.36 688.69 1054.76 681.787 1054.76C674.883 1054.76 669.287 1060.36 669.287 1067.26H694.287ZM480.215 317.201C480.215 310.298 474.618 304.701 467.715 304.701C460.811 304.701 455.215 310.298 455.215 317.201H480.215ZM795.101 666.853C795.101 673.756 800.697 679.353 807.601 679.353C814.505 679.353 820.101 673.756 820.101 666.853H795.101ZM807.599 757.743H592.275V782.743H807.599V757.743ZM592.275 757.743C531.16 757.743 481.502 807.043 481.502 867.995H506.502C506.502 820.975 544.842 782.743 592.275 782.743V757.743ZM481.502 867.995C481.502 928.948 531.16 978.248 592.275 978.248V953.248C544.842 953.248 506.502 915.016 506.502 867.995H481.502ZM592.275 978.248H681.146V953.248H592.275V978.248ZM440.209 1293.5H427.373V1318.5H440.209V1293.5ZM427.373 1293.5C396.419 1293.5 371.301 1268.37 371.301 1237.36H346.301C346.301 1282.15 382.585 1318.5 427.373 1318.5V1293.5ZM371.301 1237.36C371.301 1206.33 396.421 1181.2 427.373 1181.2V1156.2C382.583 1156.2 346.301 1192.55 346.301 1237.36H371.301ZM427.373 1181.2H580.468V1156.2H427.373V1181.2ZM580.468 1181.2C643.342 1181.2 694.287 1130.17 694.287 1067.26H669.287C669.287 1116.39 629.508 1156.2 580.468 1156.2V1181.2ZM455.215 317.201V394.344H480.215V317.201H455.215ZM455.215 394.344C455.215 495.199 536.884 576.981 637.657 576.981V551.981C550.718 551.981 480.215 481.418 480.215 394.344H455.215ZM637.657 576.981H705.345V551.981H637.657V576.981ZM705.345 576.981C754.902 576.981 795.101 617.205 795.101 666.853H820.101C820.101 603.424 768.736 551.981 705.345 551.981V576.981Z" fill="black" fill-opacity="0.1"/>
<path fill-rule="evenodd" clip-rule="evenodd" d="M705.602 131.199C732.111 131.199 753.602 109.709 753.602 83.1992C753.602 56.6896 732.111 35.1992 705.602 35.1992C679.092 35.1992 657.602 56.6896 657.602 83.1992C657.602 109.709 679.092 131.199 705.602 131.199Z" stroke="black" stroke-opacity="0.1" stroke-width="25" stroke-linecap="round" stroke-linejoin="round"/>
<path fill-rule="evenodd" clip-rule="evenodd" d="M837.6 1115.2C876.039 1115.2 907.2 1084.31 907.2 1046.2C907.2 1008.09 876.039 977.199 837.6 977.199C799.161 977.199 768 1008.09 768 1046.2C768 1084.31 799.161 1115.2 837.6 1115.2Z" stroke="black" stroke-opacity="0.1" stroke-width="25" stroke-linecap="round" stroke-linejoin="round"/>
<path fill-rule="evenodd" clip-rule="evenodd" d="M220.799 -4.39962C262.552 -4.39962 296.399 -38.2469 296.399 -79.9996C296.399 -121.752 262.552 -155.6 220.799 -155.6C179.046 -155.6 145.199 -121.752 145.199 -79.9996C145.199 -38.2469 179.046 -4.39962 220.799 -4.39962Z" stroke="black" stroke-opacity="0.1" stroke-width="25" stroke-linecap="round" stroke-linejoin="round"/>
<path d="M221.401 84.4C314.515 84.4 390.001 9.98987 390.001 -81.8C390.001 -173.59 314.515 -248 221.401 -248C128.286 -248 52.8008 -173.59 52.8008 -81.8" stroke="black" stroke-opacity="0.1" stroke-width="25" stroke-linecap="round" stroke-linejoin="round"/>
<path d="M1573.45 1080.95C1547.84 1176.73 1603.25 1274.81 1697.21 1300.05C1791.18 1325.26 1888.13 1268.07 1913.75 1172.29C1939.36 1076.51 1883.95 978.427 1789.98 953.199" stroke="black" stroke-opacity="0.1" stroke-width="25" stroke-linecap="round" stroke-linejoin="round"/>
<path d="M578.194 1079.7C585.098 1079.7 590.694 1074.1 590.694 1067.2C590.694 1060.3 585.098 1054.7 578.194 1054.7V1079.7ZM431.741 765.365C435.121 759.346 432.981 751.726 426.962 748.346C420.942 744.966 413.322 747.105 409.942 753.125L431.741 765.365ZM704.4 674.1C711.303 674.1 716.9 668.503 716.9 661.6C716.9 654.696 711.303 649.1 704.4 649.1V674.1ZM463.147 689.294C457.701 693.537 456.725 701.391 460.968 706.837C465.21 712.283 473.065 713.259 478.511 709.016L463.147 689.294ZM578.194 1054.7C484.195 1054.7 406.098 970.87 406.098 865.015H381.098C381.098 982.487 468.295 1079.7 578.194 1079.7V1054.7ZM406.098 865.015C406.098 828.393 415.508 794.274 431.741 765.365L409.942 753.125C391.618 785.758 381.098 824.09 381.098 865.015H406.098ZM704.4 649.1H578.643V674.1H704.4V649.1ZM578.643 649.1C535.445 649.1 495.538 664.061 463.147 689.294L478.511 709.016C506.796 686.981 541.362 674.1 578.643 674.1V649.1Z" fill="black" fill-opacity="0.1"/>
<path d="M394.199 108.4C356.091 108.4 325.199 139.292 325.199 177.4C325.199 215.509 356.091 246.4 394.199 246.4C432.307 246.4 463.199 215.509 463.199 177.4V108.4" stroke="black" stroke-opacity="0.1" stroke-width="25" stroke-linecap="round" stroke-linejoin="round"/>
<path d="M85.8 651.498C41.7277 651.498 6 616.152 6 572.549C6 528.946 41.7277 493.6 85.8 493.6C129.873 493.6 165.6 528.946 165.6 572.549V814" stroke="black" stroke-opacity="0.1" stroke-width="25" stroke-linecap="round" stroke-linejoin="round"/>
<path d="M1754.39 655.6C1754.39 696.027 1786.63 728.8 1826.4 728.8C1866.17 728.8 1898.4 696.027 1898.4 655.6C1898.4 615.174 1866.17 582.4 1826.4 582.4H1585.2" stroke="black" stroke-opacity="0.1" stroke-width="25" stroke-linecap="round" stroke-linejoin="round"/>
<path d="M1307.4 286.694C1345.51 286.694 1376.4 317.431 1376.4 355.347C1376.4 393.264 1345.51 424.001 1307.4 424.001C1269.29 424.001 1238.4 393.264 1238.4 355.347V98.8008" stroke="black" stroke-opacity="0.1" stroke-width="25" stroke-linecap="round" stroke-linejoin="round"/>
<path d="M75 294.05C36.8923 294.05 6 324.483 6 362.025C6 399.568 36.8923 430 75 430C113.108 430 144 399.568 144 362.025V84.4004" stroke="black" stroke-opacity="0.1" stroke-width="25" stroke-linecap="round" stroke-linejoin="round"/>
<path d="M826.444 84.4008C826.444 16.1389 771.991 -39.1992 704.822 -39.1992C637.652 -39.1992 583.199 16.1389 583.199 84.4008C583.199 152.663 637.652 208.001 704.822 208.001H1023.6" stroke="black" stroke-opacity="0.1" stroke-width="25" stroke-linecap="round" stroke-linejoin="round"/>
<path d="M1798.37 484.001C1865.56 484.001 1920 428.663 1920 360.401C1920 292.139 1865.56 236.801 1798.37 236.801H1479.6" stroke="black" stroke-opacity="0.1" stroke-width="25" stroke-linecap="round" stroke-linejoin="round"/>
<path fill-rule="evenodd" clip-rule="evenodd" d="M319.798 656.799C280.365 656.799 248.398 624.886 248.398 585.519V382.479C248.398 343.113 280.365 311.199 319.798 311.199V311.199C359.231 311.199 391.198 343.113 391.198 382.479V585.519C391.198 624.886 359.231 656.799 319.798 656.799V656.799Z" stroke="black" stroke-opacity="0.1" stroke-width="25" stroke-linecap="round" stroke-linejoin="round"/>
<path d="M993.602 566.2V458.999C993.602 428.403 1018.58 403.6 1049.4 403.6V403.6C1080.22 403.6 1105.2 428.403 1105.2 458.999V673.401C1105.2 703.997 1080.22 728.8 1049.4 728.8V728.8V728.8C1018.58 728.8 993.602 703.997 993.602 673.401V647.5" stroke="black" stroke-opacity="0.1" stroke-width="25" stroke-linecap="round" stroke-linejoin="round"/>
<path d="M1096.8 -6.88263V2.46352C1096.8 55.669 1053.55 98.8008 1000.2 98.8008V98.8008C946.851 98.8008 903.602 55.669 903.602 2.46352V-290.862C903.602 -344.068 946.851 -387.199 1000.2 -387.199V-387.199C1053.55 -387.199 1096.8 -344.068 1096.8 -290.862V-287.986" stroke="black" stroke-opacity="0.1" stroke-width="25" stroke-linecap="round" stroke-linejoin="round"/>
<path d="M86.1 754H80.327C39.2774 754 6 787.31 6 828.4V828.4C6 869.49 39.2773 902.8 80.327 902.8H252.073C293.123 902.8 326.4 869.49 326.4 828.4V828.4C326.4 787.31 293.123 754 252.073 754H246.3" stroke="black" stroke-opacity="0.1" stroke-width="25" stroke-linecap="round" stroke-linejoin="round"/>
<path d="M901.199 403.6V681.564C901.199 764.647 969.162 832 1053 832C1136.84 832 1204.8 764.647 1204.8 681.564V615.89" stroke="black" stroke-opacity="0.1" stroke-width="25" stroke-linecap="round" stroke-linejoin="round"/>
<path d="M596.398 874H845.76C940.664 874 1017.6 951.365 1017.6 1046.8C1017.6 1142.23 940.664 1219.6 845.76 1219.6H770.744" stroke="black" stroke-opacity="0.1" stroke-width="25" stroke-linecap="round" stroke-linejoin="round"/>
<path d="M703.198 452.801H644.175C604.534 452.801 572.398 420.565 572.398 380.801C572.398 341.037 604.534 308.801 644.175 308.801H762.222C801.863 308.801 833.998 341.037 833.998 380.801V387.197C833.998 423.429 804.718 452.801 768.598 452.801" stroke="black" stroke-opacity="0.1" stroke-width="25" stroke-linecap="round" stroke-linejoin="round"/>
<path d="M1307.4 177.999H1374.82C1420.09 177.999 1456.8 143.346 1456.8 100.599C1456.8 57.8529 1420.09 23.1992 1374.82 23.1992H1239.98C1194.7 23.1992 1158 57.8529 1158 100.599" stroke="black" stroke-opacity="0.1" stroke-width="25" stroke-linecap="round" stroke-linejoin="round"/>
<path d="M809.999 -144.801H648.382C546.108 -144.801 463.199 -61.5261 463.199 41.1992" stroke="black" stroke-opacity="0.1" stroke-width="25" stroke-linecap="round" stroke-linejoin="round"/>
<path d="M1739.4 1059.81C1777.51 1059.81 1808.4 1090.48 1808.4 1128.3C1808.4 1166.13 1777.51 1196.8 1739.4 1196.8C1701.29 1196.8 1670.4 1166.13 1670.4 1128.3V682" stroke="black" stroke-opacity="0.1" stroke-width="25" stroke-linecap="round" stroke-linejoin="round"/>
<path d="M1222.8 1104.4C1222.8 1034.15 1279.02 977.199 1348.36 977.199H1569.6" stroke="black" stroke-opacity="0.1" stroke-width="25" stroke-linecap="round" stroke-linejoin="round"/>
<path d="M896.398 308.801H1014.45C1093.73 308.801 1158 244.329 1158 164.801" stroke="black" stroke-opacity="0.1" stroke-width="25" stroke-linecap="round" stroke-linejoin="round"/>
<path d="M1585.2 684.4V748.907C1585.2 814.017 1532.4 866.8 1467.25 866.8H1375.2" stroke="black" stroke-opacity="0.1" stroke-width="25" stroke-linecap="round" stroke-linejoin="round"/>
<path d="M1808.4 362.801H1707.59C1634.69 362.801 1575.6 422.437 1575.6 496.001" stroke="black" stroke-opacity="0.1" stroke-width="25" stroke-linecap="round" stroke-linejoin="round"/>
<path d="M261.602 1306V1196.66C261.602 1133.7 310.772 1080.96 376.802 1067.2" stroke="black" stroke-opacity="0.1" stroke-width="25" stroke-linecap="round" stroke-linejoin="round"/>
<path d="M53.4008 2.80078C53.4008 13.9764 53.4008 154.658 53.4008 223.601" stroke="black" stroke-opacity="0.1" stroke-width="25" stroke-linecap="round" stroke-linejoin="round"/>
<path d="M1306.2 510.4C1306.2 519.632 1306.2 635.847 1306.2 692.8" stroke="black" stroke-opacity="0.1" stroke-width="25" stroke-linecap="round" stroke-linejoin="round"/>
<path d="M1121.4 1006C1121.4 1009.77 1121.4 1057.16 1121.4 1080.4" stroke="black" stroke-opacity="0.1" stroke-width="25" stroke-linecap="round" stroke-linejoin="round"/>
<path d="M1492.1 316C1492.1 309.096 1486.5 303.5 1479.6 303.5C1472.7 303.5 1467.1 309.096 1467.1 316H1492.1ZM1342.29 750.026C1335.39 750.026 1329.79 755.623 1329.79 762.526C1329.79 769.43 1335.39 775.026 1342.29 775.026V750.026ZM1144.8 909.499C1137.9 909.499 1132.3 915.096 1132.3 921.999C1132.3 928.903 1137.9 934.499 1144.8 934.499V909.499ZM1309.65 801.925C1309.65 795.021 1304.06 789.425 1297.15 789.425C1290.25 789.425 1284.65 795.021 1284.65 801.925H1309.65ZM1467.1 316V486.797H1492.1V316H1467.1ZM1467.1 486.797C1467.1 506.671 1450.84 522.939 1430.56 522.939V547.939C1464.45 547.939 1492.1 520.671 1492.1 486.797H1467.1ZM1430.56 522.939C1396.67 522.939 1369.02 550.231 1369.02 584.101H1394.02C1394.02 564.22 1410.29 547.939 1430.56 547.939V522.939ZM1369.02 584.101V594.194H1394.02V584.101H1369.02ZM1369.02 594.194C1369.02 628.062 1396.67 655.355 1430.56 655.355V630.355C1410.29 630.355 1394.02 614.074 1394.02 594.194H1369.02ZM1430.56 655.355C1450.83 655.355 1467.1 671.635 1467.1 691.517H1492.1C1492.1 657.647 1464.46 630.355 1430.56 630.355V655.355ZM1467.1 691.517V702.691H1492.1V691.517H1467.1ZM1467.1 702.691C1467.1 728.743 1445.79 750.026 1419.3 750.026V775.026C1459.42 775.026 1492.1 742.731 1492.1 702.691H1467.1ZM1419.3 750.026H1388.06V775.026H1419.3V750.026ZM1388.06 750.026H1342.29V775.026H1388.06V750.026ZM1144.8 934.499H1176.93V909.499H1144.8V934.499ZM1176.93 934.499C1250.22 934.499 1309.65 875.159 1309.65 801.925H1284.65C1284.65 861.323 1236.44 909.499 1176.93 909.499V934.499Z" fill="black" fill-opacity="0.1"/>
<path d="M1777.2 79.505V103.844C1777.2 138.172 1749.28 166 1714.87 166V166C1680.44 166 1652.52 138.172 1652.52 103.844V83.6838C1652.52 49.6163 1624.82 22 1590.67 22V22C1556.5 22 1528.8 49.6163 1528.8 83.6838V108.495" stroke="black" stroke-opacity="0.1" stroke-width="25" stroke-linecap="round" stroke-linejoin="round"/>
<path fill-rule="evenodd" clip-rule="evenodd" d="M1306.8 1154.76C1306.8 1106.41 1346.02 1067.2 1394.4 1067.2V1067.2C1442.78 1067.2 1482 1106.41 1482 1154.76V1218.44C1482 1266.79 1442.78 1306 1394.4 1306V1306C1346.02 1306 1306.8 1266.79 1306.8 1218.44V1154.76Z" stroke="black" stroke-opacity="0.1" stroke-width="25" stroke-linecap="round" stroke-linejoin="round"/>
<g style="mix-blend-mode:luminosity" opacity="0.17">
<circle cx="1745.5" cy="-107.501" r="327.917" fill="#64B5F6"/>
<circle cx="1745.86" cy="-107.135" r="221.162" fill="#2196F3"/>
<circle cx="1745.87" cy="-107.136" r="117.686" fill="#0A74D0"/>
<mask id="mask0_429_2" style="mask-type:alpha" maskUnits="userSpaceOnUse" x="1417" y="-436" width="657" height="657">
<circle cx="1745.5" cy="-107.501" r="327.917" fill="#FF9100"/>
</mask>
<g mask="url(#mask0_429_2)">
<g filter="url(#filter0_f_429_2)">
<path fill-rule="evenodd" clip-rule="evenodd" d="M1745.87 -264.172C1810.86 -264.172 1863.55 -316.861 1863.55 -381.857C1863.55 -446.853 1810.86 -499.543 1745.87 -499.543C1680.87 -499.543 1628.18 -446.853 1628.18 -381.857C1628.18 -316.861 1680.87 -264.172 1745.87 -264.172ZM2019.86 10.5496C2084.86 10.5496 2137.55 -42.14 2137.55 -107.136C2137.55 -172.132 2084.86 -224.822 2019.86 -224.822C1954.86 -224.822 1902.17 -172.132 1902.17 -107.136C1902.17 -42.14 1954.86 10.5496 2019.86 10.5496ZM1588.83 -107.136C1588.83 -42.14 1536.14 10.5496 1471.15 10.5496C1406.15 10.5496 1353.46 -42.14 1353.46 -107.136C1353.46 -172.132 1406.15 -224.822 1471.15 -224.822C1536.14 -224.822 1588.83 -172.132 1588.83 -107.136ZM1745.87 284.542C1810.86 284.542 1863.55 231.853 1863.55 166.857C1863.55 101.861 1810.86 49.171 1745.87 49.171C1680.87 49.171 1628.18 101.861 1628.18 166.857C1628.18 231.853 1680.87 284.542 1745.87 284.542Z" fill="black" fill-opacity="0.23"/>
</g>
</g>
<circle cx="2019.86" cy="-107.136" r="117.686" fill="url(#paint0_linear_429_2)"/>
<circle cx="1471.14" cy="-107.136" r="117.686" fill="url(#paint1_linear_429_2)"/>
<circle cx="1745.87" cy="166.857" r="117.686" fill="url(#paint2_linear_429_2)"/>
</g>
<circle cx="1530" cy="906" r="620" fill="#64B5F6" fill-opacity="0.13"/>
<circle cx="1742" cy="100" r="51" fill="url(#paint3_linear_429_2)"/>
<circle cx="1707" cy="137" r="38" fill="url(#paint4_linear_429_2)"/>
<g filter="url(#filter1_d_429_2)">
<circle cx="1525" cy="906" r="538" fill="url(#paint5_linear_429_2)"/>
</g>
<circle cx="1525.59" cy="906.597" r="362.851" fill="url(#paint6_linear_429_2)"/>
<g filter="url(#filter2_f_429_2)">
<circle cx="1555" cy="932" r="176" fill="black" fill-opacity="0.25"/>
</g>
<ellipse cx="1525.5" cy="906" rx="175.5" ry="176" fill="url(#paint7_linear_429_2)"/>
<circle cx="1819" cy="448" r="88" fill="url(#paint8_linear_429_2)"/>
<circle cx="1734" cy="290" r="27" fill="url(#paint9_linear_429_2)"/>
<circle cx="1630.5" cy="368.5" r="41.5" fill="url(#paint10_linear_429_2)"/>
</g>
<defs>
<filter id="filter0_f_429_2" x="1253.46" y="-599.543" width="984.086" height="984.085" filterUnits="userSpaceOnUse" color-interpolation-filters="sRGB">
<feFlood flood-opacity="0" result="BackgroundImageFix"/>
<feBlend mode="normal" in="SourceGraphic" in2="BackgroundImageFix" result="shape"/>
<feGaussianBlur stdDeviation="50" result="effect1_foregroundBlur_429_2"/>
</filter>
<filter id="filter1_d_429_2" x="907" y="292" width="1236" height="1236" filterUnits="userSpaceOnUse" color-interpolation-filters="sRGB">
<feFlood flood-opacity="0" result="BackgroundImageFix"/>
<feColorMatrix in="SourceAlpha" type="matrix" values="0 0 0 0 0 0 0 0 0 0 0 0 0 0 0 0 0 0 127 0" result="hardAlpha"/>
<feOffset dy="4"/>
<feGaussianBlur stdDeviation="40"/>
<feComposite in2="hardAlpha" operator="out"/>
<feColorMatrix type="matrix" values="0 0 0 0 0 0 0 0 0 0 0 0 0 0 0 0 0 0 0.4 0"/>
<feBlend mode="normal" in2="BackgroundImageFix" result="effect1_dropShadow_429_2"/>
<feBlend mode="normal" in="SourceGraphic" in2="effect1_dropShadow_429_2" result="shape"/>
</filter>
<filter id="filter2_f_429_2" x="1276" y="653" width="558" height="558" filterUnits="userSpaceOnUse" color-interpolation-filters="sRGB">
<feFlood flood-opacity="0" result="BackgroundImageFix"/>
<feBlend mode="normal" in="SourceGraphic" in2="BackgroundImageFix" result="shape"/>
<feGaussianBlur stdDeviation="51.5" result="effect1_foregroundBlur_429_2"/>
</filter>
<linearGradient id="paint0_linear_429_2" x1="2019.86" y1="-224.821" x2="2108.03" y2="115.848" gradientUnits="userSpaceOnUse">
<stop stop-color="#FFC300"/>
<stop offset="1" stop-color="#FFA200"/>
</linearGradient>
<linearGradient id="paint1_linear_429_2" x1="1471.14" y1="-224.821" x2="1558.95" y2="108.196" gradientUnits="userSpaceOnUse">
<stop stop-color="#FFC300"/>
<stop offset="1" stop-color="#FFA200"/>
</linearGradient>
<linearGradient id="paint2_linear_429_2" x1="1730.93" y1="49.1709" x2="1823.11" y2="419.352" gradientUnits="userSpaceOnUse">
<stop stop-color="#FFC300"/>
<stop offset="1" stop-color="#FFA200"/>
</linearGradient>
<linearGradient id="paint3_linear_429_2" x1="1723.32" y1="27.8099" x2="1823.53" y2="182.965" gradientUnits="userSpaceOnUse">
<stop stop-color="#64B5F6"/>
<stop offset="1" stop-color="#1E88E5"/>
</linearGradient>
<linearGradient id="paint4_linear_429_2" x1="1692" y1="61" x2="1726" y2="202" gradientUnits="userSpaceOnUse">
<stop stop-color="#FFC300" stop-opacity="0"/>
<stop offset="1" stop-color="#FFC300"/>
</linearGradient>
<linearGradient id="paint5_linear_429_2" x1="1433.5" y1="536.5" x2="1693" y2="1463" gradientUnits="userSpaceOnUse">
<stop stop-color="#64B5F6"/>
<stop offset="1" stop-color="#3AA2F4"/>
</linearGradient>
<linearGradient id="paint6_linear_429_2" x1="1412" y1="544" x2="1615.5" y2="1269" gradientUnits="userSpaceOnUse">
<stop stop-color="#2196F3"/>
<stop offset="1" stop-color="#0A74D0"/>
</linearGradient>
<linearGradient id="paint7_linear_429_2" x1="1492.5" y1="787" x2="1588.23" y2="1118.29" gradientUnits="userSpaceOnUse">
<stop stop-color="#FFC300"/>
<stop offset="1" stop-color="#FFA200"/>
</linearGradient>
<linearGradient id="paint8_linear_429_2" x1="1791.45" y1="360.062" x2="1840.8" y2="535.891" gradientUnits="userSpaceOnUse">
<stop stop-color="#2196F3"/>
<stop offset="1" stop-color="#0A74D0"/>
</linearGradient>
<linearGradient id="paint9_linear_429_2" x1="1728.92" y1="271.744" x2="1743.57" y2="322.589" gradientUnits="userSpaceOnUse">
<stop stop-color="#FFC300"/>
<stop offset="1" stop-color="#FFA200"/>
</linearGradient>
<linearGradient id="paint10_linear_429_2" x1="1623.44" y1="339.998" x2="1643.46" y2="411.466" gradientUnits="userSpaceOnUse">
<stop stop-color="#64B5F6"/>
<stop offset="1" stop-color="#3AA2F4"/>
</linearGradient>
<clipPath id="clip0_429_2">
<rect width="1920" height="1080" fill="white"/>
</clipPath>
</defs>
</svg>
