<svg xmlns="http://www.w3.org/2000/svg" xmlns:xlink="http://www.w3.org/1999/xlink" width="1920" height="1080" viewBox="0 0 1920 1080">
  <defs>
    <clipPath id="clip-background-sso">
      <rect width="1920" height="1080"/>
    </clipPath>
  </defs>
  <g id="background-sso" clip-path="url(#clip-background-sso)">
    <rect width="1920" height="1080" fill="#013880"/>
    <g id="Aare" transform="translate(-161.082 730)" opacity="0.34">
      <path id="Shape" d="M107.107,0A106.587,106.587,0,0,0,47.218,18.3a107.436,107.436,0,0,0-38.8,47.138A107.031,107.031,0,0,0,18.29,167.041a107.411,107.411,0,0,0,47.122,38.817A106.951,106.951,0,0,0,167,195.979a107.438,107.438,0,0,0,38.8-47.138,107.029,107.029,0,0,0-9.874-101.605A107.413,107.413,0,0,0,148.8,8.419,106.422,106.422,0,0,0,107.107,0Zm0,155.838a48.525,48.525,0,1,1,18.953-3.827A48.373,48.373,0,0,1,107.107,155.838Z" transform="translate(2027.95 914.636)" fill="#013880"/>
      <path id="Shape-2" data-name="Shape" d="M29.173,0A29.182,29.182,0,1,0,58.346,29.182,29.183,29.183,0,0,0,29.173,0Z" transform="translate(2103.801 993.01)" fill="#0080ff"/>
      <path id="Shape-3" data-name="Shape" d="M0,29.182A29.178,29.178,0,0,0,29.173,58.363H204.212a29.182,29.182,0,0,0,0-58.363H29.173A29.178,29.178,0,0,0,0,29.182Z" transform="translate(344.242 0)" fill="#ffc735"/>
      <path id="Shape-4" data-name="Shape" d="M301.456,0H106.968A106.358,106.358,0,0,0,47.161,18.3,107.43,107.43,0,0,0,8.406,65.435a107.128,107.128,0,0,0,9.862,101.605,107.3,107.3,0,0,0,47.063,38.817,106.152,106.152,0,0,0,41.637,8.419H301.456a106.358,106.358,0,0,0,59.807-18.3,107.427,107.427,0,0,0,38.755-47.138,107.128,107.128,0,0,0-9.862-101.605A107.3,107.3,0,0,0,343.093,8.419,106.152,106.152,0,0,0,301.456,0ZM106.968,155.838a48.7,48.7,0,1,1,0-97.4H301.456a48.7,48.7,0,1,1,0,97.4Z" transform="translate(227.55 650.334)" fill="#0080ff"/>
      <path id="Shape-5" data-name="Shape" d="M0,29.182A29.182,29.182,0,0,1,29.182,0h90.463a106.7,106.7,0,0,1,77.818,33.561A106.7,106.7,0,0,1,275.281,0h89.491a107,107,0,0,1,107,107,29.182,29.182,0,0,1-58.363,0,48.636,48.636,0,0,0-48.636-48.636H275.281A48.636,48.636,0,0,0,226.645,107v196.49A105.055,105.055,0,0,1,121.591,408.543V350.18a46.69,46.69,0,0,0,46.691-46.691V107a48.636,48.636,0,0,0-48.636-48.636H29.182A29.182,29.182,0,0,1,0,29.182Z" transform="translate(117.525 125.064)" fill="#0080ff"/>
      <path id="Shape-6" data-name="Shape" d="M107.107,58.439a48.7,48.7,0,1,1-48.685,48.7,29.211,29.211,0,1,0-58.422,0A107.107,107.107,0,1,0,107.107,0a29.22,29.22,0,0,0,0,58.439Z" transform="translate(389.252 331.003)" fill="#e5e0d5"/>
      <path id="Shape-7" data-name="Shape" d="M100.943,58.363c35.91,0,64.783,28.872,64.783,64.2s-28.873,64.2-64.783,64.2a64.815,64.815,0,0,1-49.45-22.723A29.218,29.218,0,0,0,7,201.925a123.355,123.355,0,0,0,93.942,43.2c67.953,0,123.274-54.743,123.274-122.563S168.9,0,100.943,0a29.182,29.182,0,1,0,0,58.363Z" transform="translate(326.738 727.874)" fill="#e5e0d5"/>
      <path id="Shape-8" data-name="Shape" d="M141.533,49.744a48.626,48.626,0,1,1-68.851,0A29.175,29.175,0,0,0,31.371,8.535a106.976,106.976,0,1,0,151.472,0,29.175,29.175,0,1,0-41.31,41.209Z" transform="translate(750.166 1487.431)" fill="#0080ff"/>
      <path id="Shape-9" data-name="Shape" d="M8.545,49.816a29.177,29.177,0,1,0,0-41.269A29.167,29.167,0,0,0,8.545,49.816Z" transform="translate(774.338 1486.597)" fill="#013880"/>
      <path id="Shape-10" data-name="Shape" d="M29.173,0A29.182,29.182,0,1,0,58.346,29.182,29.178,29.178,0,0,0,29.173,0Z" transform="translate(210.046 475.244)" fill="#013880"/>
      <path id="Shape-11" data-name="Shape" d="M107.107,0A106.586,106.586,0,0,0,47.222,18.3,107.447,107.447,0,0,0,8.417,65.435a107.022,107.022,0,0,0,9.875,101.605,107.424,107.424,0,0,0,47.124,38.817,106.943,106.943,0,0,0,101.576-9.878A107.447,107.447,0,0,0,205.8,148.842a107.021,107.021,0,0,0-9.875-101.605A107.424,107.424,0,0,0,148.8,8.419,106.412,106.412,0,0,0,107.107,0Zm0,155.838a48.526,48.526,0,1,1,18.951-3.827A48.366,48.366,0,0,1,107.107,155.838Z" transform="translate(-0.001 274.307)" fill="#ffc735"/>
      <path id="Shape-12" data-name="Shape" d="M118.36,202.542a60.262,60.262,0,0,1-60.15-60.373V29.213a29.105,29.105,0,1,0-58.21,0V142.169c0,65.61,52.991,118.8,118.36,118.8Z" transform="translate(78.35 430.221)" fill="#e5e0d5"/>
      <path id="Shape-13" data-name="Shape" d="M29.173,0A29.182,29.182,0,1,0,58.346,29.182,29.178,29.178,0,0,0,29.173,0Z" transform="translate(78.35 430.221)" fill="#013880"/>
      <path id="Shape-14" data-name="Shape" d="M29.173,0A29.182,29.182,0,1,0,58.346,29.182,29.178,29.178,0,0,0,29.173,0Z" transform="translate(77.516 352.681)" fill="#013880"/>
      <path id="Shape-15" data-name="Shape" d="M30.9,58.437a48.7,48.7,0,1,1-1.268,97.393,29.221,29.221,0,1,0-.761,58.437A107.142,107.142,0,1,0,31.663,0,29.22,29.22,0,1,0,30.9,58.437Z" transform="translate(81.684 877.117)" fill="#ffc735"/>
      <path id="Shape-16" data-name="Shape" d="M107.167,319.288a48.672,48.672,0,1,1,0-97.344c106.535,0,192.9-86.293,192.9-192.741a29.227,29.227,0,0,0-58.455,0A134.389,134.389,0,0,1,107.167,163.538a107.078,107.078,0,1,0,0,214.156,29.2,29.2,0,1,0,0-58.406Z" transform="translate(147.532 406.876)" fill="#ffc735"/>
      <path id="Shape-17" data-name="Shape" d="M155.792,29.122a48.685,48.685,0,0,1-97.37,0A29.211,29.211,0,0,0,0,29.122C0,88.1,47.953,135.9,107.107,135.9S214.214,88.1,214.214,29.122a29.211,29.211,0,0,0-58.422,0Z" transform="translate(530.951 202.604)" fill="#0080ff"/>
      <path id="Shape-18" data-name="Shape" d="M58.346,192.6a134.215,134.215,0,0,1,134.2-134.236,29.182,29.182,0,0,0,0-58.363C86.2,0,0,86.23,0,192.6a29.173,29.173,0,1,0,58.346,0Z" transform="translate(577.628 558.62)" fill="#e5e0d5"/>
      <path id="Shape-19" data-name="Shape" d="M253.332,224.167c-107.623,0-194.871-87.272-194.871-194.928A29.231,29.231,0,1,0,0,29.239C0,169.191,113.421,282.645,253.332,282.645a29.239,29.239,0,0,0,0-58.478Z" transform="translate(976.883 1399.886)" fill="#ffc735"/>
      <path id="Shape-20" data-name="Shape" d="M208.319,29.212c0,98.951-80.193,179.167-179.115,179.167a29.212,29.212,0,0,0,0,58.424c131.181,0,237.522-106.373,237.522-237.592a29.2,29.2,0,1,0-58.407,0Z" transform="translate(1300.288 1414.893)" fill="#0080ff"/>
      <path id="Shape-21" data-name="Shape" d="M169.2,29.182A140.05,140.05,0,0,1,29.173,169.254a29.182,29.182,0,0,0,0,58.363c109.561,0,198.377-88.843,198.377-198.435a29.173,29.173,0,1,0-58.346,0Z" transform="translate(428.428 860.442)" fill="#ffc735"/>
      <path id="Shape-22" data-name="Shape" d="M0,28.8A29.173,29.173,0,1,0,29.553,0,29.177,29.177,0,0,0,0,28.8Z" transform="translate(83.351 877.117)" fill="#013880"/>
      <path id="Shape-23" data-name="Shape" d="M29.173,0A29.182,29.182,0,1,0,58.346,29.182,29.178,29.178,0,0,0,29.173,0Z" transform="translate(389.252 406.876)" fill="#013880"/>
      <path id="Shape-24" data-name="Shape" d="M29.173,0A29.182,29.182,0,1,0,58.346,29.182,29.178,29.178,0,0,0,29.173,0Z" transform="translate(530.951 202.604)" fill="#013880"/>
      <path id="Shape-25" data-name="Shape" d="M29.173,0A29.182,29.182,0,1,0,58.346,29.182,29.178,29.178,0,0,0,29.173,0Z" transform="translate(116.692 125.064)" fill="#013880"/>
      <path id="Shape-26" data-name="Shape" d="M29.173,0A29.182,29.182,0,1,0,58.346,29.182,29.178,29.178,0,0,0,29.173,0Z" transform="translate(389.252 329.336)" fill="#0080ff"/>
      <path id="Shape-27" data-name="Shape" d="M29.173,0A29.182,29.182,0,1,0,58.346,29.182,29.178,29.178,0,0,0,29.173,0Z" transform="translate(389.252 250.962)" fill="#0080ff"/>
      <path id="Shape-28" data-name="Shape" d="M29.173,0A29.182,29.182,0,1,0,58.346,29.182,29.178,29.178,0,0,0,29.173,0Z" transform="translate(609.301 192.599)" fill="#013880"/>
      <path id="Shape-29" data-name="Shape" d="M29.173,0A29.182,29.182,0,1,0,58.346,29.182,29.178,29.178,0,0,0,29.173,0Z" transform="translate(609.301 115.059)" fill="#013880"/>
      <path id="Shape-30" data-name="Shape" d="M29.173,0A29.182,29.182,0,1,0,58.346,29.182,29.178,29.178,0,0,0,29.173,0Z" transform="translate(577.628 722.037)" fill="#013880"/>
      <path id="Shape-31" data-name="Shape" d="M29.173,0A29.182,29.182,0,1,0,58.346,29.182,29.178,29.178,0,0,0,29.173,0Z" transform="translate(227.55 726.206)" fill="#013880"/>
      <path id="Shape-32" data-name="Shape" d="M107.107,0A106.586,106.586,0,0,0,47.222,18.3,107.447,107.447,0,0,0,8.417,65.435a107.022,107.022,0,0,0,9.875,101.605,107.424,107.424,0,0,0,47.124,38.817,106.943,106.943,0,0,0,101.575-9.878A107.448,107.448,0,0,0,205.8,148.842a107.02,107.02,0,0,0-9.875-101.605A107.426,107.426,0,0,0,148.8,8.419,106.41,106.41,0,0,0,107.107,0Zm0,155.838a48.526,48.526,0,1,1,18.95-3.827A48.368,48.368,0,0,1,107.107,155.838Z" transform="translate(661.813 653.669)" fill="#ffc735"/>
      <path id="Shape-33" data-name="Shape" d="M0,379.362A29.2,29.2,0,0,1,29.216,350.18a48.665,48.665,0,0,0,48.693-48.636V107A48.665,48.665,0,0,0,29.216,58.363,29.182,29.182,0,1,1,29.216,0a106.883,106.883,0,0,1,77.908,33.561A106.88,106.88,0,0,1,185.033,0h89.595A107.061,107.061,0,0,1,381.752,107a29.216,29.216,0,0,1-58.431,0,48.665,48.665,0,0,0-48.693-48.636H185.033A48.665,48.665,0,0,0,136.34,107V301.544a107.062,107.062,0,0,1-107.124,107A29.2,29.2,0,0,1,0,379.362Z" transform="translate(899.366 965.496)" fill="#0080ff"/>
      <path id="Shape-34" data-name="Shape" d="M220.049,184.908a29.2,29.2,0,0,1-29.21,29.2,48.672,48.672,0,0,0-48.683,48.66V457.4a48.672,48.672,0,0,0,48.683,48.66,29.2,29.2,0,1,1,0,58.392A107.077,107.077,0,0,1,83.735,457.4V262.764q0-3.594.234-7.128A118.792,118.792,0,0,1,0,142.087V29.2a29.21,29.21,0,0,1,58.42,0V142.087a60.369,60.369,0,0,0,45.268,58.435,106.989,106.989,0,0,1,87.151-44.81A29.2,29.2,0,0,1,220.049,184.908Z" transform="translate(737.663 809.582)" fill="#e5e0d5"/>
      <path id="Shape-35" data-name="Shape" d="M107.107,155.838a48.7,48.7,0,1,1,48.685-48.7,29.211,29.211,0,1,0,58.422,0A107.107,107.107,0,1,0,107.107,214.277a29.22,29.22,0,0,0,0-58.439Z" transform="translate(821.015 809.582)" fill="#0080ff"/>
      <path id="Shape-36" data-name="Shape" d="M58.422,107.138a48.685,48.685,0,1,0,48.685-48.7,29.22,29.22,0,0,1,0-58.439A107.138,107.138,0,1,1,0,107.138a29.211,29.211,0,1,1,58.422,0Z" transform="translate(1572.849 662.007)" fill="#e5e0d5"/>
      <path id="Shape-37" data-name="Shape" d="M29.173,0A29.182,29.182,0,1,0,58.346,29.182,29.177,29.177,0,0,0,29.173,0Z" transform="translate(899.366 965.496)" fill="#013880"/>
      <path id="Shape-38" data-name="Shape" d="M29.173,0A29.182,29.182,0,1,0,58.346,29.182,29.177,29.177,0,0,0,29.173,0Z" transform="translate(899.366 1315.676)" fill="#013880"/>
      <path id="Shape-39" data-name="Shape" d="M29.173,0A29.182,29.182,0,1,0,58.346,29.182,29.178,29.178,0,0,0,29.173,0Z" transform="translate(737.663 809.582)" fill="#013880"/>
      <path id="Shape-40" data-name="Shape" d="M29.173,0A29.182,29.182,0,1,0,58.346,29.182,29.178,29.178,0,0,0,29.173,0Z" transform="translate(739.33 732.043)" fill="#0080ff"/>
      <path id="Shape-41" data-name="Shape" d="M301.892,0H107.123A106.656,106.656,0,0,0,47.229,18.286,107.39,107.39,0,0,0,8.418,65.394a106.891,106.891,0,0,0,9.877,101.541,107.425,107.425,0,0,0,47.131,38.791,106.5,106.5,0,0,0,41.7,8.414h62.325v61.323a106.538,106.538,0,0,0,18.3,59.864,107.432,107.432,0,0,0,47.131,38.793,106.493,106.493,0,0,0,41.7,8.414H471.339A48.63,48.63,0,0,1,520.031,431.2v89.55a48.643,48.643,0,0,1-48.692,48.669,29.2,29.2,0,1,0,0,58.4,106.658,106.658,0,0,0,59.9-18.286,107.385,107.385,0,0,0,38.809-47.108,106.371,106.371,0,0,0,8.417-41.677V431.2a107.736,107.736,0,0,0-2.341-22.365,106.521,106.521,0,0,0-17.281-39.416,107.882,107.882,0,0,0-13.976-16.088,107.357,107.357,0,0,0,24.556-34.751,106.475,106.475,0,0,0,6.7-20.754,107.732,107.732,0,0,0,2.341-22.365v-87.6a29.216,29.216,0,1,0-58.432,0v87.6a48.643,48.643,0,0,1-48.692,48.669H276.571a48.634,48.634,0,0,1-48.692-48.669V214.141h74.012a106.656,106.656,0,0,0,59.893-18.286A107.385,107.385,0,0,0,400.6,148.748a106.891,106.891,0,0,0-9.877-101.541,107.431,107.431,0,0,0-47.13-38.792A106.5,106.5,0,0,0,301.892,0ZM107.123,155.739a48.668,48.668,0,1,1,0-97.336H301.892a48.668,48.668,0,1,1,0,97.336Z" transform="translate(1584.518 912.968)" fill="#0080ff"/>
      <path id="Shape-42" data-name="Shape" d="M48.471,63.156c33.224-13.513,70.851,2.339,84.2,35.029S130.22,168.46,97,181.973a64.827,64.827,0,0,1-54.343-2.418,29.173,29.173,0,1,0-26.85,51.8,123.373,123.373,0,0,0,103.249,4.625c62.874-25.57,93.373-97.047,67.742-159.8S89.287-16.422,26.413,9.148A29.17,29.17,0,1,0,48.471,63.156Z" transform="translate(1507.835 1237.302)" fill="#ffc735"/>
      <path id="Shape-43" data-name="Shape" d="M58.346,192.6a134.213,134.213,0,0,1,134.2-134.236,29.182,29.182,0,0,0,0-58.363C86.2,0,0,86.23,0,192.6a29.173,29.173,0,1,0,58.346,0Z" transform="translate(1934.596 821.255)" fill="#ffc735"/>
      <path id="Shape-44" data-name="Shape" d="M29.173,0A29.182,29.182,0,1,0,58.346,29.182,29.183,29.183,0,0,0,29.173,0Z" transform="translate(1934.596 986.34)" fill="#013880"/>
      <path id="Shape-45" data-name="Shape" d="M155.792,29.122a48.685,48.685,0,0,1-97.37,0A29.211,29.211,0,0,0,0,29.122C0,88.1,47.953,135.9,107.107,135.9S214.214,88.1,214.214,29.122a29.211,29.211,0,0,0-58.422,0Z" transform="translate(743.498 1102.233)" fill="#ffc735"/>
      <path id="Shape-46" data-name="Shape" d="M155.792,29.122a48.685,48.685,0,0,1-97.37,0A29.211,29.211,0,0,0,0,29.122C0,88.1,47.953,135.9,107.107,135.9S214.214,88.1,214.214,29.122a29.211,29.211,0,0,0-58.422,0Z" transform="translate(1222.771 1041.368)" fill="#0080ff"/>
      <path id="Shape-47" data-name="Shape" d="M29.173,58.363A134.215,134.215,0,0,1,163.37,192.6a29.173,29.173,0,1,0,58.346,0C221.716,86.23,135.511,0,29.173,0a29.182,29.182,0,0,0,0,58.363Z" transform="translate(615.136 1.667)" fill="#e5e0d5"/>
      <path id="Shape-48" data-name="Shape" d="M29.206,58.43A155.79,155.79,0,0,1,184.974,214.243a29.207,29.207,0,1,0,58.413,0C243.387,95.921,147.495,0,29.206,0a29.215,29.215,0,0,0,0,58.43Z" transform="translate(911.035 691.188)" fill="#0080ff"/>
      <path id="Shape-49" data-name="Shape" d="M29.173,0A29.182,29.182,0,1,0,58.346,29.182,29.177,29.177,0,0,0,29.173,0Z" transform="translate(899.366 1102.233)" fill="#013880"/>
      <path id="Shape-50" data-name="Shape" d="M29.173,0A29.182,29.182,0,1,0,58.346,29.182,29.178,29.178,0,0,0,29.173,0Z" transform="translate(1103.578 1286.494)" fill="#013880"/>
      <path id="Shape-51" data-name="Shape" d="M0,29.182A29.173,29.173,0,1,1,29.173,58.363,29.178,29.178,0,0,1,0,29.182Z" transform="translate(1576.183 660.339)" fill="#013880"/>
      <path id="Shape-52" data-name="Shape" d="M0,29.182A29.173,29.173,0,1,1,29.173,58.363,29.178,29.178,0,0,1,0,29.182Z" transform="translate(1498.666 660.339)" fill="#013880"/>
      <path id="Shape-53" data-name="Shape" d="M107.107,0A106.677,106.677,0,0,0,47.218,18.274,107.316,107.316,0,0,0,8.416,65.35,106.25,106.25,0,0,0,0,107V301.544a106.435,106.435,0,0,0,18.29,59.825,107.392,107.392,0,0,0,47.122,38.766A107.058,107.058,0,0,0,167,390.27a107.318,107.318,0,0,0,38.8-47.077,106.248,106.248,0,0,0,8.416-41.649V107a106.434,106.434,0,0,0-18.29-59.825A107.394,107.394,0,0,0,148.8,8.409,106.542,106.542,0,0,0,107.107,0Zm0,350.18a48.6,48.6,0,0,1-48.684-48.636V107a48.685,48.685,0,1,1,97.37,0V301.544a48.63,48.63,0,0,1-48.685,48.636Z" transform="translate(1963.769 1.667)" fill="#0080ff"/>
      <path id="Shape-54" data-name="Shape" d="M58.513,29.14c0,59.01,48.02,106.847,107.274,106.847a29.14,29.14,0,1,1,0,58.28C74.234,194.266,0,120.336,0,29.14a29.257,29.257,0,0,1,58.513,0Z" transform="translate(2042.12 351.847)" fill="#e5e0d5"/>
      <path id="Shape-55" data-name="Shape" d="M58.346,29.182A29.173,29.173,0,1,1,29.173,0,29.182,29.182,0,0,1,58.346,29.182Z" transform="translate(2042.12 351.847)" fill="#013880"/>
      <path id="Shape-56" data-name="Shape" d="M107.107,0A106.586,106.586,0,0,0,47.222,18.3,107.447,107.447,0,0,0,8.417,65.435a107.022,107.022,0,0,0,9.875,101.605,107.424,107.424,0,0,0,47.124,38.817,106.943,106.943,0,0,0,101.576-9.878A107.447,107.447,0,0,0,205.8,148.842a107.021,107.021,0,0,0-9.875-101.605A107.424,107.424,0,0,0,148.8,8.419,106.412,106.412,0,0,0,107.107,0Zm0,155.838a48.526,48.526,0,1,1,18.95-3.827A48.366,48.366,0,0,1,107.107,155.838Z" transform="translate(1702.878 1.667)" fill="#ffc735"/>
      <path id="Shape-57" data-name="Shape" d="M29.188,218.446a29.223,29.223,0,0,0,29.188-29.256,48.7,48.7,0,0,1,48.646-48.76H301.6a48.7,48.7,0,0,1,48.646,48.76,29.188,29.188,0,1,0,58.375,0A107.211,107.211,0,0,0,364,102.026c6.857-25.166,29.96-43.514,58.245-43.514H535.1A29.256,29.256,0,0,0,535.1,0H422.246c-52.792,0-98.138,33.916-113.3,82.165q-3.64-.246-7.342-.248H107.021C47.914,81.917,0,129.944,0,189.189A29.223,29.223,0,0,0,29.188,218.446Z" transform="translate(1196.932 79.207)" fill="#e5e0d5"/>
      <path id="Shape-58" data-name="Shape" d="M107.107,0A106.676,106.676,0,0,0,47.222,18.274,107.325,107.325,0,0,0,8.417,65.35,106.238,106.238,0,0,0,0,107V301.544a106.431,106.431,0,0,0,18.292,59.825,107.4,107.4,0,0,0,47.124,38.766,107.049,107.049,0,0,0,101.576-9.865A107.325,107.325,0,0,0,205.8,343.193a106.238,106.238,0,0,0,8.417-41.649V107a106.431,106.431,0,0,0-18.292-59.825A107.405,107.405,0,0,0,148.8,8.409,106.532,106.532,0,0,0,107.107,0Zm0,350.18a48.606,48.606,0,0,1-48.684-48.636V107a48.685,48.685,0,1,1,97.37,0V301.544a48.634,48.634,0,0,1-48.685,48.636Z" transform="translate(879.361 237.621)" fill="#0080ff"/>
      <path id="Shape-59" data-name="Shape" d="M29.173,0A29.2,29.2,0,0,1,58.346,29.224a48.665,48.665,0,0,0,48.622,48.707H301.456a48.665,48.665,0,0,0,48.622-48.707,29.173,29.173,0,1,1,58.346,0,106.943,106.943,0,0,1-33.551,77.931,106.943,106.943,0,0,1,33.551,77.931v89.621A107.061,107.061,0,0,1,301.456,381.863a29.224,29.224,0,0,1,0-58.448,48.665,48.665,0,0,0,48.622-48.707V185.087a48.665,48.665,0,0,0-48.622-48.707H106.97A107.063,107.063,0,0,1,0,29.224,29.2,29.2,0,0,1,29.173,0Z" transform="translate(1196.932 239.29)" fill="#0080ff"/>
      <path id="Shape-60" data-name="Shape" d="M58.422,107.138a48.685,48.685,0,1,1,48.685,48.7,29.22,29.22,0,0,0,0,58.439A107.138,107.138,0,1,0,0,107.138a29.211,29.211,0,1,0,58.422,0Z" transform="translate(1547.01 161.75)" fill="#0080ff"/>
      <path id="Shape-61" data-name="Shape" d="M155.792,107.138a48.685,48.685,0,1,1-48.685-48.7,29.22,29.22,0,0,0,0-58.439A107.138,107.138,0,1,0,214.214,107.138a29.211,29.211,0,1,0-58.422,0Z" transform="translate(1201.1 401.039)" fill="#0080ff"/>
      <path id="Shape-62" data-name="Shape" d="M186.708,100.972c0,35.92-28.864,64.8-64.181,64.8s-64.181-28.882-64.181-64.8A64.849,64.849,0,0,1,81.062,51.508,29.22,29.22,0,0,0,43.188,7,123.421,123.421,0,0,0,0,100.972c0,67.973,54.727,123.31,122.527,123.31s122.527-55.337,122.527-123.31a29.173,29.173,0,1,0-58.346,0Z" transform="translate(771.004 249.295)" fill="#013880"/>
      <path id="Shape-63" data-name="Shape" d="M58.346,29.182A29.173,29.173,0,1,0,29.173,58.363,29.178,29.178,0,0,0,58.346,29.182Z" transform="translate(1547.01 240.123)" fill="#013880"/>
      <path id="Shape-64" data-name="Shape" d="M58.346,29.182A29.173,29.173,0,1,0,29.173,58.363,29.178,29.178,0,0,0,58.346,29.182Z" transform="translate(1196.932 239.289)" fill="#013880"/>
      <path id="Shape-65" data-name="Shape" d="M58.346,29.182A29.173,29.173,0,1,0,29.173,58.363,29.178,29.178,0,0,0,58.346,29.182Z" transform="translate(1702.878 79.207)" fill="#013880"/>
      <path id="Shape-66" data-name="Shape" d="M58.346,29.182A29.173,29.173,0,1,0,29.173,58.363,29.178,29.178,0,0,0,58.346,29.182Z" transform="translate(1781.229 80.041)" fill="#013880"/>
      <path id="Shape-67" data-name="Shape" d="M106.75,155.838a48.7,48.7,0,0,1,0-97.4A29.22,29.22,0,0,0,106.75,0C47.793,0,0,47.967,0,107.138S47.793,214.277,106.75,214.277a29.22,29.22,0,0,0,0-58.439Z" transform="translate(1333.629 83.376)" fill="#ffc735"/>
      <path id="Shape-68" data-name="Shape" d="M126.643,198.435c-37.118,0-68.192-30.808-68.192-70.036s31.074-70.036,68.192-70.036a29.182,29.182,0,1,0,0-58.363C56.157,0,0,58.035,0,128.4S56.157,256.8,126.643,256.8a29.182,29.182,0,1,0,0-58.363Z" transform="translate(1373.638 562.789)" fill="#ffc735"/>
      <path id="Shape-69" data-name="Shape" d="M348.389,241.683c-74.17,0-134.3-60.21-134.3-134.485A107.047,107.047,0,1,0,0,107.2a29.195,29.195,0,1,0,58.389,0,48.658,48.658,0,1,1,97.315,0c0,106.566,86.268,192.956,192.685,192.956a29.236,29.236,0,0,0,0-58.472Z" transform="translate(959.379 159.248)" fill="#ffc735"/>
      <path id="Shape-70" data-name="Shape" d="M29.173,58.363c122.449,0,221.716,99.3,221.716,221.781a29.173,29.173,0,1,0,58.346,0C309.236,125.425,183.847,0,29.173,0a29.182,29.182,0,0,0,0,58.363Z" transform="translate(963.547 587.802)" fill="#e5e0d5"/>
      <path id="Shape-71" data-name="Shape" d="M247.5,218.328c-104.4,0-189.033-84.658-189.033-189.088A29.232,29.232,0,1,0,0,29.24C0,165.969,110.808,276.809,247.5,276.809a29.24,29.24,0,0,0,0-58.481Z" transform="translate(1605.356 1407.39)" fill="#e5e0d5"/>
      <path id="Shape-72" data-name="Shape" d="M163.37,29.182a134.215,134.215,0,0,1-134.2,134.236,29.182,29.182,0,0,0,0,58.363c106.338,0,192.543-86.23,192.543-192.6a29.173,29.173,0,1,0-58.346,0Z" transform="translate(1638.697 260.967)" fill="#013880"/>
      <path id="Shape-73" data-name="Shape" d="M58.346,192.6a134.215,134.215,0,0,1,134.2-134.236,29.182,29.182,0,0,0,0-58.363C86.2,0,0,86.23,0,192.6a29.173,29.173,0,1,0,58.346,0Z" transform="translate(1.666 1.667)" fill="#0080ff"/>
      <path id="Shape-74" data-name="Shape" d="M147.579,118.486a89.337,89.337,0,0,1-89.324-89.35A29.127,29.127,0,1,0,0,29.136,147.6,147.6,0,0,0,147.579,176.757a29.136,29.136,0,0,0,0-58.272Z" transform="translate(681.818 371.858)" fill="#ffc735"/>
      <path id="Shape-75" data-name="Shape" d="M58.346,29.182A29.173,29.173,0,1,0,29.173,58.363,29.178,29.178,0,0,0,58.346,29.182Z" transform="translate(1411.146 239.289)" fill="#013880"/>
      <path id="Shape-76" data-name="Shape" d="M58.346,29.182A29.173,29.173,0,1,0,29.173,58.363,29.178,29.178,0,0,0,58.346,29.182Z" transform="translate(1279.45 401.039)" fill="#013880"/>
      <path id="Shape-77" data-name="Shape" d="M58.346,29.182A29.173,29.173,0,1,0,29.173,58.363,29.178,29.178,0,0,0,58.346,29.182Z" transform="translate(1278.617 640.329)" fill="#013880"/>
      <path id="Shape-78" data-name="Shape" d="M58.346,29.182A29.173,29.173,0,1,0,29.173,58.363,29.178,29.178,0,0,0,58.346,29.182Z" transform="translate(1278.617 718.702)" fill="#013880"/>
      <path id="Shape-79" data-name="Shape" d="M58.346,29.182A29.173,29.173,0,1,0,29.173,58.363,29.178,29.178,0,0,0,58.346,29.182Z" transform="translate(1222.771 1040.534)" fill="#013880"/>
      <path id="Shape-80" data-name="Shape" d="M58.346,29.182A29.173,29.173,0,1,0,29.173,58.363,29.178,29.178,0,0,0,58.346,29.182Z" transform="translate(1471.16 562.789)" fill="#013880"/>
      <path id="Shape-81" data-name="Shape" d="M107.107,0A106.586,106.586,0,0,0,47.222,18.3,107.447,107.447,0,0,0,8.417,65.435a107.022,107.022,0,0,0,9.875,101.605,107.424,107.424,0,0,0,47.124,38.817,106.943,106.943,0,0,0,101.576-9.878A107.447,107.447,0,0,0,205.8,148.842a107.021,107.021,0,0,0-9.875-101.605A107.424,107.424,0,0,0,148.8,8.419,106.412,106.412,0,0,0,107.107,0Zm0,155.838a48.526,48.526,0,1,1,18.95-3.827A48.366,48.366,0,0,1,107.107,155.838Z" transform="translate(505.945 1464.085)" fill="#ffc735"/>
      <path id="Shape-82" data-name="Shape" d="M29.173,486.917A29.194,29.194,0,0,0,58.346,457.7a48.657,48.657,0,0,1,48.622-48.692H301.456A48.657,48.657,0,0,1,350.078,457.7a29.173,29.173,0,1,0,58.346,0A107.044,107.044,0,0,0,301.456,350.58h-190.6a48.657,48.657,0,0,1-48.622-48.692V107.122A48.657,48.657,0,0,1,110.858,58.43a29.215,29.215,0,0,0,0-58.43A107.045,107.045,0,0,0,3.89,107.122V301.888a106.871,106.871,0,0,0,31.654,76.07A106.918,106.918,0,0,0,0,457.7,29.194,29.194,0,0,0,29.173,486.917Z" transform="translate(-0.001 953.823)" fill="#0080ff"/>
      <path id="Shape-83" data-name="Shape" d="M309.125,135.633a118.78,118.78,0,0,0,113.04,81.979H535.088a29.114,29.114,0,1,0,0-58.227H422.165a60.354,60.354,0,0,1-58.066-43.7,106.581,106.581,0,0,0,44.326-86.565,29.173,29.173,0,0,0-58.346,0,48.58,48.58,0,0,1-48.622,48.537H106.968A48.58,48.58,0,0,1,58.346,29.122,29.173,29.173,0,0,0,0,29.122,106.874,106.874,0,0,0,106.968,135.9H301.456q3.868,0,7.669-.27Z" transform="translate(-0.001 1382.377)" fill="#e5e0d5"/>
      <path id="Shape-84" data-name="Shape" d="M58.422,107.138a48.685,48.685,0,1,0,48.685-48.7,29.22,29.22,0,0,1,0-58.439A107.138,107.138,0,1,1,0,107.138a29.211,29.211,0,1,1,58.422,0Z" transform="translate(350.077 1304.003)" fill="#0080ff"/>
      <path id="Shape-85" data-name="Shape" d="M58.346,29.182A29.173,29.173,0,1,1,29.173,0,29.178,29.178,0,0,1,58.346,29.182Z" transform="translate(350.077 1381.543)" fill="#013880"/>
      <path id="Shape-86" data-name="Shape" d="M58.346,29.182A29.173,29.173,0,1,1,29.173,0,29.178,29.178,0,0,1,58.346,29.182Z" transform="translate(-0.001 1382.377)" fill="#0080ff"/>
      <path id="Shape-87" data-name="Shape" d="M58.346,29.182A29.173,29.173,0,1,1,29.173,0,29.178,29.178,0,0,1,58.346,29.182Z" transform="translate(320.904 1204.786)" fill="#0080ff"/>
      <path id="Shape-88" data-name="Shape" d="M58.346,29.182A29.173,29.173,0,1,1,29.173,0,29.178,29.178,0,0,1,58.346,29.182Z" transform="translate(320.904 1127.246)" fill="#0080ff"/>
      <path id="Shape-89" data-name="Shape" d="M58.346,29.182A29.173,29.173,0,1,1,29.173,0,29.178,29.178,0,0,1,58.346,29.182Z" transform="translate(574.294 1093.895)" fill="#0080ff"/>
      <path id="Shape-90" data-name="Shape" d="M58.346,29.182A29.173,29.173,0,1,1,29.173,0,29.178,29.178,0,0,1,58.346,29.182Z" transform="translate(654.311 1098.064)" fill="#0080ff"/>
      <path id="Shape-91" data-name="Shape" d="M58.346,29.182A29.173,29.173,0,1,1,29.173,0,29.178,29.178,0,0,1,58.346,29.182Z" transform="translate(654.311 1016.355)" fill="#0080ff"/>
      <path id="Shape-92" data-name="Shape" d="M58.346,29.182A29.173,29.173,0,1,1,29.173,0,29.178,29.178,0,0,1,58.346,29.182Z" transform="translate(256.723 0)" fill="#0080ff"/>
      <path id="Shape-93" data-name="Shape" d="M58.346,29.182A29.173,29.173,0,1,1,29.173,0,29.178,29.178,0,0,1,58.346,29.182Z" transform="translate(344.242 0)" fill="#013880"/>
      <path id="Shape-94" data-name="Shape" d="M58.346,29.182A29.173,29.173,0,1,1,29.173,0,29.178,29.178,0,0,1,58.346,29.182Z" transform="translate(607.634 1.667)" fill="#0080ff"/>
      <path id="Shape-95" data-name="Shape" d="M58.346,29.182A29.173,29.173,0,1,1,29.173,0,29.178,29.178,0,0,1,58.346,29.182Z" transform="translate(505.945 1541.625)" fill="#013880"/>
      <path id="Shape-96" data-name="Shape" d="M58.346,29.182A29.173,29.173,0,1,1,29.173,0,29.178,29.178,0,0,1,58.346,29.182Z" transform="translate(584.296 1541.625)" fill="#013880"/>
      <path id="Shape-97" data-name="Shape" d="M106.75,58.439a48.7,48.7,0,0,0,0,97.4,29.22,29.22,0,0,1,0,58.439C47.793,214.277,0,166.309,0,107.138S47.793,0,106.75,0a29.22,29.22,0,0,1,0,58.439Z" transform="translate(175.038 1382.377)" fill="#ffc735"/>
      <path id="Shape-98" data-name="Shape" d="M29.173,163.417A134.215,134.215,0,0,0,163.37,29.182a29.173,29.173,0,1,1,58.346,0c0,106.369-86.2,192.6-192.543,192.6a29.182,29.182,0,0,1,0-58.363Z" transform="translate(107.523 983.005)" fill="#013880"/>
      <path id="Shape-99" data-name="Shape" d="M58.346,29.182A29.173,29.173,0,1,1,29.173,0,29.178,29.178,0,0,1,58.346,29.182Z" transform="translate(83.351 953.823)" fill="#013880"/>
      <path id="Shape-100" data-name="Shape" d="M58.346,29.182A29.173,29.173,0,1,0,29.173,58.363,29.178,29.178,0,0,0,58.346,29.182Z" transform="translate(1356.968 401.039)" fill="#0080ff"/>
      <path id="Shape-101" data-name="Shape" d="M58.346,29.182A29.173,29.173,0,1,0,29.173,58.363,29.178,29.178,0,0,0,58.346,29.182Z" transform="translate(1434.485 401.039)" fill="#0080ff"/>
      <path id="Shape-102" data-name="Shape" d="M58.346,29.182A29.173,29.173,0,1,0,29.173,58.363,29.178,29.178,0,0,0,58.346,29.182Z" transform="translate(957.712 587.802)" fill="#013880"/>
      <path id="Shape-103" data-name="Shape" d="M58.346,29.182A29.173,29.173,0,1,0,29.173,58.363,29.178,29.178,0,0,0,58.346,29.182Z" transform="translate(959.379 237.622)" fill="#013880"/>
      <path id="Shape-104" data-name="Shape" d="M118.457,367.689c-32.97,0-60.013-26.911-60.013-60.5s27.044-60.5,60.013-60.5c119.809,0,216.618-97.558,216.618-217.51a29.222,29.222,0,0,0-58.443,0c0,88.068-70.991,159.147-158.175,159.147C52.862,188.329,0,241.719,0,307.189S52.862,426.052,118.457,426.052a29.182,29.182,0,1,0,0-58.363Z" transform="translate(1224.438 1051.373)" fill="#ffc735"/>
      <path id="Shape-105" data-name="Shape" d="M186.708,218.38c0-88.588-70.815-159.885-157.535-159.885A29.247,29.247,0,0,1,29.173,0C148.686,0,245.055,98.058,245.055,218.38a29.173,29.173,0,1,1-58.346,0Z" transform="translate(1313.625 862.109)" fill="#013880"/>
      <path id="Shape-106" data-name="Shape" d="M29.173,0A29.182,29.182,0,1,0,58.346,29.182,29.178,29.178,0,0,0,29.173,0Z" transform="translate(1500.333 1051.373)" fill="#0080ff"/>
      <path id="Shape-107" data-name="Shape" d="M29.173,185.1A29.2,29.2,0,0,0,58.346,155.87V29.226A29.173,29.173,0,1,0,0,29.226V155.87A29.2,29.2,0,0,0,29.173,185.1Z" transform="translate(1103.578 1072.217)" fill="#0080ff"/>
      <path id="Shape-108" data-name="Shape" d="M225.826,255.1C225.826,146.478,137.8,58.42,29.2,58.42A29.21,29.21,0,0,1,29.2,0C170.049,0,284.23,114.214,284.23,255.1a29.2,29.2,0,1,1-58.4,0Z" transform="translate(428.428 1166.432)" fill="#0080ff"/>
      <path id="Shape-109" data-name="Shape" d="M305.9,29.182A29.2,29.2,0,0,0,276.675,0H29.226a29.182,29.182,0,1,0,0,58.363H276.675A29.2,29.2,0,0,0,305.9,29.182Z" transform="translate(1309.457 1329.85)" fill="#e5e0d5"/>
      <path id="Shape-110" data-name="Shape" d="M58.346,29.182A29.173,29.173,0,1,1,29.173,0,29.178,29.178,0,0,1,58.346,29.182Z" transform="translate(654.311 1392.382)" fill="#013880"/>
      <path id="Shape-111" data-name="Shape" d="M49.8,8.547a29.177,29.177,0,1,0,0,41.269A29.166,29.166,0,0,0,49.8,8.547Z" transform="translate(1507.001 1413.226)" fill="#0080ff"/>
      <path id="Shape-112" data-name="Shape" d="M49.8,8.548a29.177,29.177,0,1,0,0,41.269A29.166,29.166,0,0,0,49.8,8.548Z" transform="translate(1308.624 1500.771)" fill="#0080ff"/>
      <path id="Shape-113" data-name="Shape" d="M0,29.182A29.178,29.178,0,0,0,29.173,58.363h93.354a29.182,29.182,0,0,0,0-58.363H29.173A29.178,29.178,0,0,0,0,29.182Z" transform="translate(-0.001 761.224)" fill="#0080ff"/>
      <path id="Shape-114" data-name="Shape" d="M29.173,0A29.15,29.15,0,0,0,0,29.125v83.49a29.173,29.173,0,0,0,58.346,0V29.125A29.15,29.15,0,0,0,29.173,0Z" transform="translate(899.366 5.836)" fill="#0080ff"/>
      <path id="Shape-115" data-name="Shape" d="M0,29.182A29.192,29.192,0,0,0,29.2,58.363H260.863a29.182,29.182,0,1,0,0-58.363H29.2A29.192,29.192,0,0,0,0,29.182Z" transform="translate(1068.57 0)" fill="#ffc735"/>
      <path id="Shape-116" data-name="Shape" d="M0,29.182A29.177,29.177,0,0,0,29.173,58.363h134.2A29.182,29.182,0,0,0,163.37,0H29.173A29.177,29.177,0,0,0,0,29.182Z" transform="translate(-0.001 1623.334)" fill="#013880"/>
      <path id="Shape-117" data-name="Shape" d="M29.173,0A29.182,29.182,0,1,0,58.346,29.182,29.178,29.178,0,0,0,29.173,0Z" transform="translate(1307.79 0)" fill="#013880"/>
      <path id="Shape-118" data-name="Shape" d="M147.579,118.486a89.336,89.336,0,0,1-89.324-89.35A29.127,29.127,0,1,0,0,29.136,147.6,147.6,0,0,0,147.579,176.757a29.136,29.136,0,0,0,0-58.272Z" transform="translate(1104.411 1378.208)" fill="#013880"/>
      <path id="Shape-119" data-name="Shape" d="M8.545,49.816a29.177,29.177,0,1,0,0-41.269A29.166,29.166,0,0,0,8.545,49.816Z" transform="translate(1104.411 1378.208)" fill="#0080ff"/>
      <path id="Shape-120" data-name="Shape" d="M29.173,58.363c103.115,0,186.708,83.617,186.708,186.763a29.173,29.173,0,1,0,58.346,0C274.228,109.746,164.513,0,29.173,0a29.182,29.182,0,0,0,0,58.363Z" transform="translate(1662.036 516.098)" fill="#0080ff"/>
      <path id="Shape-121" data-name="Shape" d="M49.8,8.547a29.177,29.177,0,1,0,0,41.269A29.166,29.166,0,0,0,49.8,8.547Z" transform="translate(1877.917 732.043)" fill="#0080ff"/>
      <path id="Shape-122" data-name="Shape" d="M49.8,8.547a29.175,29.175,0,1,0,0,41.269A29.159,29.159,0,0,0,49.8,8.547Z" transform="translate(1960.435 732.043)" fill="#0080ff"/>
      <path id="Shape-123" data-name="Shape" d="M311.688,282.55c-139.87,0-253.247-113.415-253.247-253.321A29.221,29.221,0,1,0,0,29.229C0,201.421,139.539,341.009,311.688,341.009a29.229,29.229,0,0,0,0-58.459Z" transform="translate(1893.754 348.512)" fill="#ffc735"/>
      <path id="Shape-124" data-name="Shape" d="M58.346,29.329a29.173,29.173,0,1,0-29.32,29.034A29.175,29.175,0,0,0,58.346,29.329Z" transform="translate(1557.012 1329.85)" fill="#013880"/>
      <path id="Shape-125" data-name="Shape" d="M58.346,29.329a29.173,29.173,0,1,0-29.32,29.034A29.176,29.176,0,0,0,58.346,29.329Z" transform="translate(1823.738 1625.835)" fill="#013880"/>
      <path id="Shape-126" data-name="Shape" d="M58.346,29.329a29.173,29.173,0,1,0-29.32,29.034A29.176,29.176,0,0,0,58.346,29.329Z" transform="translate(1557.012 1623.334)" fill="#013880"/>
      <path id="Shape-127" data-name="Shape" d="M58.346,29.329a29.173,29.173,0,1,0-29.32,29.034A29.176,29.176,0,0,0,58.346,29.329Z" transform="translate(1557.012 1545.794)" fill="#013880"/>
      <path id="Shape-128" data-name="Shape" d="M145.009,0H29.2a29.182,29.182,0,1,0,0,58.363H145.009a29.182,29.182,0,1,0,0-58.363Z" transform="translate(2045.454 732.043)" fill="#e5e0d5"/>
      <path id="Shape-129" data-name="Shape" d="M58.346,29.182A29.173,29.173,0,1,0,29.173,58.363,29.183,29.183,0,0,0,58.346,29.182Z" transform="translate(2176.317 631.157)" fill="#013880"/>
      <path id="Shape-130" data-name="Shape" d="M155.792,107.138a48.685,48.685,0,1,1-48.685-48.7,29.22,29.22,0,0,0,0-58.439A107.138,107.138,0,1,0,214.214,107.138a29.211,29.211,0,1,0-58.422,0Z" transform="translate(1745.388 1329.85)" fill="#0080ff"/>
      <path id="Shape-131" data-name="Shape" d="M106.75,155.838a48.7,48.7,0,0,1,0-97.4A29.22,29.22,0,0,0,106.75,0C47.785,0,0,47.967,0,107.138S47.785,214.277,106.75,214.277a29.22,29.22,0,0,0,0-58.439Z" transform="translate(1944.599 1482.428)" fill="#e5e0d5"/>
      <path id="Shape-132" data-name="Shape" d="M58.346,29.182A29.173,29.173,0,1,0,29.173,58.363,29.178,29.178,0,0,0,58.346,29.182Z" transform="translate(1825.405 1329.85)" fill="#013880"/>
      <path id="Shape-133" data-name="Shape" d="M58.346,29.182A29.173,29.173,0,1,0,29.173,58.363,29.183,29.183,0,0,0,58.346,29.182Z" transform="translate(2023.783 1482.428)" fill="#0080ff"/>
      <path id="Shape-134" data-name="Shape" d="M58.346,29.182A29.173,29.173,0,1,0,29.173,58.363,29.183,29.183,0,0,0,58.346,29.182Z" transform="translate(1903.756 1329.85)" fill="#0080ff"/>
      <path id="Shape-135" data-name="Shape" d="M58.346,29.182A29.173,29.173,0,1,0,29.173,58.363,29.183,29.183,0,0,0,58.346,29.182Z" transform="translate(1981.273 1329.85)" fill="#0080ff"/>
      <path id="Shape-136" data-name="Shape" d="M58.346,29.182A29.173,29.173,0,1,0,29.173,58.363,29.183,29.183,0,0,0,58.346,29.182Z" transform="translate(2026.283 1561.635)" fill="#013880"/>
      <path id="Shape-137" data-name="Shape" d="M58.346,29.182A29.173,29.173,0,1,0,29.173,58.363,29.183,29.183,0,0,0,58.346,29.182Z" transform="translate(2103.801 1561.635)" fill="#013880"/>
      <path id="Shape-138" data-name="Shape" d="M58.346,29.182A29.173,29.173,0,1,0,29.173,58.363,29.183,29.183,0,0,0,58.346,29.182Z" transform="translate(2182.151 1561.635)" fill="#013880"/>
      <path id="Shape-139" data-name="Shape" d="M29.173,0A29.182,29.182,0,1,0,58.346,29.182,29.183,29.183,0,0,0,29.173,0Z" transform="translate(2104.634 1070.55)" fill="#0080ff"/>
    </g>
  </g>
</svg>
