<svg id="birth" xmlns="http://www.w3.org/2000/svg" xmlns:xlink="http://www.w3.org/1999/xlink" width="1080" height="1080" viewBox="0 0 1080 1080">
  <defs>
    <linearGradient id="linear-gradient" x1="0.206" y1="0.036" x2="0.62" y2="0.984" gradientUnits="objectBoundingBox">
      <stop offset="0" stop-color="#26b4ff"/>
      <stop offset="1" stop-color="#1878f2"/>
    </linearGradient>
  </defs>
  <g id="Group_333" data-name="Group 333">
    <path id="Union_818" data-name="Union 818" d="M-4039-19315a170,170,0,0,1-170-170v-622h1076v622a170,170,0,0,1-170,170Z" transform="translate(4211 20393)" fill="url(#linear-gradient)"/>
    <path id="Subtraction_239" data-name="Subtraction 239" d="M-3133-19823v0H-4209v-114a171.3,171.3,0,0,1,3.454-34.262,169.213,169.213,0,0,1,9.906-31.91,170.046,170.046,0,0,1,15.674-28.877,171.078,171.078,0,0,1,20.758-25.158,171.145,171.145,0,0,1,25.159-20.76,170.174,170.174,0,0,1,28.876-15.674,169.1,169.1,0,0,1,31.91-9.9A171.04,171.04,0,0,1-4039-20107h736a171.053,171.053,0,0,1,34.261,3.455,169.115,169.115,0,0,1,31.911,9.9,170.173,170.173,0,0,1,28.877,15.674,171.128,171.128,0,0,1,25.16,20.76,171.034,171.034,0,0,1,20.759,25.158,170,170,0,0,1,15.674,28.877,169.141,169.141,0,0,1,9.906,31.91A171.285,171.285,0,0,1-3133-19937v114Zm-269.5-189a47.554,47.554,0,0,0-47.5,47.5,47.554,47.554,0,0,0,47.5,47.5,47.554,47.554,0,0,0,47.5-47.5A47.554,47.554,0,0,0-3402.5-20012Zm-537,0a47.554,47.554,0,0,0-47.5,47.5,47.554,47.554,0,0,0,47.5,47.5,47.554,47.554,0,0,0,47.5-47.5A47.554,47.554,0,0,0-3939.5-20012Z" transform="translate(4211.002 20109)" fill="#005ed6"/>
    <path id="Union_817" data-name="Union 817" d="M-4198.684-19700.312h79.833c1.758,36.98,26.414,63.4,70.438,63.4,41.092,0,62.223-25.83,62.223-59.877,0-48.133-30.526-65.744-91.574-65.744h-17.023v-67.5h17.023c48.137,0,83.354-13.5,83.354-55.766,0-33.459-20.543-53.416-58.11-53.416-39.917,0-56.94,25.826-59.873,52.828h-80.421c4.108-79.246,60.46-122.684,142.639-122.684,88.054,0,135.011,49.895,135.011,113.293,0,53.42-33.459,86.287-64.568,96.857v2.346c43.437,13.5,72.2,48.719,72.2,106.834,0,69.855-49.307,121.508-139.119,121.508C-4131.178-19568.238-4195.164-19610.5-4198.684-19700.312Zm464.459,129.143v-352.2h-56.94v-75.727H-3649.7v427.928Z" transform="translate(4474.189 20455)" fill="rgba(0,0,0,0.15)"/>
    <path id="Union_816" data-name="Union 816" d="M-4198.684-19700.312h79.833c1.758,36.98,26.414,63.4,70.438,63.4,41.092,0,62.223-25.83,62.223-59.877,0-48.133-30.526-65.744-91.574-65.744h-17.023v-67.5h17.023c48.137,0,83.354-13.5,83.354-55.766,0-33.459-20.543-53.416-58.11-53.416-39.917,0-56.94,25.826-59.873,52.828h-80.421c4.108-79.246,60.46-122.684,142.639-122.684,88.054,0,135.011,49.895,135.011,113.293,0,53.42-33.459,86.287-64.568,96.857v2.346c43.437,13.5,72.2,48.719,72.2,106.834,0,69.855-49.307,121.508-139.119,121.508C-4131.178-19568.238-4195.164-19610.5-4198.684-19700.312Zm464.459,129.143v-352.2h-56.94v-75.727H-3649.7v427.928Z" transform="translate(4452.189 20414)" fill="#fff"/>
  </g>
  <rect id="Rectangle_177" data-name="Rectangle 177" width="1080" height="1080" fill="none"/>
</svg>
