<svg width="1080" height="1080" viewBox="0 0 1080 1080" fill="none" xmlns="http://www.w3.org/2000/svg">
<path d="M2 122C2 55.7258 55.7258 2 122 2H958C1024.27 2 1078 55.7258 1078 122V298H2V122Z" fill="url(#paint0_linear_268_3)"/>
<rect x="248" y="90" width="585" height="120" rx="60" fill="white" fill-opacity="0.53"/>
<path d="M2 298H1078V958C1078 1024.27 1024.27 1078 958 1078H122C55.7258 1078 2 1024.27 2 958V298Z" fill="url(#paint1_linear_268_3)"/>
<g filter="url(#filter0_f_268_3)">
<path fill-rule="evenodd" clip-rule="evenodd" d="M577.141 461.962C564.903 434.013 525.256 434.013 513.018 461.962L468.013 564.747C462.898 576.43 451.833 584.406 439.132 585.564L326.868 595.805C296.119 598.61 283.801 636.958 307.165 657.144L391.028 729.604C400.834 738.077 405.156 751.274 402.262 763.906L377.579 871.617C370.733 901.494 402.877 925.116 429.346 909.658L527.429 852.377C538.334 846.008 551.825 846.008 562.73 852.377L660.814 909.658C687.282 925.116 719.427 901.494 712.58 871.617L687.898 763.906C685.003 751.274 689.325 738.077 699.131 729.604L782.995 657.144C806.358 636.958 794.04 598.61 763.292 595.805L651.028 585.564C638.327 584.406 627.261 576.43 622.146 564.747L577.141 461.962Z" fill="black" fill-opacity="0.2"/>
</g>
<path fill-rule="evenodd" clip-rule="evenodd" d="M566.141 441.962C553.903 414.013 514.256 414.013 502.018 441.962L457.013 544.747C451.898 556.43 440.833 564.406 428.132 565.564L315.868 575.805C285.119 578.61 272.801 616.958 296.165 637.144L380.028 709.604C389.834 718.077 394.156 731.274 391.262 743.906L366.579 851.617C359.733 881.494 391.877 905.116 418.346 889.658L516.429 832.377C527.334 826.008 540.825 826.008 551.73 832.377L649.814 889.658C676.282 905.116 708.427 881.494 701.58 851.617L676.898 743.906C674.003 731.274 678.325 718.077 688.131 709.604L771.995 637.144C795.358 616.958 783.04 578.61 752.292 575.805L640.028 565.564C627.327 564.406 616.261 556.43 611.146 544.747L566.141 441.962Z" fill="url(#paint2_linear_268_3)"/>
<defs>
<filter id="filter0_f_268_3" x="245" y="391" width="600.16" height="573.535" filterUnits="userSpaceOnUse" color-interpolation-filters="sRGB">
<feFlood flood-opacity="0" result="BackgroundImageFix"/>
<feBlend mode="normal" in="SourceGraphic" in2="BackgroundImageFix" result="shape"/>
<feGaussianBlur stdDeviation="25" result="effect1_foregroundBlur_268_3"/>
</filter>
<linearGradient id="paint0_linear_268_3" x1="227" y1="-286.5" x2="846.341" y2="520.164" gradientUnits="userSpaceOnUse">
<stop stop-color="#E01E37"/>
<stop offset="1" stop-color="#9D0208"/>
</linearGradient>
<linearGradient id="paint1_linear_268_3" x1="316" y1="195" x2="773.253" y2="1115.12" gradientUnits="userSpaceOnUse">
<stop stop-color="#E9E9E9"/>
<stop offset="1" stop-color="#CCCCCC"/>
</linearGradient>
<linearGradient id="paint2_linear_268_3" x1="322.5" y1="363.5" x2="663.414" y2="1031.38" gradientUnits="userSpaceOnUse">
<stop stop-color="#777777"/>
<stop offset="1" stop-color="#333333"/>
</linearGradient>
</defs>
</svg>
