<svg width="1080" height="1080" viewBox="0 0 1080 1080" fill="none" xmlns="http://www.w3.org/2000/svg">
<path d="M2 298H1078V958C1078 1024.27 1024.27 1078 958 1078H122C55.7258 1078 2 1024.27 2 958V298Z" fill="url(#paint0_linear_272_85)"/>
<path d="M2 122C2 55.7258 55.7258 2 122 2H958C1024.27 2 1078 55.7258 1078 122V298H2V122Z" fill="url(#paint1_linear_272_85)"/>
<rect x="248" y="90" width="585" height="120" rx="60" fill="white" fill-opacity="0.53"/>
<g filter="url(#filter0_f_272_85)">
<path fill-rule="evenodd" clip-rule="evenodd" d="M333.924 506.248C309.46 527.747 296.487 558.327 295.004 597.988H387.856C388.968 585.385 392.86 574.821 399.532 566.296C406.575 557.771 417.139 553.508 431.224 553.508C444.197 553.508 454.391 557.215 461.804 564.628C469.217 572.041 472.924 582.42 472.924 595.764C472.924 612.444 466.993 624.12 455.132 630.792C443.641 637.093 428.444 640.244 409.54 640.244H391.748V717.528H409.54C434.375 717.528 452.352 721.605 463.472 729.76C474.963 737.544 480.708 750.332 480.708 768.124C480.708 781.839 476.631 792.959 468.476 801.484C460.692 809.639 449.572 813.716 435.116 813.716C418.065 813.716 405.092 809.083 396.196 799.816C387.3 790.179 382.667 777.205 382.296 760.896H290C291.483 805.005 305.383 837.995 331.7 859.864C358.388 881.733 393.972 892.668 438.452 892.668C466.252 892.668 490.16 887.664 510.176 877.656C530.563 867.648 545.945 853.933 556.324 836.512C567.073 818.72 572.448 798.333 572.448 775.352C572.448 749.776 566.332 728.833 554.1 712.524C541.868 696.215 525.188 684.539 504.06 677.496V675.272C520.369 669.712 534.64 659.333 546.872 644.136C559.104 628.568 565.22 608.552 565.22 584.088C565.22 563.331 560.031 544.612 549.652 527.932C539.644 511.252 524.632 498.093 504.616 488.456C484.971 478.819 461.248 474 433.448 474C391.563 474 358.388 484.749 333.924 506.248ZM652.012 484.12V572.524H707.056V890H806.024V484.12H652.012Z" fill="black" fill-opacity="0.17"/>
</g>
<path fill-rule="evenodd" clip-rule="evenodd" d="M316.924 487.248C292.46 508.747 279.487 539.327 278.004 578.988H370.856C371.968 566.385 375.86 555.821 382.532 547.296C389.575 538.771 400.139 534.508 414.224 534.508C427.197 534.508 437.391 538.215 444.804 545.628C452.217 553.041 455.924 563.42 455.924 576.764C455.924 593.444 449.993 605.12 438.132 611.792C426.641 618.093 411.444 621.244 392.54 621.244H374.748V698.528H392.54C417.375 698.528 435.352 702.605 446.472 710.76C457.963 718.544 463.708 731.332 463.708 749.124C463.708 762.839 459.631 773.959 451.476 782.484C443.692 790.639 432.572 794.716 418.116 794.716C401.065 794.716 388.092 790.083 379.196 780.816C370.3 771.179 365.667 758.205 365.296 741.896H273C274.483 786.005 288.383 818.995 314.7 840.864C341.388 862.733 376.972 873.668 421.452 873.668C449.252 873.668 473.16 868.664 493.176 858.656C513.563 848.648 528.945 834.933 539.324 817.512C550.073 799.72 555.448 779.333 555.448 756.352C555.448 730.776 549.332 709.833 537.1 693.524C524.868 677.215 508.188 665.539 487.06 658.496V656.272C503.369 650.712 517.64 640.333 529.872 625.136C542.104 609.568 548.22 589.552 548.22 565.088C548.22 544.331 543.031 525.612 532.652 508.932C522.644 492.252 507.632 479.093 487.616 469.456C467.971 459.819 444.248 455 416.448 455C374.563 455 341.388 465.749 316.924 487.248ZM635.012 465.12V553.524H690.056V871H789.024V465.12H635.012Z" fill="url(#paint2_linear_272_85)"/>
<defs>
<filter id="filter0_f_272_85" x="267" y="451" width="562.023" height="464.668" filterUnits="userSpaceOnUse" color-interpolation-filters="sRGB">
<feFlood flood-opacity="0" result="BackgroundImageFix"/>
<feBlend mode="normal" in="SourceGraphic" in2="BackgroundImageFix" result="shape"/>
<feGaussianBlur stdDeviation="11.5" result="effect1_foregroundBlur_272_85"/>
</filter>
<linearGradient id="paint0_linear_272_85" x1="316" y1="195" x2="773.253" y2="1115.12" gradientUnits="userSpaceOnUse">
<stop stop-color="#E9E9E9"/>
<stop offset="1" stop-color="#CCCCCC"/>
</linearGradient>
<linearGradient id="paint1_linear_272_85" x1="227" y1="-286.5" x2="846.341" y2="520.164" gradientUnits="userSpaceOnUse">
<stop stop-color="#E01E37"/>
<stop offset="1" stop-color="#9D0208"/>
</linearGradient>
<linearGradient id="paint2_linear_272_85" x1="555.5" y1="259" x2="725" y2="1093" gradientUnits="userSpaceOnUse">
<stop stop-color="#777777"/>
<stop offset="1" stop-color="#333333"/>
</linearGradient>
</defs>
</svg>
