<svg id="calendar" xmlns="http://www.w3.org/2000/svg" xmlns:xlink="http://www.w3.org/1999/xlink" width="1080" height="1080" viewBox="0 0 1080 1080">
  <defs>
    <linearGradient id="linear-gradient" x1="0.402" y1="-0.882" x2="0.574" y2="1.583" gradientUnits="objectBoundingBox">
      <stop offset="0" stop-color="#2c89ff"/>
      <stop offset="1" stop-color="#005ed6"/>
    </linearGradient>
    <linearGradient id="linear-gradient-2" x1="0.5" y1="1.122" x2="0.268" y2="-0.118" gradientUnits="objectBoundingBox">
      <stop offset="0" stop-color="#e9e9e9"/>
      <stop offset="1" stop-color="#f2f2f2"/>
    </linearGradient>
    <linearGradient id="linear-gradient-3" x1="0.675" y1="0.5" x2="2.934" y2="5.298" gradientUnits="objectBoundingBox">
      <stop offset="0" stop-color="#26b4ff"/>
      <stop offset="1" stop-color="#2c89ff"/>
    </linearGradient>
    <linearGradient id="linear-gradient-4" x1="-1.041" y1="-0.76" x2="1.903" y2="4.055" xlink:href="#linear-gradient-3"/>
    <linearGradient id="linear-gradient-5" x1="-1.742" y1="-2.451" x2="-0.364" y2="1.93" gradientUnits="objectBoundingBox">
      <stop offset="0" stop-color="#26b4ff"/>
      <stop offset="1" stop-color="#1878f2"/>
    </linearGradient>
    <linearGradient id="linear-gradient-8" x1="-0.678" y1="-1.251" x2="0.355" y2="1.856" xlink:href="#linear-gradient-3"/>
    <linearGradient id="linear-gradient-11" x1="0" y1="-0.137" x2="1.488" y2="3.065" xlink:href="#linear-gradient-3"/>
  </defs>
  <g id="Group_328" data-name="Group 328">
    <path id="Union_163" data-name="Union 163" d="M10284-2350v-170a130,130,0,0,1,130-130h816a130,130,0,0,1,130,130v170Z" transform="translate(-10282 2652)" fill="url(#linear-gradient)"/>
    <path id="Union_790" data-name="Union 790" d="M-11887.5-18784a51.5,51.5,0,0,1-51.5-51.5,51.5,51.5,0,0,1,51.5-51.5h334a51.5,51.5,0,0,1,51.5,51.5,51.5,51.5,0,0,1-51.5,51.5Z" transform="translate(12261 18987)" fill="url(#linear-gradient-2)"/>
    <path id="Union_805" data-name="Union 805" d="M0,258.667V0H358.664V258.667Z" transform="translate(2.002 302.001)" fill="url(#linear-gradient-3)"/>
    <path id="Union_806" data-name="Union 806" d="M0,258.667V0H358.664V258.667Z" transform="translate(360.668 302.001)" fill="url(#linear-gradient-4)"/>
    <path id="Union_807" data-name="Union 807" d="M0,258.667V0H358.664V258.667Z" transform="translate(719.334 302.001)" fill="url(#linear-gradient-5)"/>
    <path id="Union_808" data-name="Union 808" d="M0,258.667V0H358.664V258.667Z" transform="translate(2.003 560.667)" fill="url(#linear-gradient-4)"/>
    <path id="Union_809" data-name="Union 809" d="M0,258.667V0H358.664V258.667Z" transform="translate(360.669 560.667)" fill="url(#linear-gradient-5)"/>
    <path id="Union_810" data-name="Union 810" d="M0,258.667V0H358.664V258.667Z" transform="translate(719.335 560.667)" fill="url(#linear-gradient-8)"/>
    <path id="Union_811" data-name="Union 811" d="M130,258.667a130,130,0,0,1-130-130V0H358.664V258.667Z" transform="translate(2.003 819.333)" fill="url(#linear-gradient-5)"/>
    <path id="Union_812" data-name="Union 812" d="M0,258.667V0H358.664V258.667Z" transform="translate(360.669 819.333)" fill="url(#linear-gradient-8)"/>
    <path id="Union_813" data-name="Union 813" d="M0,258.667V0H358.664V128.668a130,130,0,0,1-130,130Z" transform="translate(719.335 819.334)" fill="url(#linear-gradient-11)"/>
  </g>
  <rect id="Rectangle_177" data-name="Rectangle 177" width="1080" height="1080" fill="none"/>
</svg>
