<svg xmlns="http://www.w3.org/2000/svg" xmlns:xlink="http://www.w3.org/1999/xlink" width="1920" height="430" viewBox="0 0 1920 430">
  <defs>
    <linearGradient id="linear-gradient" x1="-0.05" y1="-0.203" x2="0.93" y2="2.549" gradientUnits="objectBoundingBox">
      <stop offset="0" stop-color="#26b4ff"/>
      <stop offset="1" stop-color="#013880"/>
    </linearGradient>
    <linearGradient id="linear-gradient-2" x1="0.652" y1="0.528" x2="0.894" y2="-0.033" gradientUnits="objectBoundingBox">
      <stop offset="0" stop-color="#ffce48"/>
      <stop offset="1" stop-color="#fb8b02"/>
    </linearGradient>
    <filter id="Path_434" x="613.955" y="-827.399" width="1373.406" height="1357.399" filterUnits="userSpaceOnUse">
      <feOffset input="SourceAlpha"/>
      <feGaussianBlur stdDeviation="30" result="blur"/>
      <feFlood flood-opacity="0.161"/>
      <feComposite operator="in" in2="blur"/>
      <feComposite in="SourceGraphic"/>
    </filter>
    <filter id="Path_436" x="634.889" y="-827.399" width="1375.111" height="1357.399" filterUnits="userSpaceOnUse">
      <feOffset input="SourceAlpha"/>
      <feGaussianBlur stdDeviation="30" result="blur-2"/>
      <feFlood flood-opacity="0.161"/>
      <feComposite operator="in" in2="blur-2"/>
      <feComposite in="SourceGraphic"/>
    </filter>
    <linearGradient id="linear-gradient-3" x1="0.5" y1="0.576" x2="0.5" y2="1" gradientUnits="objectBoundingBox">
      <stop offset="0" stop-color="#22a1fb"/>
      <stop offset="1" stop-color="#11a6f5"/>
    </linearGradient>
    <filter id="Path_437" x="671.957" y="-100.047" width="1338.043" height="630.047" filterUnits="userSpaceOnUse">
      <feOffset input="SourceAlpha"/>
      <feGaussianBlur stdDeviation="30" result="blur-3"/>
      <feFlood flood-opacity="0.161"/>
      <feComposite operator="in" in2="blur-3"/>
      <feComposite in="SourceGraphic"/>
    </filter>
    <filter id="Path_439" x="727.549" y="107.734" width="1282.451" height="422.262" filterUnits="userSpaceOnUse">
      <feOffset input="SourceAlpha"/>
      <feGaussianBlur stdDeviation="30" result="blur-4"/>
      <feFlood flood-opacity="0.161"/>
      <feComposite operator="in" in2="blur-4"/>
      <feComposite in="SourceGraphic"/>
    </filter>
    <linearGradient id="linear-gradient-4" x1="0.5" y1="0" x2="0.5" y2="1" xlink:href="#linear-gradient-2"/>
    <filter id="Path_440" x="737.498" y="212.406" width="1272.502" height="351.588" filterUnits="userSpaceOnUse">
      <feOffset input="SourceAlpha"/>
      <feGaussianBlur stdDeviation="30" result="blur-5"/>
      <feFlood flood-opacity="0.161"/>
      <feComposite operator="in" in2="blur-5"/>
      <feComposite in="SourceGraphic"/>
    </filter>
    <clipPath id="clip-cover-beranda">
      <rect width="1920" height="430"/>
    </clipPath>
  </defs>
  <g id="cover-beranda" clip-path="url(#clip-cover-beranda)">
    <rect width="1920" height="430" fill="url(#linear-gradient)"/>
    <g transform="matrix(1, 0, 0, 1, 0, 0)" filter="url(#Path_434)">
      <path id="Path_434-2" data-name="Path 434" d="M0,1177.4H236.993S146.908,331.452,557.3,408.146,1193.406,0,1193.406,0H0Z" transform="translate(1897.36 440) rotate(180)" fill="url(#linear-gradient-2)"/>
    </g>
    <g transform="matrix(1, 0, 0, 1, 0, 0)" filter="url(#Path_436)">
      <path id="Path_436-2" data-name="Path 436" d="M0,1177.4H89.778S-11.04,215.473,518.738,305.262,1195.111,0,1195.111,0H0Z" transform="translate(1920 440) rotate(180)" fill="#108ee8"/>
    </g>
    <g transform="matrix(1, 0, 0, 1, 0, 0)" filter="url(#Path_437)">
      <path id="Path_437-2" data-name="Path 437" d="M-7514.053,17669.582s-174.075,403.051-529.767,260.98-628.276,189.066-628.276,189.066h1158.043Z" transform="translate(9434.05 -17679.63)" fill="url(#linear-gradient-3)"/>
    </g>
    <g transform="matrix(1, 0, 0, 1, 0, 0)" filter="url(#Path_439)">
      <path id="Path_439-2" data-name="Path 439" d="M-7569.646,17669.582s-163.589,320.869-504.173,156.146-598.277,86.115-598.277,86.115h1102.45Z" transform="translate(9489.64 -17471.85)" fill="#26b4ff"/>
    </g>
    <g transform="matrix(1, 0, 0, 1, 0, 0)" filter="url(#Path_440)">
      <path id="Path_440-2" data-name="Path 440" d="M-7579.593,17669.582s-108.375,273.609-511.693,123.543-580.809,48.045-580.809,48.045h1092.5Z" transform="translate(9499.59 -17367.18)" fill="url(#linear-gradient-4)"/>
    </g>
  </g>
</svg>
