<svg width="1080" height="1080" viewBox="0 0 1080 1080" fill="none" xmlns="http://www.w3.org/2000/svg">
<rect x="2" y="2" width="1076" height="792" rx="80" fill="#1565C0"/>
<mask id="mask0_249_159" style="mask-type:alpha" maskUnits="userSpaceOnUse" x="2" y="2" width="1076" height="792">
<rect x="2" y="2" width="1076" height="792" rx="80" fill="#1565C0"/>
</mask>
<g mask="url(#mask0_249_159)">
<path d="M540.004 398L1078 794H2.00391L540.004 398Z" fill="black" fill-opacity="0.22"/>
</g>
<mask id="mask1_249_159" style="mask-type:alpha" maskUnits="userSpaceOnUse" x="2" y="2" width="1076" height="792">
<rect x="2" y="2" width="1076" height="792" rx="80" fill="#1565C0"/>
</mask>
<g mask="url(#mask1_249_159)">
<g filter="url(#filter0_f_249_159)">
<path d="M540.282 429.778L33.5469 2H1047.02L540.282 429.778Z" fill="black" fill-opacity="0.33"/>
</g>
</g>
<mask id="mask2_249_159" style="mask-type:alpha" maskUnits="userSpaceOnUse" x="2" y="2" width="1076" height="792">
<rect x="2" y="2" width="1076" height="792" rx="80" fill="#1565C0"/>
</mask>
<g mask="url(#mask2_249_159)">
<path d="M540 398L2 2H1078L540 398Z" fill="url(#paint0_linear_249_159)"/>
</g>
<circle cx="540" cy="773" r="305" fill="url(#paint1_linear_249_159)"/>
<g filter="url(#filter1_f_249_159)">
<path d="M545.053 980.554C517.958 980.554 493.097 976.224 470.471 967.565C448.124 958.906 428.85 946.615 412.649 930.693C396.448 914.771 383.878 895.776 374.939 873.709C366.28 851.642 361.95 827.06 361.95 799.965C361.95 761.976 369.911 728.875 385.833 700.662C401.755 672.449 423.962 650.522 452.454 634.879C481.225 618.957 514.745 610.996 553.014 610.996C586.255 610.996 615.305 617.56 640.166 630.689C665.306 643.538 684.72 661.835 698.407 685.578C712.094 709.042 718.938 736.696 718.938 768.54C718.938 792.563 715.446 813.373 708.463 830.971C701.759 848.569 692.262 862.256 679.971 872.033C667.68 881.53 653.295 886.279 636.814 886.279C608.601 886.279 590.584 874.687 582.763 851.502C575.221 863.234 566.282 872.033 555.947 877.899C545.612 883.486 534.438 886.279 522.427 886.279C499.801 886.279 482.203 879.156 469.633 864.91C457.063 850.664 450.778 831.25 450.778 806.669C450.778 786.278 454.549 768.121 462.091 752.199C469.912 736.277 480.527 723.847 493.935 714.908C507.343 705.69 522.706 701.081 540.025 701.081C563.489 701.081 579.97 710.299 589.467 728.735L590.305 725.383C592.819 711.416 601.199 704.433 615.445 704.433C623.266 704.433 628.993 706.668 632.624 711.137C636.255 715.327 637.373 721.472 635.976 729.573L622.987 802.06C621.032 812.395 620.054 820.496 620.054 826.362C620.054 842.284 626.618 850.245 639.747 850.245C652.038 850.245 661.954 842.703 669.496 827.619C677.317 812.535 681.228 792.842 681.228 768.54C681.228 729.992 669.775 700.383 646.87 679.712C624.244 658.762 592.819 648.287 552.595 648.287C522.427 648.287 496.17 654.572 473.823 667.142C451.756 679.433 434.577 696.891 422.286 719.517C410.275 742.143 404.269 768.959 404.269 799.965C404.269 829.854 409.995 855.552 421.448 877.061C432.901 898.29 449.102 914.631 470.052 926.084C491.281 937.537 516.282 943.263 545.053 943.263C562.092 943.263 577.735 941.308 591.981 937.397C606.506 933.486 619.775 927.9 631.786 920.637C637.931 917.006 643.239 915.888 647.708 917.285C652.457 918.961 655.809 922.034 657.764 926.503C659.999 930.972 660.418 935.721 659.021 940.749C657.624 946.056 653.993 950.386 648.127 953.738C635.557 961.839 620.473 968.263 602.875 973.012C585.277 978.04 566.003 980.554 545.053 980.554ZM532.483 847.731C546.729 847.731 558.321 841.306 567.26 828.457C576.199 815.328 580.668 798.149 580.668 776.92C580.668 752.339 570.053 740.048 548.824 740.048C534.299 740.048 522.427 746.193 513.209 758.484C503.991 770.495 499.382 786.417 499.382 806.25C499.382 819.937 502.175 830.273 507.762 837.256C513.628 844.239 521.868 847.731 532.483 847.731Z" fill="black" fill-opacity="0.25"/>
</g>
<path d="M545.053 954.554C517.958 954.554 493.097 950.224 470.471 941.565C448.124 932.906 428.85 920.615 412.649 904.693C396.448 888.771 383.878 869.776 374.939 847.709C366.28 825.642 361.95 801.06 361.95 773.965C361.95 735.976 369.911 702.875 385.833 674.662C401.755 646.449 423.962 624.522 452.454 608.879C481.225 592.957 514.745 584.996 553.014 584.996C586.255 584.996 615.305 591.56 640.166 604.689C665.306 617.538 684.72 635.835 698.407 659.578C712.094 683.042 718.938 710.696 718.938 742.54C718.938 766.563 715.446 787.373 708.463 804.971C701.759 822.569 692.262 836.256 679.971 846.033C667.68 855.53 653.295 860.279 636.814 860.279C608.601 860.279 590.584 848.687 582.763 825.502C575.221 837.234 566.282 846.033 555.947 851.899C545.612 857.486 534.438 860.279 522.427 860.279C499.801 860.279 482.203 853.156 469.633 838.91C457.063 824.664 450.778 805.25 450.778 780.669C450.778 760.278 454.549 742.121 462.091 726.199C469.912 710.277 480.527 697.847 493.935 688.908C507.343 679.69 522.706 675.081 540.025 675.081C563.489 675.081 579.97 684.299 589.467 702.735L590.305 699.383C592.819 685.416 601.199 678.433 615.445 678.433C623.266 678.433 628.993 680.668 632.624 685.137C636.255 689.327 637.373 695.472 635.976 703.573L622.987 776.06C621.032 786.395 620.054 794.496 620.054 800.362C620.054 816.284 626.618 824.245 639.747 824.245C652.038 824.245 661.954 816.703 669.496 801.619C677.317 786.535 681.228 766.842 681.228 742.54C681.228 703.992 669.775 674.383 646.87 653.712C624.244 632.762 592.819 622.287 552.595 622.287C522.427 622.287 496.17 628.572 473.823 641.142C451.756 653.433 434.577 670.891 422.286 693.517C410.275 716.143 404.269 742.959 404.269 773.965C404.269 803.854 409.995 829.552 421.448 851.061C432.901 872.29 449.102 888.631 470.052 900.084C491.281 911.537 516.282 917.263 545.053 917.263C562.092 917.263 577.735 915.308 591.981 911.397C606.506 907.486 619.775 901.9 631.786 894.637C637.931 891.006 643.239 889.888 647.708 891.285C652.457 892.961 655.809 896.034 657.764 900.503C659.999 904.972 660.418 909.721 659.021 914.749C657.624 920.056 653.993 924.386 648.127 927.738C635.557 935.839 620.473 942.263 602.875 947.012C585.277 952.04 566.003 954.554 545.053 954.554ZM532.483 821.731C546.729 821.731 558.321 815.306 567.26 802.457C576.199 789.328 580.668 772.149 580.668 750.92C580.668 726.339 570.053 714.048 548.824 714.048C534.299 714.048 522.427 720.193 513.209 732.484C503.991 744.495 499.382 760.417 499.382 780.25C499.382 793.937 502.175 804.273 507.762 811.256C513.628 818.239 521.868 821.731 532.483 821.731Z" fill="url(#paint2_linear_249_159)"/>
<defs>
<filter id="filter0_f_249_159" x="-66.4531" y="-98" width="1213.47" height="627.777" filterUnits="userSpaceOnUse" color-interpolation-filters="sRGB">
<feFlood flood-opacity="0" result="BackgroundImageFix"/>
<feBlend mode="normal" in="SourceGraphic" in2="BackgroundImageFix" result="shape"/>
<feGaussianBlur stdDeviation="50" result="effect1_foregroundBlur_249_159"/>
</filter>
<filter id="filter1_f_249_159" x="311.949" y="560.996" width="456.988" height="469.559" filterUnits="userSpaceOnUse" color-interpolation-filters="sRGB">
<feFlood flood-opacity="0" result="BackgroundImageFix"/>
<feBlend mode="normal" in="SourceGraphic" in2="BackgroundImageFix" result="shape"/>
<feGaussianBlur stdDeviation="25" result="effect1_foregroundBlur_249_159"/>
</filter>
<linearGradient id="paint0_linear_249_159" x1="558" y1="52.5" x2="366.17" y2="647.726" gradientUnits="userSpaceOnUse">
<stop stop-color="#2393F5"/>
<stop offset="1" stop-color="#1976D2"/>
</linearGradient>
<linearGradient id="paint1_linear_249_159" x1="677.5" y1="269.5" x2="473" y2="1121.5" gradientUnits="userSpaceOnUse">
<stop stop-color="#64B5F6"/>
<stop offset="1" stop-color="#42A5F5"/>
</linearGradient>
<linearGradient id="paint2_linear_249_159" x1="540.5" y1="564" x2="540.5" y2="931" gradientUnits="userSpaceOnUse">
<stop stop-color="white"/>
<stop offset="1" stop-color="#F5F5F5"/>
</linearGradient>
</defs>
</svg>
