<svg width="1080" height="1080" viewBox="0 0 1080 1080" fill="none" xmlns="http://www.w3.org/2000/svg">
<path d="M2 122C2 55.7258 55.7258 2 122 2H958C1024.27 2 1078 55.7258 1078 122V958C1078 1024.27 1024.27 1078 958 1078H122C55.7258 1078 2 1024.27 2 958V122Z" fill="#1565C0"/>
<circle cx="263.5" cy="233.5" r="120.5" fill="url(#paint0_linear_94_60)"/>
<mask id="mask0_94_60" style="mask-type:alpha" maskUnits="userSpaceOnUse" x="2" y="2" width="1076" height="1076">
<path d="M2 958C2 1024.27 55.7258 1078 122 1078H958C1024.27 1078 1078 1024.27 1078 958V122C1078 55.7258 1024.27 2 958 2H122C55.7258 2 2 55.7258 2 122V958Z" fill="url(#paint1_linear_94_60)"/>
</mask>
<g mask="url(#mask0_94_60)">
<path fill-rule="evenodd" clip-rule="evenodd" d="M1183.53 422.46C953.281 134.198 721.974 284.244 505.791 424.479C444.437 464.278 384.301 503.288 325.754 531.263L325.754 974C325.754 1059.6 395.15 1129 480.754 1129H844.531C1031.76 1129 1183.53 977.225 1183.53 790V422.46ZM170.754 1129C256.358 1129 325.754 1059.6 325.754 974V531.263C185.333 598.359 54.0473 601.985 -63 400.816V974C-63 1059.6 6.39587 1129 92 1129H170.754Z" fill="url(#paint2_linear_94_60)"/>
</g>
<mask id="mask1_94_60" style="mask-type:alpha" maskUnits="userSpaceOnUse" x="2" y="2" width="1076" height="1076">
<path d="M2 958C2 1024.27 55.7258 1078 122 1078H958C1024.27 1078 1078 1024.27 1078 958V122C1078 55.7258 1024.27 2 958 2H122C55.7258 2 2 55.7258 2 122V958Z" fill="url(#paint3_linear_94_60)"/>
</mask>
<g mask="url(#mask1_94_60)">
<path fill-rule="evenodd" clip-rule="evenodd" d="M1259.05 665.355C1214.86 625.161 1153.31 587.99 1069 557C886.196 489.806 692.132 613.944 507.275 732.192C307.043 860.276 117.614 981.449 -35 845.071V950C-35 1035.6 34.3959 1105 120 1105H379.785H997.293C1161.71 1105 1295 971.712 1295 807.293C1295 755.899 1281.98 707.546 1259.05 665.355Z" fill="url(#paint4_linear_94_60)"/>
</g>
<defs>
<linearGradient id="paint0_linear_94_60" x1="213" y1="113" x2="354.5" y2="376" gradientUnits="userSpaceOnUse">
<stop stop-color="#FFD53E"/>
<stop offset="1" stop-color="#FFC300"/>
</linearGradient>
<linearGradient id="paint1_linear_94_60" x1="829.5" y1="1010.5" x2="625.189" y2="377.073" gradientUnits="userSpaceOnUse">
<stop stop-color="#42A5F5"/>
<stop offset="1" stop-color="#1E88E5"/>
</linearGradient>
<linearGradient id="paint2_linear_94_60" x1="594" y1="594.5" x2="741.482" y2="1176.34" gradientUnits="userSpaceOnUse">
<stop stop-color="#2196F3"/>
<stop offset="1" stop-color="#64B5F6"/>
</linearGradient>
<linearGradient id="paint3_linear_94_60" x1="269" y1="1192.68" x2="1059.78" y2="168.436" gradientUnits="userSpaceOnUse">
<stop stop-color="#42A5F5"/>
<stop offset="1" stop-color="#1E88E5"/>
</linearGradient>
<linearGradient id="paint4_linear_94_60" x1="817.5" y1="913" x2="621.438" y2="510.212" gradientUnits="userSpaceOnUse">
<stop stop-color="#1976D2"/>
<stop offset="1" stop-color="#1E88E5"/>
</linearGradient>
</defs>
</svg>
