<svg id="folder" xmlns="http://www.w3.org/2000/svg" xmlns:xlink="http://www.w3.org/1999/xlink" width="1080" height="1080" viewBox="0 0 1080 1080">
  <defs>
    <linearGradient id="linear-gradient" x1="0.357" y1="0.5" x2="1.173" y2="3.603" gradientUnits="objectBoundingBox">
      <stop offset="0" stop-color="#dd9c00"/>
      <stop offset="1" stop-color="#ffd868"/>
    </linearGradient>
    <linearGradient id="linear-gradient-2" x1="0.517" y1="0.5" x2="0.517" gradientUnits="objectBoundingBox">
      <stop offset="0" stop-color="#9e9e9e"/>
      <stop offset="1" stop-color="#fff"/>
    </linearGradient>
    <linearGradient id="linear-gradient-3" x1="0.517" y1="0.5" x2="0.517" gradientUnits="objectBoundingBox">
      <stop offset="0" stop-color="#f8f8f8"/>
      <stop offset="1" stop-color="#fff"/>
    </linearGradient>
    <linearGradient id="linear-gradient-4" x1="0.325" y1="0.968" x2="0.636" y2="0.209" gradientUnits="objectBoundingBox">
      <stop offset="0" stop-color="#ffce48"/>
      <stop offset="1" stop-color="#ffda74"/>
    </linearGradient>
  </defs>
  <g id="Folder-2" data-name="Folder">
    <path id="Union_9" data-name="Union 9" d="M-2506-2435a80,80,0,0,1-80-80v-844h1000a80,80,0,0,1,80,80v764a80,80,0,0,1-80,80Zm-80-924v-76a80,80,0,0,1,80-80h521a80,80,0,0,1,80,80v76Z" transform="translate(2586 3515)" fill="url(#linear-gradient)"/>
    <path id="Union_10" data-name="Union 10" d="M-2509-3320a77,77,0,0,1-77-77v-41a77,77,0,0,1,77-77h755a77,77,0,0,1,77,77v41a77,77,0,0,1-77,77Z" transform="translate(2672 3798)" fill="url(#linear-gradient-2)"/>
    <path id="Union_11" data-name="Union 11" d="M-2509-3320a77,77,0,0,1-77-77v-41a77,77,0,0,1,77-77h800a77,77,0,0,1,77,77v41a77,77,0,0,1-77,77Z" transform="translate(2649 3860)" fill="url(#linear-gradient-3)"/>
    <path id="Union_12" data-name="Union 12" d="M-2506-2878a80,80,0,0,1-80-80v-477a80,80,0,0,1,80-80h920a80,80,0,0,1,80,80v477a80,80,0,0,1-80,80Z" transform="translate(2586 3958)" fill="url(#linear-gradient-4)"/>
  </g>
  <rect id="Rectangle_177" data-name="Rectangle 177" width="1080" height="1080" fill="none"/>
</svg>
