<svg id="format-gambar" xmlns="http://www.w3.org/2000/svg" width="1080" height="1080" viewBox="0 0 1080 1080">
  <g id="Group_143" data-name="Group 143">
    <path id="Union_223" data-name="Union 223" d="M1132,6958c-148.012,0-268-119.989-268-268V6150c0-148.012,119.987-268,268-268h540c148.012,0,268,119.988,268,268v540c0,148.012-119.989,268-268,268Z" transform="translate(-862.001 -5880.002)" fill="#005ea3"/>
    <g id="Group_141" data-name="Group 141" transform="translate(0 9.5)">
      <circle id="Ellipse_1" data-name="Ellipse 1" cx="86.608" cy="86.608" r="86.608" transform="translate(285.193 225.654)" fill="#fff"/>
      <path id="Union_228" data-name="Union 228" d="M5996.93-8164.58c-76.207,0-109.256-96.457-49.063-143.19l198.526-154.139a80,80,0,0,1,98.122,0l198.526,154.139c60.193,46.733,27.145,143.19-49.062,143.19Zm-98.367,0h0ZM5898.568-8164.58Zm-123.571,0a82.659,82.659,0,0,1-26.961-4.386,76.289,76.289,0,0,1-22.072-11.945,78.834,78.834,0,0,1-16.608-17.692,82.706,82.706,0,0,1-10.561-21.625,82.721,82.721,0,0,1-3.937-23.739,78.8,78.8,0,0,1,3.271-24.046,76.263,76.263,0,0,1,11.055-22.532,82.668,82.668,0,0,1,19.419-19.208l81.613-58.1a79.873,79.873,0,0,1,22.309-11.121,79.962,79.962,0,0,1,24.086-3.705,79.959,79.959,0,0,1,24.084,3.705A79.873,79.873,0,0,1,5903-8367.85l31.831,22.658-45.175,39.915c-21.138,18.674-31.816,44.1-30.072,71.6,1.768,27.874,16.34,53.7,38.979,69.093l0,0Z" transform="translate(-5544.49 8999.926)" fill="#fff"/>
    </g>
  </g>
  <rect id="Rectangle_177" data-name="Rectangle 177" width="1080" height="1080" fill="none"/>
</svg>
