<svg id="format-pdf" xmlns="http://www.w3.org/2000/svg" width="1080" height="1080" viewBox="0 0 1080 1080">
  <g id="Group_142" data-name="Group 142">
    <path id="Union_223" data-name="Union 223" d="M1132,6958c-148.012,0-268-119.989-268-268V6150c0-148.012,119.987-268,268-268h540c148.012,0,268,119.988,268,268v540c0,148.012-119.989,268-268,268Z" transform="translate(-862.001 -5880.002)" fill="#f00b0e"/>
    <path id="Path_11" data-name="Path 11" d="M856.974,622.909c-4.921,3.047-18.983,4.921-27.888,4.921-29.06,0-64.681-13.358-115.067-34.918,19.451-1.406,37.028-2.109,52.964-2.109,29.06,0,37.5,0,66.087,7.265,28.357,7.031,28.591,21.795,23.9,24.841Zm-504.093,4.453c11.249-19.686,22.732-40.543,34.45-62.807,28.591-54.135,46.87-96.788,60.229-131.706,26.951,48.98,60.463,90.46,99.6,123.738,4.921,4.218,10.077,8.2,15.7,12.421C482.947,584.944,413.813,604.161,352.881,627.362Zm93.272-513c15.936,0,25.076,39.981,25.779,77.711.7,37.5-7.968,63.744-18.983,83.43-9.14-29.06-13.358-74.524-13.358-104.287,0,0-.7-56.854,6.562-56.854ZM133.527,834.3c9.14-24.607,44.761-73.352,97.491-116.708C234.3,715.01,242.5,707.276,250,700.245,194.927,788.362,157.9,823.281,133.527,834.3Zm738.68-263.178c-15.936-15.7-51.558-23.9-105.459-24.607-36.559-.469-80.383,2.812-126.785,9.14-20.623-11.952-41.949-24.841-58.822-40.543-45-42.183-82.492-100.537-105.928-164.75,1.406-6.093,2.812-11.249,3.984-16.639,0,0,25.31-144.127,18.514-192.872-.937-6.8-1.406-8.671-3.281-13.827l-2.109-5.859c-6.8-15.842-20.389-32.716-41.715-31.8l-12.421-.4h-.234c-23.67,0-43.121,12.116-48.042,30.091C374.441,176,390.377,260.834,419.2,370.746l-7.5,18.045c-20.623,50.152-46.4,100.772-69.134,145.3l-3.047,5.859c-23.9,46.87-45.7,86.71-65.384,120.457l-20.389,10.78c-1.406.937-36.325,19.217-44.527,24.138C139.854,736.8,93.734,783.909,86.094,821.406c-2.437,11.718-.609,26.951,11.741,34.216l19.686,9.843a60.2,60.2,0,0,0,26.787,6.328c49.448,0,106.865-61.4,185.842-199.434,91.4-29.763,195.45-54.6,286.613-68.2,69.368,39.137,154.673,66.322,208.574,66.322q14.413,0,24.607-2.812c10.312-2.578,18.983-8.437,24.373-16.639,10.312-15.7,12.655-37.262,9.608-59.526-.7-6.562-6.093-14.764-11.718-20.389Z" transform="translate(54.837 59.624)" fill="#fff"/>
  </g>
  <rect id="Rectangle_177" data-name="Rectangle 177" width="1080" height="1080" fill="none"/>
</svg>
