<svg xmlns="http://www.w3.org/2000/svg" xmlns:xlink="http://www.w3.org/1999/xlink" width="1075.988" height="1075.988" viewBox="0 0 1075.988 1075.988">
  <defs>
    <linearGradient id="linear-gradient" x1="0.805" y1="0.066" x2="0.335" y2="1" gradientUnits="objectBoundingBox">
      <stop offset="0" stop-color="#fccb3c"/>
      <stop offset="1" stop-color="#f1b608"/>
    </linearGradient>
  </defs>
  <g id="Group_77" data-name="Group 77" transform="translate(0.875 1.009)">
    <path id="Union_116" data-name="Union 116" d="M-3.058,1068.059a9.993,9.993,0,0,1-2.9-7.821L5.429,908.721a10.462,10.462,0,0,1,.386-2.141,38.067,38.067,0,0,1,2.24-15.627,37.677,37.677,0,0,1,8.806-13.762L439.1,454.955l-19.915-19.916a37.969,37.969,0,0,1,0-53.74l41.63-41.63q.424-.423.858-.831a306.143,306.143,0,0,1,19.939-153.376,303.856,303.856,0,0,1,27.95-53.116A308.423,308.423,0,0,1,596.595,45.31,303.746,303.746,0,0,1,706.3.59,306.263,306.263,0,0,1,879.54,17.361a303.748,303.748,0,0,1,53.114,27.95,308.35,308.35,0,0,1,87.036,87.036,303.739,303.739,0,0,1,44.72,109.7,306.273,306.273,0,0,1-16.771,173.238,303.892,303.892,0,0,1-27.952,53.115,308.312,308.312,0,0,1-87.035,87.035,303.669,303.669,0,0,1-109.7,44.721,306.97,306.97,0,0,1-96.79,3.171q-.408.433-.83.856L683.7,645.818a37.97,37.97,0,0,1-53.74,0L610.044,625.9l-70.238,70.238-108.8-12.685a10,10,0,0,0-11.091,11.091L432.34,801.095,325.792,788.672A10,10,0,0,0,314.7,799.763L327.068,905.84,220.991,893.472A10,10,0,0,0,209.9,904.563l12.685,108.8-34.777,34.778a37.852,37.852,0,0,1-21.48,10.748,38.209,38.209,0,0,1-7.907.3,10.472,10.472,0,0,1-2.142.386L4.762,1070.959c-.251.019-.5.028-.752.028A9.991,9.991,0,0,1-3.058,1068.059ZM821.307,150.121a66.238,66.238,0,1,0,46.783-19.348A66.238,66.238,0,0,0,821.307,150.121Z" transform="translate(5.113 3.991)" fill="url(#linear-gradient)"/>
    <path id="Union_117" data-name="Union 117" d="M25.272,415.8a16.457,16.457,0,0,1,0-23.272L414.446,3.352a16.455,16.455,0,0,1,23.271,23.271L48.543,415.8a16.456,16.456,0,0,1-23.271,0Z" transform="translate(46.81 511.76)" fill="rgba(0,0,0,0.24)"/>
  </g>
</svg>
