<svg width="1080" height="1080" viewBox="0 0 1080 1080" fill="none" xmlns="http://www.w3.org/2000/svg">
<path fill-rule="evenodd" clip-rule="evenodd" d="M779.015 607.638C854.859 606.673 930.416 577.301 988.358 519.501C1106.4 401.746 1106.64 210.591 988.886 92.5449C871.131 -25.5014 679.976 -25.7375 561.93 92.0175C503.47 150.333 473.903 226.65 473.251 303.174L430.778 345.542C419.048 357.244 419.025 376.239 430.726 387.969L468.877 426.214L17.1965 876.779L17.2012 876.784L1.33594 1078.66L203.255 1063.3L203.256 1063.3L203.258 1063.3L203.261 1063.3L203.26 1063.3L654.936 612.734L693.087 650.979C704.789 662.71 723.784 662.733 735.514 651.032L779.015 607.638ZM921.728 251.094C896.66 276.1 856.068 276.05 831.062 250.982C806.057 225.915 806.107 185.323 831.174 160.317C856.242 135.312 896.834 135.362 921.84 160.429C946.845 185.497 946.795 226.089 921.728 251.094ZM467.224 677.275L478.834 788.392L578.312 689.16L467.224 677.275ZM367.747 776.51L379.358 887.626L268.271 875.741L279.882 986.859L379.359 887.627L478.835 788.395L367.747 776.51Z" fill="url(#paint0_linear_246_33)"/>
<rect x="486.109" y="467.688" width="45.6882" height="568.206" rx="22.8441" transform="rotate(45.0708 486.109 467.688)" fill="#1976D2"/>
<defs>
<linearGradient id="paint0_linear_246_33" x1="314.5" y1="106.5" x2="733.002" y2="1426" gradientUnits="userSpaceOnUse">
<stop stop-color="#42A5F5"/>
<stop offset="1" stop-color="#1E88E5"/>
</linearGradient>
</defs>
</svg>
