<svg width="1080" height="1080" viewBox="0 0 1080 1080" fill="none" xmlns="http://www.w3.org/2000/svg">
<rect x="144" y="2" width="250.214" height="236.798" rx="50" fill="url(#paint0_linear_251_216)"/>
<rect x="414.891" y="2" width="250.214" height="236.798" rx="50" fill="url(#paint1_linear_251_216)"/>
<rect x="685.789" y="2" width="250.214" height="236.798" rx="50" fill="url(#paint2_linear_251_216)"/>
<rect x="144" y="281.734" width="250.214" height="236.798" rx="50" fill="url(#paint3_linear_251_216)"/>
<rect x="414.891" y="281.734" width="250.214" height="236.798" rx="50" fill="url(#paint4_linear_251_216)"/>
<rect x="685.789" y="281.734" width="250.214" height="236.798" rx="50" fill="url(#paint5_linear_251_216)"/>
<rect x="144" y="561.469" width="250.214" height="236.798" rx="50" fill="url(#paint6_linear_251_216)"/>
<rect x="414.891" y="561.469" width="250.214" height="236.798" rx="50" fill="url(#paint7_linear_251_216)"/>
<rect x="685.789" y="561.469" width="250.214" height="236.798" rx="50" fill="url(#paint8_linear_251_216)"/>
<rect x="414.891" y="841.201" width="250.214" height="236.798" rx="50" fill="#1565C0"/>
<defs>
<linearGradient id="paint0_linear_251_216" x1="269.107" y1="2" x2="269.107" y2="238.798" gradientUnits="userSpaceOnUse">
<stop stop-color="#2196F3"/>
<stop offset="1" stop-color="#1E88E5"/>
</linearGradient>
<linearGradient id="paint1_linear_251_216" x1="539.998" y1="2" x2="539.998" y2="238.798" gradientUnits="userSpaceOnUse">
<stop stop-color="#64B5F6"/>
<stop offset="1" stop-color="#42A5F5"/>
</linearGradient>
<linearGradient id="paint2_linear_251_216" x1="810.896" y1="2" x2="810.896" y2="238.798" gradientUnits="userSpaceOnUse">
<stop stop-color="#64B5F6"/>
<stop offset="1" stop-color="#42A5F5"/>
</linearGradient>
<linearGradient id="paint3_linear_251_216" x1="269.107" y1="281.734" x2="269.107" y2="518.532" gradientUnits="userSpaceOnUse">
<stop stop-color="#64B5F6"/>
<stop offset="1" stop-color="#42A5F5"/>
</linearGradient>
<linearGradient id="paint4_linear_251_216" x1="539.998" y1="281.734" x2="539.998" y2="518.532" gradientUnits="userSpaceOnUse">
<stop stop-color="#64B5F6"/>
<stop offset="1" stop-color="#42A5F5"/>
</linearGradient>
<linearGradient id="paint5_linear_251_216" x1="810.896" y1="281.734" x2="810.896" y2="518.532" gradientUnits="userSpaceOnUse">
<stop stop-color="#2196F3"/>
<stop offset="1" stop-color="#1E88E5"/>
</linearGradient>
<linearGradient id="paint6_linear_251_216" x1="269.107" y1="561.469" x2="269.107" y2="798.267" gradientUnits="userSpaceOnUse">
<stop stop-color="#2196F3"/>
<stop offset="1" stop-color="#1E88E5"/>
</linearGradient>
<linearGradient id="paint7_linear_251_216" x1="539.998" y1="561.469" x2="539.998" y2="798.267" gradientUnits="userSpaceOnUse">
<stop stop-color="#64B5F6"/>
<stop offset="1" stop-color="#42A5F5"/>
</linearGradient>
<linearGradient id="paint8_linear_251_216" x1="810.896" y1="561.469" x2="810.896" y2="798.267" gradientUnits="userSpaceOnUse">
<stop stop-color="#64B5F6"/>
<stop offset="1" stop-color="#42A5F5"/>
</linearGradient>
</defs>
</svg>
