<svg id="link-block" xmlns="http://www.w3.org/2000/svg" xmlns:xlink="http://www.w3.org/1999/xlink" width="1080" height="1080" viewBox="0 0 1080 1080">
  <defs>
    <linearGradient id="linear-gradient" x1="0.434" y1="0.179" x2="0.645" y2="0.964" gradientUnits="objectBoundingBox">
      <stop offset="0" stop-color="#26b4ff"/>
      <stop offset="1" stop-color="#2c89ff"/>
    </linearGradient>
    <linearGradient id="linear-gradient-2" x1="0.5" y1="-0.156" x2="0.5" y2="0.916" gradientUnits="objectBoundingBox">
      <stop offset="0" stop-color="#2c89ff"/>
      <stop offset="1" stop-color="#005ed6"/>
    </linearGradient>
    <linearGradient id="linear-gradient-3" x1="0.66" y1="0.059" x2="0.232" y2="1" gradientUnits="objectBoundingBox">
      <stop offset="0" stop-color="#fb2402"/>
      <stop offset="1" stop-color="#ae0202"/>
    </linearGradient>
    <linearGradient id="linear-gradient-4" x1="0.696" x2="0.305" y2="1" gradientUnits="objectBoundingBox">
      <stop offset="0" stop-color="#f3f2ef"/>
      <stop offset="1" stop-color="#f3f2ef"/>
    </linearGradient>
  </defs>
  <g id="Group_334" data-name="Group 334">
    <g id="Group_305" data-name="Group 305">
      <path id="Union_721" data-name="Union 721" d="M6023.375-17765.666a154.257,154.257,0,0,1-28.538-8.461,153.384,153.384,0,0,1-26.785-14.092,155.5,155.5,0,0,1-24.159-19.736,155.337,155.337,0,0,1-19.732-24.158,153.527,153.527,0,0,1-14.1-26.785,154.083,154.083,0,0,1-8.456-28.539,155.081,155.081,0,0,1-2.82-29.41,155.163,155.163,0,0,1,2.82-29.418,154.2,154.2,0,0,1,8.456-28.537,153.527,153.527,0,0,1,14.1-26.785,155.246,155.246,0,0,1,19.732-24.158l228.4-228.391a155.313,155.313,0,0,1,24.159-19.738,153.42,153.42,0,0,1,26.785-14.1,154.257,154.257,0,0,1,28.538-8.457,155.216,155.216,0,0,1,29.412-2.82,155.706,155.706,0,0,1,29.417,2.82,154.246,154.246,0,0,1,28.538,8.457,153.4,153.4,0,0,1,26.785,14.1,155.29,155.29,0,0,1,24.159,19.738,154.791,154.791,0,0,1,19.732,24.158,153.11,153.11,0,0,1,14.1,26.785,154.019,154.019,0,0,1,8.456,28.537,155.055,155.055,0,0,1,2.82,29.412,155.116,155.116,0,0,1-2.82,29.412,154.2,154.2,0,0,1-8.456,28.537,153.318,153.318,0,0,1-14.1,26.785,155.064,155.064,0,0,1-19.732,24.158l-228.4,228.4a155.524,155.524,0,0,1-24.159,19.736,153.4,153.4,0,0,1-26.785,14.092,154.268,154.268,0,0,1-28.538,8.461,155.533,155.533,0,0,1-29.412,2.816A155.576,155.576,0,0,1,6023.375-17765.666Zm194.171-405.037-189.5,189.51a63.067,63.067,0,0,0,0,89.094,63.076,63.076,0,0,0,89.095,0l189.5-189.508a63.07,63.07,0,0,0,0-89.1,62.807,62.807,0,0,0-44.547-18.422A62.806,62.806,0,0,0,6217.545-18170.7Zm329.8-118.93a153.963,153.963,0,0,1-28.538-8.461,152.96,152.96,0,0,1-26.785-14.092,155.267,155.267,0,0,1-24.159-19.738,155.13,155.13,0,0,1-19.732-24.158,153.279,153.279,0,0,1-14.1-26.785,153.647,153.647,0,0,1-8.456-28.537,155.086,155.086,0,0,1-2.82-29.412,155.188,155.188,0,0,1,2.82-29.416,153.785,153.785,0,0,1,8.456-28.533,152.812,152.812,0,0,1,14.1-26.785,155.039,155.039,0,0,1,19.732-24.158l228.4-228.4a155.278,155.278,0,0,1,24.159-19.736,153.227,153.227,0,0,1,26.785-14.092,154.257,154.257,0,0,1,28.538-8.461,155.053,155.053,0,0,1,29.412-2.82,155.462,155.462,0,0,1,29.417,2.82,154.22,154.22,0,0,1,28.533,8.461,153.054,153.054,0,0,1,26.785,14.092,155.05,155.05,0,0,1,24.159,19.736,155.1,155.1,0,0,1,19.737,24.158,153.351,153.351,0,0,1,14.1,26.785,154.119,154.119,0,0,1,8.456,28.539,155.041,155.041,0,0,1,2.82,29.41,155.046,155.046,0,0,1-2.82,29.412,154.055,154.055,0,0,1-8.456,28.537,153.282,153.282,0,0,1-14.1,26.785,155.019,155.019,0,0,1-19.737,24.16l-228.392,228.395a155.515,155.515,0,0,1-24.158,19.738,153.154,153.154,0,0,1-26.785,14.092,153.963,153.963,0,0,1-28.538,8.461,155.612,155.612,0,0,1-29.416,2.814A155.527,155.527,0,0,1,6547.342-18289.633Zm194.17-405.037L6552-18505.166a63.083,63.083,0,0,0,0,89.1,63.069,63.069,0,0,0,89.095,0l189.508-189.5a63.074,63.074,0,0,0,0-89.1,62.8,62.8,0,0,0-44.549-18.424A62.792,62.792,0,0,0,6741.513-18694.67Z" transform="translate(-5888.97 18833.031)" fill="url(#linear-gradient)"/>
      <path id="Union_723" data-name="Union 723" d="M5869.647-18523.549l-7.072-7.068a39,39,0,0,1,0-55.156l273.651-273.646a39,39,0,0,1,55.157,0l7.067,7.068a39,39,0,0,1,0,55.156L5924.8-18523.549a38.874,38.874,0,0,1-27.579,11.426A38.873,38.873,0,0,1,5869.647-18523.549Z" transform="translate(-5490.869 19231.836)" fill="url(#linear-gradient-2)"/>
    </g>
    <g id="Group_312" data-name="Group 312" transform="translate(590.266 590.266)">
      <path id="Polygon_17" data-name="Polygon 17" d="M244,0A244,244,0,0,1,416.534,71.466h0A244,244,0,0,1,488,244h0a244,244,0,0,1-71.466,172.534h0A244,244,0,0,1,244,488h0A244,244,0,0,1,71.466,416.534h0A244,244,0,0,1,0,244H0A244,244,0,0,1,71.466,71.466h0A244,244,0,0,1,244,0Z" transform="translate(-0.266 -0.266)" fill="url(#linear-gradient-3)"/>
      <path id="Union_106" data-name="Union 106" d="M164.661,405.635a204.843,204.843,0,1,1,40.142,3.972A205.306,205.306,0,0,1,164.661,405.635ZM87.382,87.382A165.739,165.739,0,1,0,321.773,321.773,165.739,165.739,0,1,0,87.382,87.382Zm27.552,151.066a33.645,33.645,0,1,1,0-67.289H294.222a33.645,33.645,0,0,1,0,67.289Z" transform="translate(39.29 39.29)" fill="url(#linear-gradient-4)"/>
    </g>
  </g>
  <rect id="Rectangle_177" data-name="Rectangle 177" width="1080" height="1080" fill="none"/>
</svg>
