<svg width="1080" height="1080" viewBox="0 0 1080 1080" fill="none" xmlns="http://www.w3.org/2000/svg">
<circle cx="540" cy="540" r="538" fill="url(#paint0_linear_134_365)"/>
<g filter="url(#filter0_f_134_365)">
<path fill-rule="evenodd" clip-rule="evenodd" d="M823.549 334.641C823.429 334.434 823.305 334.228 823.178 334.023C797.732 293.02 764.132 257.565 724.394 229.948C677.415 197.299 623.277 176.591 566.678 169.621C510.078 162.652 452.726 169.631 399.599 189.953C354.727 207.118 314.013 233.363 279.93 266.961C269.508 277.234 270.7 294.046 281.698 303.699C292.758 313.406 309.524 312.176 320.15 301.995C348.458 274.876 381.946 253.622 418.724 239.553C463.826 222.301 512.514 216.376 560.564 222.293C608.614 228.209 654.573 245.789 694.456 273.506C727.111 296.201 754.883 325.13 776.221 358.531C777.107 359.917 778.094 361.211 779.167 362.407L778.63 362.743L855.798 486.093C863.56 498.501 879.911 502.267 892.318 494.505C904.726 486.743 908.492 470.392 900.729 457.984L823.562 334.633L823.549 334.641ZM729.881 388.52C695.56 333.658 641.074 294.538 578.409 279.765C515.745 264.992 450.035 275.777 395.736 309.746C341.436 343.716 302.995 398.088 288.868 460.901C274.741 523.714 286.086 589.823 320.407 644.685L365.362 616.561C338.577 573.746 329.723 522.153 340.748 473.131C351.773 424.11 381.773 381.677 424.15 355.166C466.527 328.655 517.809 320.239 566.714 331.768C615.619 343.297 658.141 373.828 684.926 416.643L684.95 416.629L689.989 424.683C697.751 437.091 714.102 440.857 726.509 433.095C738.917 425.332 742.683 408.982 734.921 396.574L729.882 388.52L684.95 416.629L729.881 388.52ZM216.775 351.799C223.671 338.792 240.258 335.171 252.655 343.11C264.955 350.988 268.465 367.275 261.787 380.265C237.57 427.369 226.306 480.349 229.405 533.735C232.509 587.187 249.876 638.74 279.466 683.084C279.532 683.184 279.597 683.283 279.662 683.383C280.015 683.864 280.354 684.362 280.675 684.876L413.001 896.395C420.763 908.803 416.997 925.154 404.589 932.916C392.182 940.678 375.831 936.912 368.069 924.505L235.743 712.986C235.336 712.334 234.963 711.671 234.625 710.997C200.34 659.08 180.216 598.879 176.593 536.482C172.856 472.116 186.844 408.252 216.775 351.799ZM641.292 448.661C622.162 418.083 591.803 396.272 556.892 388.027C521.981 379.783 485.379 385.779 455.138 404.698C424.896 423.617 403.493 453.908 395.636 488.908C387.779 523.908 394.112 560.75 413.242 591.329L610.271 906.276C618.033 918.683 634.384 922.449 646.791 914.687C659.199 906.925 662.965 890.574 655.203 878.167L458.173 563.219L458.109 563.26C446.506 544.714 442.665 522.368 447.43 501.14C452.196 479.912 465.177 461.54 483.519 450.066C501.861 438.591 524.061 434.954 545.235 439.954C566.409 444.955 584.822 458.184 596.425 476.73L596.36 476.77L793.39 791.717C801.152 804.125 817.503 807.891 829.91 800.128C842.318 792.366 846.084 776.016 838.322 763.608L641.292 448.661L641.292 448.661ZM365.339 616.577L320.407 644.686L399.696 771.428C407.459 783.835 423.809 787.601 436.217 779.839C448.625 772.077 452.39 755.726 444.628 743.319L365.339 616.577ZM453.794 857.9C446.032 845.492 449.798 829.142 462.205 821.38C474.613 813.617 490.964 817.383 498.726 829.791L536.912 890.83C544.674 903.238 540.908 919.589 528.5 927.351C516.093 935.113 499.742 931.347 491.98 918.94L453.794 857.9ZM744.085 511.156C736.323 498.748 740.089 482.397 752.496 474.635C764.904 466.873 781.255 470.639 789.017 483.047L901.454 662.774C909.216 675.182 905.45 691.533 893.042 699.295C880.635 707.057 864.284 703.291 856.522 690.883L744.085 511.156ZM909.895 572.566C902.133 560.158 905.899 543.808 918.307 536.046C930.714 528.283 947.065 532.049 954.827 544.457L960.661 553.782C968.423 566.19 964.658 582.541 952.25 590.303C939.842 598.065 923.492 594.299 915.729 581.892L909.895 572.566ZM587.802 666.724C580.04 654.317 583.805 637.966 596.213 630.204C608.621 622.442 624.971 626.207 632.734 638.615L773.81 864.122C781.572 876.53 777.806 892.881 765.398 900.643C752.991 908.405 736.64 904.639 728.878 892.231L587.802 666.724ZM518.781 506.43C506.374 514.192 502.608 530.543 510.37 542.951L533.706 580.253C541.468 592.66 557.819 596.426 570.227 588.664C582.634 580.902 586.4 564.551 578.638 552.144L555.302 514.842C547.54 502.434 531.189 498.668 518.781 506.43Z" fill="black" fill-opacity="0.33"/>
</g>
<path fill-rule="evenodd" clip-rule="evenodd" d="M815.549 311.641C815.429 311.434 815.305 311.228 815.178 311.023C789.732 270.02 756.132 234.565 716.394 206.948C669.415 174.299 615.277 153.591 558.678 146.621C502.078 139.652 444.726 146.631 391.599 166.953C346.727 184.118 306.013 210.363 271.93 243.961C261.508 254.234 262.7 271.046 273.698 280.699C284.758 290.406 301.524 289.176 312.15 278.995C340.458 251.876 373.946 230.622 410.724 216.553C455.826 199.301 504.514 193.376 552.564 199.293C600.614 205.209 646.573 222.789 686.456 250.506C719.111 273.201 746.883 302.13 768.221 335.531C769.107 336.917 770.094 338.211 771.167 339.407L770.63 339.743L847.798 463.093C855.56 475.501 871.911 479.267 884.318 471.505C896.726 463.743 900.492 447.392 892.729 434.984L815.562 311.633L815.549 311.641ZM721.881 365.52C687.56 310.658 633.074 271.538 570.409 256.765C507.745 241.992 442.035 252.777 387.736 286.746C333.436 320.716 294.995 375.088 280.868 437.901C266.741 500.714 278.086 566.823 312.407 621.685L357.362 593.561C330.577 550.746 321.723 499.153 332.748 450.131C343.773 401.11 373.773 358.677 416.15 332.166C458.527 305.655 509.809 297.239 558.714 308.768C607.619 320.297 650.141 350.828 676.926 393.643L676.95 393.629L681.989 401.683C689.751 414.091 706.102 417.857 718.509 410.095C730.917 402.332 734.683 385.982 726.921 373.574L721.882 365.52L676.95 393.629L721.881 365.52ZM208.775 328.799C215.671 315.792 232.258 312.171 244.655 320.11C256.955 327.988 260.465 344.275 253.787 357.265C229.57 404.369 218.306 457.349 221.405 510.735C224.509 564.187 241.876 615.74 271.466 660.084C271.532 660.184 271.597 660.283 271.662 660.383C272.015 660.864 272.354 661.362 272.675 661.876L405.001 873.395C412.763 885.803 408.997 902.154 396.589 909.916C384.182 917.678 367.831 913.912 360.069 901.505L227.743 689.986C227.336 689.334 226.963 688.671 226.625 687.997C192.34 636.08 172.216 575.879 168.593 513.482C164.856 449.116 178.844 385.252 208.775 328.799ZM633.292 425.661C614.162 395.083 583.803 373.272 548.892 365.027C513.981 356.783 477.379 362.779 447.138 381.698C416.896 400.617 395.493 430.908 387.636 465.908C379.779 500.908 386.112 537.75 405.242 568.329L602.271 883.276C610.033 895.683 626.384 899.449 638.791 891.687C651.199 883.925 654.965 867.574 647.203 855.167L450.173 540.219L450.109 540.26C438.506 521.714 434.665 499.368 439.43 478.14C444.196 456.912 457.177 438.54 475.519 427.066C493.861 415.591 516.061 411.954 537.235 416.954C558.409 421.955 576.822 435.184 588.425 453.73L588.36 453.77L785.39 768.717C793.152 781.125 809.503 784.891 821.91 777.128C834.318 769.366 838.084 753.016 830.322 740.608L633.292 425.661L633.292 425.661ZM357.339 593.577L312.407 621.686L391.696 748.428C399.459 760.835 415.809 764.601 428.217 756.839C440.625 749.077 444.39 732.726 436.628 720.319L357.339 593.577ZM445.794 834.9C438.032 822.492 441.798 806.142 454.205 798.38C466.613 790.617 482.964 794.383 490.726 806.791L528.912 867.83C536.674 880.238 532.908 896.589 520.5 904.351C508.093 912.113 491.742 908.347 483.98 895.94L445.794 834.9ZM736.085 488.156C728.323 475.748 732.089 459.397 744.496 451.635C756.904 443.873 773.255 447.639 781.017 460.047L893.454 639.774C901.216 652.182 897.45 668.533 885.042 676.295C872.635 684.057 856.284 680.291 848.522 667.883L736.085 488.156ZM901.895 549.566C894.133 537.158 897.899 520.808 910.307 513.046C922.714 505.283 939.065 509.049 946.827 521.457L952.661 530.782C960.423 543.19 956.658 559.541 944.25 567.303C931.842 575.065 915.492 571.299 907.729 558.892L901.895 549.566ZM579.802 643.724C572.04 631.317 575.805 614.966 588.213 607.204C600.621 599.442 616.971 603.207 624.734 615.615L765.81 841.122C773.572 853.53 769.806 869.881 757.398 877.643C744.991 885.405 728.64 881.639 720.878 869.231L579.802 643.724ZM510.781 483.43C498.374 491.192 494.608 507.543 502.37 519.951L525.706 557.253C533.468 569.66 549.819 573.426 562.227 565.664C574.634 557.902 578.4 541.551 570.638 529.144L547.302 491.842C539.54 479.434 523.189 475.668 510.781 483.43Z" fill="white"/>
<defs>
<filter id="filter0_f_134_365" x="126" y="117" width="888.699" height="869.953" filterUnits="userSpaceOnUse" color-interpolation-filters="sRGB">
<feFlood flood-opacity="0" result="BackgroundImageFix"/>
<feBlend mode="normal" in="SourceGraphic" in2="BackgroundImageFix" result="shape"/>
<feGaussianBlur stdDeviation="25" result="effect1_foregroundBlur_134_365"/>
</filter>
<linearGradient id="paint0_linear_134_365" x1="-374.5" y1="-553.5" x2="736.5" y2="1243.5" gradientUnits="userSpaceOnUse">
<stop stop-color="#DC93F6"/>
<stop offset="1" stop-color="#B333E9"/>
</linearGradient>
</defs>
</svg>
