<svg width="1080" height="1080" viewBox="0 0 1080 1080" fill="none" xmlns="http://www.w3.org/2000/svg">
<path d="M2 247C2 175.203 60.203 117 132 117H905V963H132C60.203 963 2 904.797 2 833V247Z" fill="url(#paint0_linear_258_330)"/>
<g filter="url(#filter0_f_258_330)">
<path fill-rule="evenodd" clip-rule="evenodd" d="M141.413 812.065C150.833 826.719 166.533 834.045 188.513 834.045C204.736 834.045 217.296 830.12 226.193 822.27C235.09 813.897 243.463 800.552 251.313 782.235L283.498 706.875H541.763L574.733 782.235C582.06 800.029 590.433 813.112 599.853 821.485C609.796 829.859 623.665 834.045 641.458 834.045C661.868 834.045 676.521 826.98 685.418 812.85C694.838 798.197 694.576 779.88 684.633 757.9L482.103 317.515C474.253 299.722 464.571 286.9 453.058 279.05C441.545 270.677 428.2 266.49 413.023 266.49C397.846 266.49 384.501 270.677 372.988 279.05C361.475 286.9 351.531 299.722 343.158 317.515L142.198 757.9C132.255 779.357 131.993 797.412 141.413 812.065ZM324.318 611.89L411.453 403.08H413.023L501.728 611.89H324.318Z" fill="black" fill-opacity="0.17"/>
</g>
<path fill-rule="evenodd" clip-rule="evenodd" d="M132.874 790.575C142.294 805.228 157.994 812.555 179.974 812.555C196.197 812.555 208.757 808.63 217.654 800.78C226.551 792.407 234.924 779.062 242.774 760.745L274.959 685.385H533.224L566.194 760.745C573.521 778.538 581.894 791.622 591.314 799.995C601.257 808.368 615.126 812.555 632.919 812.555C653.329 812.555 667.982 805.49 676.879 791.36C686.299 776.707 686.037 758.39 676.094 736.41L473.564 296.025C465.714 278.232 456.032 265.41 444.519 257.56C433.006 249.187 419.661 245 404.484 245C389.307 245 375.962 249.187 364.449 257.56C352.936 265.41 342.992 278.232 334.619 296.025L133.659 736.41C123.716 757.867 123.454 775.922 132.874 790.575ZM315.779 590.4L402.914 381.59H404.484L493.189 590.4H315.779Z" fill="white"/>
<path fill-rule="evenodd" clip-rule="evenodd" d="M666.5 2C634.744 2 609 27.7436 609 59.5C609 91.2564 634.744 117 666.5 117H1020.5C1052.26 117 1078 91.2564 1078 59.5C1078 27.7436 1052.26 2 1020.5 2H666.5ZM666.5 963C634.744 963 609 988.744 609 1020.5C609 1052.26 634.744 1078 666.5 1078H1020.5C1052.26 1078 1078 1052.26 1078 1020.5C1078 988.744 1052.26 963 1020.5 963H666.5Z" fill="#1976D2"/>
<rect x="781" y="117" width="124" height="846" fill="#1565C0"/>
<defs>
<filter id="filter0_f_258_330" x="84.5391" y="216.49" width="657.754" height="667.555" filterUnits="userSpaceOnUse" color-interpolation-filters="sRGB">
<feFlood flood-opacity="0" result="BackgroundImageFix"/>
<feBlend mode="normal" in="SourceGraphic" in2="BackgroundImageFix" result="shape"/>
<feGaussianBlur stdDeviation="25" result="effect1_foregroundBlur_258_330"/>
</filter>
<linearGradient id="paint0_linear_258_330" x1="66.6432" y1="140.331" x2="661.611" y2="1000.44" gradientUnits="userSpaceOnUse">
<stop stop-color="#64B5F6"/>
<stop offset="1" stop-color="#42A5F5"/>
</linearGradient>
</defs>
</svg>
