<svg id="password-success" xmlns="http://www.w3.org/2000/svg" xmlns:xlink="http://www.w3.org/1999/xlink" width="1080" height="1080" viewBox="0 0 1080 1080">
  <defs>
    <linearGradient id="linear-gradient" x1="0.5" x2="0.5" y2="1" gradientUnits="objectBoundingBox">
      <stop offset="0" stop-color="#ffce48"/>
      <stop offset="1" stop-color="#ffd868"/>
    </linearGradient>
    <linearGradient id="linear-gradient-2" x1="0.5" x2="0.5" y2="1" gradientUnits="objectBoundingBox">
      <stop offset="0" stop-color="#f2bb1c"/>
      <stop offset="1" stop-color="#fccb3c"/>
    </linearGradient>
    <linearGradient id="linear-gradient-3" x1="0.707" x2="0.188" y2="1.18" gradientUnits="objectBoundingBox">
      <stop offset="0" stop-color="#30c455"/>
      <stop offset="1" stop-color="#15844a"/>
    </linearGradient>
  </defs>
  <rect id="Rectangle_177" data-name="Rectangle 177" width="1080" height="1080" fill="none"/>
  <g id="Group_77" data-name="Group 77" transform="translate(2.381 3.516)">
    <path id="Union_116" data-name="Union 116" d="M2.942,1062.058a9.989,9.989,0,0,1-2.9-7.821L10.076,920.714a38.015,38.015,0,0,1,7.129-43.867L445.1,448.955,425.183,429.04a37.968,37.968,0,0,1,0-53.74l21.462-21.462a37.782,37.782,0,0,1,10.368-7.372,306.17,306.17,0,0,1,19.6-156,303.939,303.939,0,0,1,27.95-53.115A308.413,308.413,0,0,1,591.6,50.31,303.733,303.733,0,0,1,701.3,5.59,306.269,306.269,0,0,1,874.541,22.361a303.709,303.709,0,0,1,53.113,27.95,308.35,308.35,0,0,1,87.036,87.036,303.68,303.68,0,0,1,44.72,109.7,306.256,306.256,0,0,1-16.771,173.238,303.947,303.947,0,0,1-27.951,53.114,308.331,308.331,0,0,1-87.035,87.036,303.7,303.7,0,0,1-109.7,44.721,307.015,307.015,0,0,1-99.416,2.827,37.811,37.811,0,0,1-7.372,10.367L689.7,639.817a37.97,37.97,0,0,1-53.74,0L616.045,619.9l-70.239,70.239-108.8-12.686a10,10,0,0,0-11.092,11.092L438.341,795.1,331.792,782.672A10,10,0,0,0,320.7,793.763L333.068,899.84,226.992,887.472A10,10,0,0,0,215.9,898.564l12.686,108.8-40.433,40.433a37.7,37.7,0,0,1-21.047,10.684,38.082,38.082,0,0,1-22.819-3.554L10.762,1064.959q-.378.029-.755.028A9.981,9.981,0,0,1,2.942,1062.058ZM816.306,155.12a66.24,66.24,0,1,0,46.783-19.347A66.24,66.24,0,0,0,816.306,155.12Z" transform="translate(5.113 3.991)" fill="url(#linear-gradient)"/>
    <path id="Union_117" data-name="Union 117" d="M12.866,447.232l-7.007-7.008a20,20,0,0,1,0-28.284L411.94,5.858a20,20,0,0,1,28.284,0l7.007,7.007a20,20,0,0,1,0,28.284L41.15,447.232a20,20,0,0,1-28.284,0Z" transform="translate(46.81 511.76)" fill="url(#linear-gradient-2)"/>
  </g>
  <g id="Group_213" data-name="Group 213" transform="translate(53.964 54.77)">
    <ellipse id="Ellipse_132" data-name="Ellipse 132" cx="274" cy="278" rx="274" ry="278" transform="translate(476.037 467.23)" fill="url(#linear-gradient-3)"/>
    <path id="Union_745" data-name="Union 745" d="M116.363,293.341a40.743,40.743,0,0,1-33.335-15.1L9.1,186.947a40.808,40.808,0,0,1,63.428-51.363l43.851,54.151L257.769,15.128A40.807,40.807,0,1,1,321.2,66.49L149.72,278.245a40.733,40.733,0,0,1-31.739,15.128Q117.172,293.373,116.363,293.341Z" transform="translate(584.873 629.379)" fill="rgba(0,0,0,0.15)"/>
    <path id="Union_319" data-name="Union 319" d="M116.363,293.341a40.743,40.743,0,0,1-33.335-15.1L9.1,186.947a40.808,40.808,0,0,1,63.428-51.363l43.851,54.151L257.769,15.128A40.807,40.807,0,1,1,321.2,66.49L149.72,278.245a40.733,40.733,0,0,1-31.739,15.128Q117.172,293.373,116.363,293.341Z" transform="translate(584.873 598.427)" fill="#f5f5f5"/>
  </g>
</svg>
