<svg width="1080" height="1080" viewBox="0 0 1080 1080" fill="none" xmlns="http://www.w3.org/2000/svg">
<circle cx="540" cy="540" r="198" fill="#1565C0"/>
<path fill-rule="evenodd" clip-rule="evenodd" d="M435.434 18.2637C437.227 8.82812 445.477 2 455.078 2H627.191C636.863 2 645.152 8.92383 646.871 18.4453L669.462 143.487C690.275 150.278 710.369 158.662 729.598 168.496L834.081 95.9874C842.029 90.4718 852.785 91.4356 859.626 98.2763L981.327 219.977C988.119 226.769 989.123 237.43 983.72 245.371L911.825 351.03C921.52 370.069 929.796 389.951 936.513 410.538L1061.56 433.128C1071.08 434.847 1078 443.135 1078 452.809V624.92C1078 634.525 1071.17 642.774 1061.74 644.568L936.887 668.31C930.113 689.279 921.723 709.522 911.864 728.892L984.514 833.578C990.029 841.526 989.066 852.283 982.225 859.123L860.524 980.824C853.732 987.616 843.072 988.621 835.131 983.217L729.678 911.463C710.425 921.314 690.304 929.712 669.462 936.513L646.871 1061.55C645.152 1071.08 636.863 1078 627.191 1078H455.078C445.477 1078 437.227 1071.17 435.434 1061.74L411.69 936.887C390.644 930.088 370.33 921.662 350.895 911.756L245.873 983.217C237.932 988.621 227.272 987.616 220.48 980.824L98.7789 859.123C91.9382 852.283 90.9744 841.526 96.4901 833.578L168.561 729.726C158.518 710.103 149.984 689.58 143.113 668.31L18.2637 644.568C8.82785 642.774 2 634.525 2 624.92V452.809C2 443.135 8.92433 434.847 18.4444 433.128L143.487 410.538C150.303 389.647 158.725 369.482 168.606 350.187L97.284 245.371C91.8806 237.43 92.8853 226.769 99.677 219.977L221.378 98.2763C228.219 91.4356 238.975 90.4718 246.923 95.9874L350.98 168.201C370.389 158.314 390.675 149.902 411.69 143.113L435.434 18.2637ZM540 821C695.192 821 821 695.192 821 540C821 384.808 695.192 259 540 259C384.808 259 259 384.808 259 540C259 695.192 384.808 821 540 821Z" fill="url(#paint0_linear_255_328)"/>
<defs>
<linearGradient id="paint0_linear_255_328" x1="485" y1="277" x2="658" y2="915.5" gradientUnits="userSpaceOnUse">
<stop stop-color="#2196F3"/>
<stop offset="1" stop-color="#1E88E5"/>
</linearGradient>
</defs>
</svg>
