<svg width="1080" height="1080" viewBox="0 0 1080 1080" fill="none" xmlns="http://www.w3.org/2000/svg">
<path fill-rule="evenodd" clip-rule="evenodd" d="M540.5 2C395.564 2 267.24 25.3813 188.532 61.2953C131.197 85.3023 85.3022 131.197 61.2952 188.532C25.3812 267.24 2 395.564 2 540.5C2 685.437 25.3813 813.76 61.2953 892.469C87.8298 955.839 141.103 1005.23 207.008 1026.55C286.525 1057.98 406.402 1078 540.5 1078C674.598 1078 794.475 1057.98 873.992 1026.55C946.174 1003.2 1003.2 946.174 1026.55 873.992C1057.98 794.475 1078 674.598 1078 540.5C1078 406.402 1057.98 286.525 1026.55 207.008C1005.23 141.103 955.839 87.8298 892.469 61.2954C813.76 25.3813 685.437 2 540.5 2Z" fill="url(#paint0_linear_355_302)"/>
<path d="M237.727 802.14H349.091V531.685L190 412.367V754.413C190 780.822 211.398 802.14 237.727 802.14Z" fill="#4285F4"/>
<path d="M730.91 802.14H842.274C868.683 802.14 890.001 780.742 890.001 754.413V412.367L730.91 531.685" fill="#34A853"/>
<path d="M730.91 324.863V531.681L890.001 412.363V348.726C890.001 289.704 822.626 256.056 775.456 291.454" fill="#FBBC04"/>
<path d="M349.09 531.685V324.867L539.999 468.049L730.908 324.867V531.685L539.999 674.867" fill="#EA4335"/>
<path d="M190 348.726V412.363L349.091 531.681V324.863L304.545 291.454C257.295 256.056 190 289.704 190 348.726" fill="#C5221F"/>
<defs>
<linearGradient id="paint0_linear_355_302" x1="540" y1="2" x2="540" y2="1078" gradientUnits="userSpaceOnUse">
<stop stop-color="#F7F7F7"/>
<stop offset="1" stop-color="#E4E4E4"/>
</linearGradient>
</defs>
</svg>
