<svg width="1080" height="1080" viewBox="0 0 1080 1080" fill="none" xmlns="http://www.w3.org/2000/svg">
<path fill-rule="evenodd" clip-rule="evenodd" d="M540.5 2C395.564 2 267.24 25.3813 188.532 61.2953C131.197 85.3023 85.3022 131.197 61.2952 188.532C25.3812 267.24 2 395.564 2 540.5C2 685.437 25.3813 813.76 61.2953 892.469C87.8298 955.839 141.103 1005.23 207.008 1026.55C286.525 1057.98 406.402 1078 540.5 1078C674.598 1078 794.475 1057.98 873.992 1026.55C946.174 1003.2 1003.2 946.174 1026.55 873.992C1057.98 794.475 1078 674.598 1078 540.5C1078 406.402 1057.98 286.525 1026.55 207.008C1005.23 141.103 955.839 87.8298 892.469 61.2954C813.76 25.3813 685.437 2 540.5 2Z" fill="url(#paint0_linear_355_120)"/>
<path d="M567.621 192.777L620.737 314.285V736.669L568.431 887.107L766.199 830.751C780.951 826.512 793.927 817.596 803.172 805.345C812.418 793.094 817.434 778.17 817.464 762.822V317.062C817.471 301.674 812.457 286.704 803.184 274.424C793.912 262.144 780.886 253.224 766.084 249.018L567.621 192.777Z" fill="url(#paint1_linear_355_120)"/>
<path d="M316.852 732.156L374.713 700.911C382.648 696.55 389.263 690.134 393.865 682.336C398.467 674.538 400.885 665.645 400.866 656.59V429.197C400.877 418.839 404.068 408.734 410.008 400.249C415.947 391.763 424.35 385.307 434.078 381.751L620.737 314.286V263.021C620.715 247.132 615.52 231.682 605.936 219.009C596.353 206.335 582.903 197.127 567.621 192.778C561.113 190.909 554.372 189.974 547.601 190.001V190.001C534.865 190.03 522.351 193.337 511.264 199.605L297.642 321.46C286.817 327.629 277.818 336.552 271.558 347.324C265.298 358.096 262 370.334 262 382.793V699.407C261.984 705.851 263.644 712.189 266.818 717.797C269.993 723.406 274.571 728.092 280.104 731.395C285.637 734.699 291.935 736.506 298.377 736.639C304.82 736.773 311.187 735.228 316.852 732.156V732.156Z" fill="url(#paint2_linear_355_120)"/>
<path d="M620.74 736.668H400.059C391.907 736.755 384.009 739.513 377.575 744.519C371.141 749.525 366.527 756.503 364.439 764.383C362.35 772.263 362.904 780.61 366.014 788.146C369.125 795.681 374.62 801.988 381.659 806.101L513.119 880.626C523.946 886.781 536.19 890.011 548.645 889.999V889.999C555.346 889.995 562.012 889.02 568.433 887.106C583.529 882.817 596.809 873.712 606.252 861.178C615.695 848.643 620.782 833.366 620.74 817.673V736.668Z" fill="url(#paint3_linear_355_120)"/>
<path d="M316.852 732.156L374.713 700.911C382.648 696.55 389.263 690.134 393.865 682.336C398.467 674.538 400.885 665.645 400.866 656.59V429.197C400.877 418.839 404.068 408.734 410.008 400.249C415.947 391.763 424.35 385.307 434.078 381.751L620.737 314.286V263.021C620.715 247.132 615.52 231.682 605.936 219.009C596.353 206.335 582.903 197.127 567.621 192.778C561.113 190.909 554.372 189.974 547.601 190.001V190.001C534.865 190.03 522.351 193.337 511.264 199.605L297.642 321.46C286.817 327.629 277.818 336.552 271.558 347.324C265.298 358.096 262 370.334 262 382.793V699.407C261.984 705.851 263.644 712.189 266.818 717.797C269.993 723.406 274.571 728.092 280.104 731.395C285.637 734.699 291.935 736.506 298.377 736.639C304.82 736.773 311.187 735.228 316.852 732.156V732.156Z" fill="url(#paint4_linear_355_120)"/>
<path d="M620.74 736.668H400.059C391.907 736.755 384.009 739.513 377.575 744.519C371.141 749.525 366.527 756.503 364.439 764.383C362.35 772.263 362.904 780.61 366.014 788.146C369.125 795.681 374.62 801.988 381.659 806.101L513.119 880.626C523.946 886.781 536.19 890.011 548.645 889.999V889.999C555.346 889.995 562.012 889.02 568.433 887.106C583.529 882.817 596.809 873.712 606.252 861.178C615.695 848.643 620.782 833.366 620.74 817.673V736.668Z" fill="url(#paint5_linear_355_120)"/>
<defs>
<linearGradient id="paint0_linear_355_120" x1="540" y1="2" x2="540" y2="1078" gradientUnits="userSpaceOnUse">
<stop stop-color="#F7F7F7"/>
<stop offset="1" stop-color="#E4E4E4"/>
</linearGradient>
<linearGradient id="paint1_linear_355_120" x1="692.485" y1="153.201" x2="692.485" y2="838.504" gradientUnits="userSpaceOnUse">
<stop stop-color="#FFB900"/>
<stop offset="0.17" stop-color="#EF8400"/>
<stop offset="0.31" stop-color="#E25C01"/>
<stop offset="0.43" stop-color="#DB4401"/>
<stop offset="0.5" stop-color="#D83B01"/>
</linearGradient>
<linearGradient id="paint2_linear_355_120" x1="568.894" y1="177.387" x2="205.991" y2="695.588" gradientUnits="userSpaceOnUse">
<stop stop-color="#800600"/>
<stop offset="0.6" stop-color="#C72127"/>
<stop offset="0.73" stop-color="#C13959"/>
<stop offset="0.85" stop-color="#BC4B81"/>
<stop offset="0.94" stop-color="#B95799"/>
<stop offset="1" stop-color="#B85BA2"/>
</linearGradient>
<linearGradient id="paint3_linear_355_120" x1="383.51" y1="813.391" x2="857.275" y2="813.391" gradientUnits="userSpaceOnUse">
<stop stop-color="#F32B44"/>
<stop offset="0.6" stop-color="#A4070A"/>
</linearGradient>
<linearGradient id="paint4_linear_355_120" x1="576.3" y1="166.856" x2="499.461" y2="276.56" gradientUnits="userSpaceOnUse">
<stop stop-opacity="0.4"/>
<stop offset="1" stop-opacity="0"/>
</linearGradient>
<linearGradient id="paint5_linear_355_120" x1="705.448" y1="824.038" x2="493.33" y2="805.522" gradientUnits="userSpaceOnUse">
<stop stop-opacity="0.4"/>
<stop offset="1" stop-opacity="0"/>
</linearGradient>
</defs>
</svg>
