<svg width="1080" height="1080" viewBox="0 0 1080 1080" fill="none" xmlns="http://www.w3.org/2000/svg">
<path fill-rule="evenodd" clip-rule="evenodd" d="M540.5 2C395.564 2 267.24 25.3813 188.532 61.2953C131.197 85.3023 85.3022 131.197 61.2952 188.532C25.3812 267.24 2 395.564 2 540.5C2 685.437 25.3813 813.76 61.2953 892.469C87.8298 955.839 141.103 1005.23 207.008 1026.55C286.525 1057.98 406.402 1078 540.5 1078C674.598 1078 794.475 1057.98 873.992 1026.55C946.174 1003.2 1003.2 946.174 1026.55 873.992C1057.98 794.475 1078 674.598 1078 540.5C1078 406.402 1057.98 286.525 1026.55 207.008C1005.23 141.103 955.839 87.8298 892.469 61.2954C813.76 25.3813 685.437 2 540.5 2Z" fill="url(#paint0_linear_355_156)"/>
<path d="M423.361 210.008H630.497L415.469 847.113C413.259 853.66 409.052 859.349 403.439 863.379C397.826 867.409 391.091 869.577 384.181 869.579H222.978C217.743 869.579 212.583 868.333 207.924 865.944C203.266 863.554 199.244 860.09 196.19 855.838C193.137 851.585 191.139 846.667 190.364 841.49C189.588 836.312 190.057 831.024 191.73 826.064L392.065 232.473C394.274 225.924 398.482 220.232 404.097 216.201C409.711 212.169 416.449 210 423.361 210V210.008Z" fill="url(#paint1_linear_355_156)"/>
<path d="M724.36 637.334H395.891C392.837 637.331 389.853 638.247 387.328 639.964C384.802 641.68 382.852 644.118 381.732 646.959C380.612 649.8 380.373 652.912 381.047 655.891C381.72 658.869 383.276 661.576 385.51 663.658L596.576 860.659C602.721 866.392 610.813 869.579 619.216 869.577H805.208L724.36 637.334Z" fill="#0078D4"/>
<path d="M423.358 210.006C416.37 209.979 409.557 212.187 403.914 216.308C398.271 220.428 394.093 226.245 391.99 232.909L191.974 825.521C190.188 830.5 189.627 835.835 190.339 841.076C191.051 846.317 193.015 851.31 196.064 855.631C199.114 859.953 203.16 863.476 207.859 865.904C212.558 868.331 217.773 869.591 223.062 869.577H388.426C394.585 868.476 400.342 865.761 405.108 861.708C409.874 857.655 413.478 852.409 415.554 846.507L455.441 728.953L597.918 861.844C603.888 866.783 611.378 869.514 619.126 869.577H804.426L723.156 637.334L486.243 637.389L631.242 210.006H423.358Z" fill="url(#paint2_linear_355_156)"/>
<path d="M687.923 232.439C685.717 225.901 681.515 220.219 675.909 216.194C670.303 212.169 663.576 210.005 656.675 210.006H425.824C432.725 210.006 439.452 212.171 445.057 216.195C450.663 220.22 454.865 225.901 457.072 232.439L657.415 826.054C659.09 831.015 659.559 836.304 658.784 841.483C658.009 846.662 656.012 851.582 652.959 855.836C649.905 860.09 645.883 863.555 641.224 865.946C636.565 868.337 631.404 869.584 626.167 869.584H857.026C862.262 869.583 867.422 868.335 872.08 865.943C876.738 863.552 880.759 860.086 883.812 855.832C886.865 851.579 888.861 846.659 889.635 841.481C890.41 836.303 889.94 831.015 888.266 826.054L687.923 232.439Z" fill="url(#paint3_linear_355_156)"/>
<defs>
<linearGradient id="paint0_linear_355_156" x1="540" y1="2" x2="540" y2="1078" gradientUnits="userSpaceOnUse">
<stop stop-color="#F7F7F7"/>
<stop offset="1" stop-color="#E4E4E4"/>
</linearGradient>
<linearGradient id="paint1_linear_355_156" x1="498.855" y1="258.884" x2="283.74" y2="894.391" gradientUnits="userSpaceOnUse">
<stop stop-color="#114A8B"/>
<stop offset="1" stop-color="#0669BC"/>
</linearGradient>
<linearGradient id="paint2_linear_355_156" x1="566.049" y1="555.045" x2="516.29" y2="571.871" gradientUnits="userSpaceOnUse">
<stop stop-opacity="0.3"/>
<stop offset="0.071" stop-opacity="0.2"/>
<stop offset="0.321" stop-opacity="0.1"/>
<stop offset="0.623" stop-opacity="0.05"/>
<stop offset="1" stop-opacity="0"/>
</linearGradient>
<linearGradient id="paint3_linear_355_156" x1="538.684" y1="240.347" x2="774.817" y2="869.449" gradientUnits="userSpaceOnUse">
<stop stop-color="#3CCBF4"/>
<stop offset="1" stop-color="#2892DF"/>
</linearGradient>
</defs>
</svg>
