<svg width="1080" height="1080" viewBox="0 0 1080 1080" fill="none" xmlns="http://www.w3.org/2000/svg">
<path fill-rule="evenodd" clip-rule="evenodd" d="M540.5 2C395.564 2 267.24 25.3813 188.532 61.2953C131.197 85.3023 85.3022 131.197 61.2952 188.532C25.3812 267.24 2 395.564 2 540.5C2 685.437 25.3813 813.76 61.2953 892.469C87.8298 955.839 141.103 1005.23 207.008 1026.55C286.525 1057.98 406.402 1078 540.5 1078C674.598 1078 794.475 1057.98 873.992 1026.55C946.174 1003.2 1003.2 946.174 1026.55 873.992C1057.98 794.475 1078 674.598 1078 540.5C1078 406.402 1057.98 286.525 1026.55 207.008C1005.23 141.103 955.839 87.8298 892.469 61.2954C813.76 25.3813 685.437 2 540.5 2Z" fill="url(#paint0_linear_355_218)"/>
<path d="M678.259 459.094H859.071C876.153 459.094 890.001 472.936 890.001 490.012V654.645C890.001 717.403 839.106 768.278 776.324 768.278H775.787C713.005 768.287 662.103 717.419 662.094 654.661C662.094 654.655 662.094 654.65 662.094 654.644V475.253C662.094 466.328 669.331 459.094 678.259 459.094Z" fill="#5059C9"/>
<path d="M800.467 426.548C840.925 426.548 873.723 393.762 873.723 353.32C873.723 312.877 840.925 280.092 800.467 280.092C760.009 280.092 727.211 312.877 727.211 353.32C727.211 393.762 760.009 426.548 800.467 426.548Z" fill="#5059C9"/>
<path d="M572.556 426.548C630.996 426.548 678.37 379.191 678.37 320.774C678.37 262.357 630.996 215 572.556 215C514.117 215 466.742 262.357 466.742 320.774C466.742 379.191 514.117 426.548 572.556 426.548Z" fill="#7B83EB"/>
<path d="M713.648 459.094H415.187C398.308 459.511 384.956 473.514 385.348 490.387V678.159C382.991 779.413 463.128 863.438 564.417 865.916C665.707 863.438 745.844 779.413 743.487 678.159V490.387C743.878 473.514 730.526 459.511 713.648 459.094Z" fill="#7B83EB"/>
<path opacity="0.1" d="M580.697 459.094V722.226C580.616 734.293 573.301 745.133 562.139 749.727C558.585 751.23 554.766 752.004 550.907 752.005H399.674C397.558 746.635 395.604 741.265 393.976 735.733C388.278 717.06 385.37 697.649 385.348 678.127V490.338C384.957 473.492 398.287 459.511 415.139 459.094H580.697Z" fill="black"/>
<path opacity="0.2" d="M564.419 459.094V738.499C564.418 742.356 563.643 746.175 562.139 749.727C557.543 760.885 546.699 768.198 534.628 768.278H407.325C404.558 762.908 401.953 757.538 399.674 752.005C397.395 746.473 395.604 741.265 393.976 735.733C388.278 717.06 385.37 697.649 385.348 678.127V490.338C384.957 473.492 398.287 459.511 415.139 459.094H564.419Z" fill="black"/>
<path opacity="0.2" d="M564.418 459.094V705.953C564.294 722.348 551.029 735.609 534.628 735.733H393.976C388.278 717.06 385.37 697.649 385.348 678.127V490.338C384.957 473.492 398.287 459.511 415.139 459.094H564.418Z" fill="black"/>
<path opacity="0.2" d="M548.139 459.094V705.953C548.015 722.348 534.75 735.609 518.348 735.733H393.976C388.278 717.06 385.37 697.649 385.348 678.127V490.338C384.957 473.492 398.287 459.511 415.139 459.094H548.139Z" fill="black"/>
<path opacity="0.1" d="M580.699 374.963V426.222C577.932 426.385 575.327 426.548 572.56 426.548C569.792 426.548 567.188 426.385 564.42 426.222C558.925 425.858 553.475 424.986 548.141 423.619C515.176 415.815 487.941 392.705 474.885 361.456C472.639 356.209 470.895 350.76 469.676 345.184H550.908C567.335 345.246 580.637 358.542 580.699 374.963Z" fill="black"/>
<path opacity="0.2" d="M564.418 391.236V426.223C558.923 425.858 553.473 424.987 548.139 423.619C515.173 415.816 487.939 392.705 474.883 361.457H534.627C551.054 361.519 564.355 374.815 564.418 391.236Z" fill="black"/>
<path opacity="0.2" d="M564.418 391.236V426.223C558.923 425.858 553.473 424.987 548.139 423.619C515.173 415.816 487.939 392.705 474.883 361.457H534.627C551.054 361.519 564.355 374.815 564.418 391.236Z" fill="black"/>
<path opacity="0.2" d="M548.139 391.234V423.617C515.173 415.814 487.939 392.703 474.883 361.455H518.348C534.775 361.518 548.076 374.814 548.139 391.234Z" fill="black"/>
<path d="M219.839 361.455H518.3C534.78 361.455 548.139 374.81 548.139 391.283V689.63C548.139 706.103 534.779 719.458 518.3 719.458H219.839C203.359 719.458 190 706.103 190 689.63V391.283C190 374.81 203.36 361.455 219.839 361.455Z" fill="url(#paint1_linear_355_218)"/>
<path d="M447.6 475.008H387.937V637.411H349.925V475.008H290.539V443.504H447.6V475.008Z" fill="white"/>
<defs>
<linearGradient id="paint0_linear_355_218" x1="540" y1="2" x2="540" y2="1078" gradientUnits="userSpaceOnUse">
<stop stop-color="#F7F7F7"/>
<stop offset="1" stop-color="#E4E4E4"/>
</linearGradient>
<linearGradient id="paint1_linear_355_218" x1="252.216" y1="338.148" x2="485.79" y2="742.842" gradientUnits="userSpaceOnUse">
<stop stop-color="#5A62C3"/>
<stop offset="0.5" stop-color="#4D55BD"/>
<stop offset="1" stop-color="#3940AB"/>
</linearGradient>
</defs>
</svg>
