<svg width="1080" height="1080" viewBox="0 0 1080 1080" fill="none" xmlns="http://www.w3.org/2000/svg">
<path fill-rule="evenodd" clip-rule="evenodd" d="M540.5 2C395.564 2 267.24 25.3813 188.532 61.2953C131.197 85.3023 85.3022 131.197 61.2952 188.532C25.3812 267.24 2 395.564 2 540.5C2 685.437 25.3813 813.76 61.2953 892.469C87.8298 955.839 141.103 1005.23 207.008 1026.55C286.525 1057.98 406.402 1078 540.5 1078C674.598 1078 794.475 1057.98 873.992 1026.55C946.174 1003.2 1003.2 946.174 1026.55 873.992C1057.98 794.475 1078 674.598 1078 540.5C1078 406.402 1057.98 286.525 1026.55 207.008C1005.23 141.103 955.839 87.8298 892.469 61.2954C813.76 25.3813 685.437 2 540.5 2Z" fill="url(#paint0_linear_355_265)"/>
<path d="M242.921 762.793L273.792 816.092C280.206 827.312 289.427 836.129 300.252 842.541L410.504 651.787H190C190 664.21 193.207 676.633 199.622 687.854L242.921 762.793Z" fill="#0066DA"/>
<path d="M540.001 427.373L429.748 236.619C418.924 243.031 409.703 251.847 403.288 263.068L199.622 615.722C193.325 626.7 190.008 639.133 190 651.788H410.504L540.001 427.373Z" fill="#00AC47"/>
<path d="M779.749 842.541C790.573 836.129 799.795 827.312 806.209 816.092L819.039 794.051L880.379 687.854C886.794 676.633 890.001 664.21 890.001 651.787H669.48L716.404 743.958L779.749 842.541Z" fill="#EA4335"/>
<path d="M540.002 427.371L650.254 236.618C639.43 230.206 627.001 227 614.172 227H465.833C453.003 227 440.575 230.607 429.75 236.618L540.002 427.371Z" fill="#00832D"/>
<path d="M669.499 651.787H410.506L300.254 842.541C311.079 848.952 323.507 852.158 336.336 852.158H743.668C756.498 852.158 768.926 848.552 779.751 842.541L669.499 651.787Z" fill="#2684FC"/>
<path d="M778.546 439.395L676.713 263.068C670.298 251.847 661.077 243.031 650.252 236.619L540 427.373L669.496 651.788H889.6C889.6 639.365 886.392 626.942 879.978 615.722L778.546 439.395Z" fill="#FFBA00"/>
<defs>
<linearGradient id="paint0_linear_355_265" x1="540" y1="2" x2="540" y2="1078" gradientUnits="userSpaceOnUse">
<stop stop-color="#F7F7F7"/>
<stop offset="1" stop-color="#E4E4E4"/>
</linearGradient>
</defs>
</svg>
