<svg width="1080" height="1080" viewBox="0 0 1080 1080" fill="none" xmlns="http://www.w3.org/2000/svg">
<path fill-rule="evenodd" clip-rule="evenodd" d="M192.216 2C146.366 2 106.151 32.5928 93.9151 76.7799L12.7817 369.78C-5.21046 434.755 43.662 499 111.083 499H968.917C1036.34 499 1085.21 434.755 1067.22 369.78L986.085 76.7799C973.849 32.5928 933.634 2 887.784 2H192.216Z" fill="url(#paint0_linear_12_240)"/>
<path fill-rule="evenodd" clip-rule="evenodd" d="M100 321C45.8761 321 2 364.876 2 419V980C2 1034.12 45.8761 1078 100 1078H980C1034.12 1078 1078 1034.12 1078 980V419C1078 364.876 1034.12 321 980 321H100Z" fill="url(#paint1_linear_12_240)"/>
<path d="M432.62 2H646.224L692 321H387L432.62 2Z" fill="#F1CFBF"/>
<g filter="url(#filter0_f_12_240)">
<path d="M559 517V590.152V722L399 517H559Z" fill="#BC7F5C"/>
</g>
<path fill-rule="evenodd" clip-rule="evenodd" d="M692 321H387V499L575.996 733H692V321Z" fill="#E6B8A2"/>
<path d="M576 499V582.5V733L387 499H576Z" fill="#F1CFBF"/>
<defs>
<filter id="filter0_f_12_240" x="366" y="484" width="226" height="271" filterUnits="userSpaceOnUse" color-interpolation-filters="sRGB">
<feFlood flood-opacity="0" result="BackgroundImageFix"/>
<feBlend mode="normal" in="SourceGraphic" in2="BackgroundImageFix" result="shape"/>
<feGaussianBlur stdDeviation="16.5" result="effect1_foregroundBlur_12_240"/>
</filter>
<linearGradient id="paint0_linear_12_240" x1="361" y1="226.5" x2="693.588" y2="64.1781" gradientUnits="userSpaceOnUse">
<stop stop-color="#DEAB90"/>
<stop offset="1" stop-color="#E6B8A2"/>
</linearGradient>
<linearGradient id="paint1_linear_12_240" x1="217" y1="934.5" x2="1001.5" y2="370.5" gradientUnits="userSpaceOnUse">
<stop stop-color="#C38E70"/>
<stop offset="1" stop-color="#DEAB90"/>
</linearGradient>
</defs>
</svg>
