<svg width="1080" height="1080" viewBox="0 0 1080 1080" fill="none" xmlns="http://www.w3.org/2000/svg">
<rect x="667" y="300" width="411" height="778" rx="50" fill="#008000"/>
<mask id="mask0_570_35" style="mask-type:alpha" maskUnits="userSpaceOnUse" x="667" y="300" width="411" height="778">
<rect x="667" y="300" width="411" height="778" rx="50" fill="#008000"/>
</mask>
<g mask="url(#mask0_570_35)">
<g filter="url(#filter0_f_570_35)">
<rect x="334" y="2" width="411" height="1076" rx="50" fill="black" fill-opacity="0.25"/>
</g>
</g>
<rect x="334" y="2" width="411" height="1076" rx="50" fill="url(#paint0_linear_570_35)"/>
<mask id="mask1_570_35" style="mask-type:alpha" maskUnits="userSpaceOnUse" x="334" y="2" width="411" height="1076">
<rect x="334" y="2" width="411" height="1076" rx="50" fill="#38B000"/>
</mask>
<g mask="url(#mask1_570_35)">
<g filter="url(#filter1_f_570_35)">
<rect x="2" y="622" width="411" height="456" rx="50" fill="black" fill-opacity="0.1"/>
</g>
</g>
<path d="M334 622H1078V1028C1078 1055.61 1055.61 1078 1028 1078H334V622Z" fill="url(#paint1_linear_570_35)"/>
<rect x="2" y="622" width="411" height="456" rx="50" fill="url(#paint2_linear_570_35)"/>
<defs>
<filter id="filter0_f_570_35" x="234" y="-98" width="611" height="1276" filterUnits="userSpaceOnUse" color-interpolation-filters="sRGB">
<feFlood flood-opacity="0" result="BackgroundImageFix"/>
<feBlend mode="normal" in="SourceGraphic" in2="BackgroundImageFix" result="shape"/>
<feGaussianBlur stdDeviation="50" result="effect1_foregroundBlur_570_35"/>
</filter>
<filter id="filter1_f_570_35" x="-98" y="522" width="611" height="656" filterUnits="userSpaceOnUse" color-interpolation-filters="sRGB">
<feFlood flood-opacity="0" result="BackgroundImageFix"/>
<feBlend mode="normal" in="SourceGraphic" in2="BackgroundImageFix" result="shape"/>
<feGaussianBlur stdDeviation="50" result="effect1_foregroundBlur_570_35"/>
</filter>
<linearGradient id="paint0_linear_570_35" x1="539.5" y1="2" x2="539.5" y2="1078" gradientUnits="userSpaceOnUse">
<stop stop-color="#43C607"/>
<stop offset="1" stop-color="#38B000"/>
</linearGradient>
<linearGradient id="paint1_linear_570_35" x1="441" y1="720" x2="1044" y2="652.5" gradientUnits="userSpaceOnUse">
<stop stop-opacity="0.29"/>
<stop offset="1" stop-opacity="0"/>
</linearGradient>
<linearGradient id="paint2_linear_570_35" x1="-41.5" y1="526" x2="341" y2="998" gradientUnits="userSpaceOnUse">
<stop stop-color="#9EF01A"/>
<stop offset="1" stop-color="#70E000"/>
</linearGradient>
</defs>
</svg>
