<svg id="expedition" xmlns="http://www.w3.org/2000/svg" xmlns:xlink="http://www.w3.org/1999/xlink" width="1080.002" height="1080" viewBox="0 0 1080.002 1080">
  <defs>
    <linearGradient id="linear-gradient" x1="0.678" y1="0.14" x2="0" y2="1.144" gradientUnits="objectBoundingBox">
      <stop offset="0" stop-color="#26b4ff"/>
      <stop offset="1" stop-color="#1878f2"/>
    </linearGradient>
    <linearGradient id="linear-gradient-2" x1="0.5" y1="-0.378" x2="0.155" y2="0.779" gradientUnits="objectBoundingBox">
      <stop offset="0" stop-color="#f2f2f2"/>
      <stop offset="1" stop-color="#d4d4d4"/>
    </linearGradient>
    <linearGradient id="linear-gradient-3" x1="1.151" y1="-0.431" x2="0" y2="1.102" gradientUnits="objectBoundingBox">
      <stop offset="0" stop-color="#b4b4b4"/>
      <stop offset="1" stop-color="#676767"/>
    </linearGradient>
  </defs>
  <g id="Group_93" data-name="Group 93">
    <path id="Subtraction_42" data-name="Subtraction 42" d="M12099-1993h-280.986a139.913,139.913,0,0,0-41.3-99.559,139.913,139.913,0,0,0-99.56-41.3c-77.675,0-140.867,63.191-140.867,140.864H11514a79.5,79.5,0,0,1-31.14-6.286,80.019,80.019,0,0,1-13.59-7.376,80.638,80.638,0,0,1-11.84-9.768,80.544,80.544,0,0,1-9.769-11.839,80,80,0,0,1-7.376-13.589A79.494,79.494,0,0,1,11434-2073v-530a79.5,79.5,0,0,1,6.287-31.14,80.01,80.01,0,0,1,7.376-13.589,80.585,80.585,0,0,1,9.769-11.84,80.6,80.6,0,0,1,11.84-9.769,80,80,0,0,1,13.59-7.376A79.494,79.494,0,0,1,11514-2683h505a79.494,79.494,0,0,1,31.14,6.287,80,80,0,0,1,13.59,7.376,80.572,80.572,0,0,1,11.84,9.769,80.6,80.6,0,0,1,9.769,11.84,80.028,80.028,0,0,1,7.376,13.589A79.5,79.5,0,0,1,12099-2603v610Z" transform="translate(-11434 2827.135)" fill="url(#linear-gradient)"/>
    <path id="Subtraction_44" data-name="Subtraction 44" d="M11506.284-2149.857H11434V-2650h278.538a19.3,19.3,0,0,1,8.814,2.477,48.386,48.386,0,0,1,9.735,7.05c6.489,5.857,13.694,14.446,21.414,25.526,13.908,19.959,29.412,47.871,44.837,80.718a915.038,915.038,0,0,1,36.554,89.726c9.743,28.516,15.109,50.558,15.109,62.064V-2236.8a93.516,93.516,0,0,1-4.609,29.154,88.989,88.989,0,0,1-12.764,24.949,83.075,83.075,0,0,1-19.326,19.017,76.241,76.241,0,0,1-24.3,11.357c-1.121-76.516-64.306-138.765-140.85-138.765-77.674,0-140.865,63.192-140.865,140.865v.366h0Zm5.5-414.511v213.619h196.47c12.532,0,24.315-3.863,33.177-10.877s13.742-16.34,13.742-26.259c0-37-11.044-80.469-30.3-119.26-8.284-16.689-17.378-30.963-26.3-41.28a69.186,69.186,0,0,0-12.559-11.753c-4.04-2.781-7.7-4.191-10.879-4.191Z" transform="translate(-10769 2983.993)" fill="url(#linear-gradient-2)"/>
    <path id="Path_269" data-name="Path 269" d="M0-166.191H163.356c25.912,0,80.033,93.771,80.033,176.483,0,20.509-21.006,37.136-46.918,37.136H0Z" transform="translate(742.781 585.816)" fill="rgba(255,255,255,0.28)"/>
    <circle id="Ellipse_121" data-name="Ellipse 121" cx="101.865" cy="101.865" r="101.865" transform="translate(141.283 732.27)" fill="url(#linear-gradient-3)"/>
    <circle id="Ellipse_122" data-name="Ellipse 122" cx="101.867" cy="101.867" r="101.867" transform="translate(776.281 731.901)" fill="url(#linear-gradient-3)"/>
  </g>
  <rect id="Rectangle_177" data-name="Rectangle 177" width="1080" height="1080" fill="none"/>
</svg>
