<svg width="1080" height="1080" viewBox="0 0 1080 1080" fill="none" xmlns="http://www.w3.org/2000/svg">
<rect x="2" y="2" width="684" height="1076" rx="68" fill="url(#paint0_linear_15_304)"/>
<rect x="93" y="152" width="503" height="103" rx="51.5" fill="#BBDEFB"/>
<rect x="93" y="350" width="503" height="103" rx="51.5" fill="#BBDEFB"/>
<rect x="93" y="548" width="503" height="103" rx="51.5" fill="#BBDEFB"/>
<rect x="93" y="834" width="256" height="103" rx="51.5" fill="#BBDEFB"/>
<mask id="mask0_15_304" style="mask-type:alpha" maskUnits="userSpaceOnUse" x="2" y="2" width="684" height="1076">
<rect x="2" y="2" width="684" height="1076" rx="68" fill="url(#paint1_linear_15_304)"/>
</mask>
<g mask="url(#mask0_15_304)">
<g filter="url(#filter0_f_15_304)">
<circle cx="772.5" cy="687.5" r="305.5" fill="black" fill-opacity="0.25"/>
</g>
</g>
<circle cx="772.5" cy="687.5" r="305.5" fill="url(#paint2_linear_15_304)"/>
<circle cx="670.5" cy="568.5" r="55.5" fill="white"/>
<circle cx="874.5" cy="805.5" r="55.5" fill="white"/>
<rect width="83.63" height="391.23" rx="41.815" transform="matrix(-0.707107 -0.707107 -0.707107 0.707107 939.777 578.137)" fill="white"/>
<defs>
<filter id="filter0_f_15_304" x="367" y="282" width="811" height="811" filterUnits="userSpaceOnUse" color-interpolation-filters="sRGB">
<feFlood flood-opacity="0" result="BackgroundImageFix"/>
<feBlend mode="normal" in="SourceGraphic" in2="BackgroundImageFix" result="shape"/>
<feGaussianBlur stdDeviation="50" result="effect1_foregroundBlur_15_304"/>
</filter>
<linearGradient id="paint0_linear_15_304" x1="46.5" y1="120" x2="552.5" y2="1242" gradientUnits="userSpaceOnUse">
<stop stop-color="#1976D2"/>
<stop offset="1" stop-color="#1565C0"/>
</linearGradient>
<linearGradient id="paint1_linear_15_304" x1="46.5" y1="120" x2="552.5" y2="1242" gradientUnits="userSpaceOnUse">
<stop stop-color="#1976D2"/>
<stop offset="1" stop-color="#1565C0"/>
</linearGradient>
<linearGradient id="paint2_linear_15_304" x1="566" y1="365" x2="813.5" y2="1082.5" gradientUnits="userSpaceOnUse">
<stop stop-color="#64B5F6"/>
<stop offset="1" stop-color="#2196F3"/>
</linearGradient>
</defs>
</svg>
