<svg width="1080" height="1080" viewBox="0 0 1080 1080" fill="none" xmlns="http://www.w3.org/2000/svg">
<circle cx="540" cy="540" r="538" fill="url(#paint0_linear_168_291)"/>
<mask id="mask0_168_291" style="mask-type:alpha" maskUnits="userSpaceOnUse" x="2" y="2" width="1076" height="1076">
<circle cx="540" cy="540" r="538" fill="url(#paint1_linear_168_291)"/>
</mask>
<g mask="url(#mask0_168_291)">
<g filter="url(#filter0_f_168_291)">
<path fill-rule="evenodd" clip-rule="evenodd" d="M132.76 215.49C67.0657 297.216 24.7593 398.541 16 509.307H191.259C195.093 421.938 210.419 337.554 235.763 257.629C200.47 245.507 166.092 231.417 132.76 215.49ZM16.08 596.307C25.0406 707.008 67.5136 808.24 133.342 889.845C166.492 874.033 200.676 860.036 235.763 847.984C210.419 768.059 195.093 683.675 191.259 596.307H16.08ZM318.851 1037.15C274.156 1015.59 232.897 988.034 196.12 955.521C218.713 945.623 241.796 936.636 265.323 928.607C280.958 966.028 298.858 1002.27 318.851 1037.15ZM908.824 955.228C871.964 987.868 830.592 1015.53 785.762 1037.15C805.808 1002.17 823.75 965.835 839.415 928.309C863.012 936.334 886.164 945.323 908.824 955.228ZM784.969 67.0787C830.41 88.9069 872.312 116.931 909.579 150.055C886.678 160.091 863.274 169.19 839.415 177.304C823.544 139.283 805.335 102.482 784.969 67.0787ZM195.365 149.761C232.549 116.765 274.338 88.8424 319.645 67.0786C299.332 102.389 281.165 139.091 265.323 177.006C241.534 168.888 218.199 159.79 195.365 149.761ZM450.306 23.9631C469.625 20.2554 489.312 17.5812 509.307 16V223.434C454.224 220.782 400.455 213.12 348.446 200.895C375.644 137.809 409.932 78.497 450.306 23.9631ZM596.307 16.08C615.958 17.6706 635.31 20.3173 654.308 23.9631C694.727 78.5584 729.047 137.943 756.259 201.108C704.532 213.209 651.069 220.797 596.307 223.434V16.08ZM972.13 215.835C1037.67 297.501 1079.87 398.697 1088.61 509.307H913.354C909.525 422.051 894.234 337.772 868.948 257.939C904.302 245.834 938.74 231.756 972.13 215.835ZM1088.53 596.307C1079.59 706.853 1037.22 807.956 971.549 889.501C938.34 873.694 904.097 859.709 868.948 847.675C894.234 767.841 909.525 683.562 913.354 596.307H1088.53ZM655.17 1080.48C635.896 1084.22 616.255 1086.92 596.307 1088.53V882.18C651.069 884.816 704.532 892.404 756.259 904.505C729.24 967.221 695.215 1026.21 655.17 1080.48ZM509.307 1088.61C489.015 1087.01 469.04 1084.28 449.444 1080.48C409.443 1026.27 375.45 967.355 348.446 904.718C400.455 892.493 454.224 884.832 509.307 882.18V1088.61ZM277.18 509.307C280.98 430.367 295.069 354.126 318.134 281.895C379.759 297.114 443.691 306.475 509.307 309.354V509.307H277.18ZM596.307 509.307V309.354C661.593 306.489 725.213 297.207 786.552 282.123C809.574 354.286 823.637 430.45 827.434 509.307H596.307ZM596.307 596.307H827.434C823.637 675.163 809.574 751.327 786.552 823.49C725.213 808.406 661.593 799.124 596.307 796.259V596.307ZM509.307 796.259C443.691 799.139 379.759 808.5 318.134 823.719C295.069 751.488 280.98 675.246 277.18 596.307H509.307V796.259Z" fill="black" fill-opacity="0.33"/>
</g>
</g>
<path fill-rule="evenodd" clip-rule="evenodd" d="M120.453 203.186C54.759 284.911 12.4527 386.237 3.69336 497.002H178.953C182.786 409.634 198.112 325.25 223.456 245.325C188.164 233.202 153.786 219.112 120.453 203.186ZM3.77337 584.002C12.734 694.704 55.2069 795.936 121.035 877.541C154.186 861.728 188.369 847.731 223.456 835.679C198.112 755.754 182.786 671.37 178.953 584.002H3.77337ZM306.544 1024.85C261.849 1003.29 220.591 975.729 183.813 943.216C206.406 933.318 229.49 924.331 253.017 916.302C268.652 953.723 286.551 989.962 306.544 1024.85ZM896.518 942.924C859.657 975.563 818.285 1003.22 773.455 1024.85C793.502 989.87 811.443 953.531 827.108 916.004C850.706 924.029 873.858 933.018 896.518 942.924ZM772.662 54.774C818.103 76.6023 860.005 104.626 897.272 137.75C874.372 147.786 850.968 156.885 827.108 165C811.237 126.979 793.028 90.1769 772.662 54.774ZM183.058 137.456C220.243 104.46 262.031 76.5377 307.338 54.7739C287.025 90.0843 268.858 126.786 253.017 164.701C229.228 156.583 205.892 147.485 183.058 137.456ZM437.999 11.6584C457.319 7.95076 477.005 5.27647 497 3.69531V211.129C441.917 208.477 388.148 200.816 336.139 188.591C363.337 125.504 397.625 66.1924 437.999 11.6584ZM584 3.77532C603.651 5.36595 623.004 8.01258 642.001 11.6584C682.421 66.2537 716.74 125.638 743.953 188.804C692.226 200.905 638.762 208.492 584 211.129V3.77532ZM959.824 203.531C1025.36 285.197 1067.56 386.392 1076.31 497.002H901.047C897.219 409.746 881.927 325.468 856.642 245.634C891.995 233.529 926.433 219.451 959.824 203.531ZM1076.23 584.002C1067.28 694.548 1024.91 795.651 959.242 877.196C926.034 861.389 891.79 847.404 856.642 835.37C881.927 755.536 897.219 671.258 901.047 584.002H1076.23ZM642.863 1068.18C623.589 1071.91 603.948 1074.61 584 1076.23V869.875C638.762 872.511 692.226 880.099 743.953 892.2C716.934 954.917 682.909 1013.9 642.863 1068.18ZM497 1076.31C476.708 1074.7 456.733 1071.97 437.137 1068.18C397.137 1013.97 363.143 955.05 336.139 892.413C388.148 880.188 441.917 872.527 497 869.875V1076.31ZM264.873 497.002C268.674 418.062 282.762 341.821 305.828 269.59C367.452 284.809 431.384 294.17 497 297.049V497.002H264.873ZM584 497.002V297.049C649.287 294.185 712.907 284.902 774.245 269.818C797.267 341.982 811.33 418.146 815.127 497.002H584ZM584 584.002H815.127C811.33 662.858 797.267 739.022 774.245 811.185C712.907 796.101 649.287 786.82 584 783.955V584.002ZM497 783.955C431.384 786.834 367.452 796.195 305.828 811.414C282.762 739.183 268.674 662.942 264.873 584.002H497V783.955Z" fill="url(#paint2_linear_168_291)"/>
<defs>
<filter id="filter0_f_168_291" x="-84" y="-84" width="1272.61" height="1272.61" filterUnits="userSpaceOnUse" color-interpolation-filters="sRGB">
<feFlood flood-opacity="0" result="BackgroundImageFix"/>
<feBlend mode="normal" in="SourceGraphic" in2="BackgroundImageFix" result="shape"/>
<feGaussianBlur stdDeviation="50" result="effect1_foregroundBlur_168_291"/>
</filter>
<linearGradient id="paint0_linear_168_291" x1="389.5" y1="171" x2="773.5" y2="1174.5" gradientUnits="userSpaceOnUse">
<stop stop-color="#7B2CBF"/>
<stop offset="1" stop-color="#5A189A"/>
</linearGradient>
<linearGradient id="paint1_linear_168_291" x1="240.5" y1="1.99999" x2="893" y2="1078" gradientUnits="userSpaceOnUse">
<stop stop-color="#7B2CBF"/>
<stop offset="1" stop-color="#5A189A"/>
</linearGradient>
<linearGradient id="paint2_linear_168_291" x1="270.5" y1="-49.5" x2="645.503" y2="1031.5" gradientUnits="userSpaceOnUse">
<stop stop-color="#C77DFF"/>
<stop offset="1" stop-color="#9D4EDD"/>
</linearGradient>
</defs>
</svg>
