<svg width="1080" height="1080" viewBox="0 0 1080 1080" fill="none" xmlns="http://www.w3.org/2000/svg">
<path fill-rule="evenodd" clip-rule="evenodd" d="M485.274 2C475.352 2 466.93 9.27392 465.487 19.0901L451.219 116.11C435.198 119.449 419.501 123.673 404.183 128.728L343.988 51.5523C337.852 43.6857 326.858 41.5438 318.218 46.5321L223.539 101.195C214.946 106.156 211.29 116.666 214.948 125.889L251.224 217.353C239.191 228.13 227.764 239.571 217.002 251.617L125.956 214.745C116.709 211.001 106.117 214.643 101.128 223.283L46.4653 317.962C41.5045 326.555 43.5929 337.485 51.3722 343.643L128.546 404.736C123.542 419.967 119.36 435.572 116.052 451.496L18.7328 465.092C8.85223 466.473 1.5 474.924 1.5 484.9V594.226C1.5 604.148 8.77392 612.57 18.5901 614.013L116.019 628.341C119.332 644.323 123.525 659.982 128.547 675.265L51.3721 736.358C43.5929 742.517 41.5044 753.447 46.4653 762.04L101.128 856.719C106.117 865.359 116.709 869.001 125.956 865.256L217.003 828.384C227.766 840.431 239.193 851.871 251.226 862.649L214.948 954.118C211.29 963.341 214.946 973.851 223.539 978.812L318.218 1033.48C326.858 1038.46 337.852 1036.32 343.988 1028.46L404.188 951.273C419.451 956.311 435.091 960.523 451.053 963.855L464.592 1060.77C465.973 1070.65 474.424 1078 484.4 1078H593.726C603.648 1078 612.07 1070.73 613.513 1060.91L627.75 964.103C643.849 960.79 659.623 956.582 675.016 951.535L735.012 1028.46C741.147 1036.32 752.142 1038.46 760.782 1033.48L855.461 978.812C864.054 973.851 867.71 963.341 864.052 954.118L828.036 863.309C840.241 852.427 851.826 840.865 862.731 828.682L953.044 865.256C962.291 869.001 972.883 865.359 977.872 856.719L1032.53 762.04C1037.5 753.447 1035.41 742.517 1027.63 736.358L951.246 675.893C956.358 660.417 960.62 644.554 963.977 628.36L1060.27 614.908C1070.15 613.527 1077.5 605.076 1077.5 595.1V485.774C1077.5 475.852 1070.23 467.43 1060.41 465.987L964.013 451.811C960.65 435.558 956.376 419.639 951.247 404.108L1027.63 343.643C1035.41 337.485 1037.5 326.555 1032.53 317.962L977.872 223.283C972.883 214.643 962.291 211.001 953.044 214.745L862.732 251.32C851.827 239.137 840.243 227.575 828.038 216.693L864.052 125.889C867.71 116.666 864.054 106.156 855.461 101.195L760.782 46.5321C752.142 41.5438 741.147 43.6857 735.012 51.5523L675.021 128.467C659.68 123.436 643.96 119.24 627.917 115.931L614.408 19.2328C613.027 9.35223 604.576 2 594.6 2H485.274ZM214.066 540C214.066 720.008 359.992 865.934 540 865.934C720.008 865.934 865.934 720.008 865.934 540C865.934 359.992 720.008 214.066 540 214.066C359.992 214.066 214.066 359.992 214.066 540ZM466 312C466 300.954 474.954 292 486 292H591C602.046 292 611 300.954 611 312V467.5H766.5C777.546 467.5 786.5 476.454 786.5 487.5V592.5C786.5 603.546 777.546 612.5 766.5 612.5H611V768C611 779.046 602.046 788 591 788H486C474.954 788 466 779.046 466 768V612.5H310.5C299.454 612.5 290.5 603.546 290.5 592.5V487.5C290.5 476.454 299.454 467.5 310.5 467.5H466V312Z" fill="url(#paint0_linear_211_53)"/>
<defs>
<linearGradient id="paint0_linear_211_53" x1="170" y1="-22" x2="880" y2="1107" gradientUnits="userSpaceOnUse">
<stop stop-color="#55A630"/>
<stop offset="1" stop-color="#019040"/>
</linearGradient>
</defs>
</svg>
