<svg width="1080" height="1080" viewBox="0 0 1080 1080" fill="none" xmlns="http://www.w3.org/2000/svg">
<path fill-rule="evenodd" clip-rule="evenodd" d="M309 200C284.699 200 265 219.699 265 244V692H353V288H480V200H309Z" fill="#B1B1B1"/>
<rect x="396" y="755" width="474" height="89" rx="44.5" fill="#B1B1B1"/>
<path d="M589 513H678V537.5C678 562.077 658.077 582 633.5 582C608.923 582 589 562.077 589 537.5V513Z" fill="#B1B1B1"/>
<path fill-rule="evenodd" clip-rule="evenodd" d="M309 655C217.873 655 144 728.873 144 820V908V1028C144 1055.61 166.386 1078 194 1078H886C913.614 1078 936 1055.61 936 1028V988C936 943.817 900.183 908 856 908H474V820C474 728.873 400.127 655 309 655Z" fill="url(#paint0_linear_117_67)"/>
<g filter="url(#filter0_f_117_67)">
<circle cx="309" cy="814" r="52" fill="black" fill-opacity="0.33"/>
</g>
<circle cx="309" cy="799" r="52" fill="url(#paint1_linear_117_67)"/>
<mask id="mask0_117_67" style="mask-type:alpha" maskUnits="userSpaceOnUse" x="265" y="200" width="413" height="492">
<path fill-rule="evenodd" clip-rule="evenodd" d="M265 244C265 219.699 284.699 200 309 200H480V288H353V692H265V244ZM678 513H589V537.5C589 562.077 608.923 582 633.5 582C658.077 582 678 562.077 678 537.5V513Z" fill="#B3B3B3"/>
</mask>
<g mask="url(#mask0_117_67)">
<g filter="url(#filter1_f_117_67)">
<rect x="480" y="20" width="306" height="511" rx="70" fill="black" fill-opacity="0.33"/>
</g>
</g>
<rect x="480" y="2" width="306" height="511" rx="70" fill="url(#paint2_linear_117_67)"/>
<path d="M480 425H786V443C786 482.212 754.212 514 715 514H551C511.788 514 480 482.212 480 443V425Z" fill="black" fill-opacity="0.25"/>
<defs>
<filter id="filter0_f_117_67" x="197" y="702" width="224" height="224" filterUnits="userSpaceOnUse" color-interpolation-filters="sRGB">
<feFlood flood-opacity="0" result="BackgroundImageFix"/>
<feBlend mode="normal" in="SourceGraphic" in2="BackgroundImageFix" result="shape"/>
<feGaussianBlur stdDeviation="30" result="effect1_foregroundBlur_117_67"/>
</filter>
<filter id="filter1_f_117_67" x="390" y="-70" width="486" height="691" filterUnits="userSpaceOnUse" color-interpolation-filters="sRGB">
<feFlood flood-opacity="0" result="BackgroundImageFix"/>
<feBlend mode="normal" in="SourceGraphic" in2="BackgroundImageFix" result="shape"/>
<feGaussianBlur stdDeviation="45" result="effect1_foregroundBlur_117_67"/>
</filter>
<linearGradient id="paint0_linear_117_67" x1="644.5" y1="762" x2="275.5" y2="1269" gradientUnits="userSpaceOnUse">
<stop stop-color="#52B69A"/>
<stop offset="1" stop-color="#168AAD"/>
</linearGradient>
<linearGradient id="paint1_linear_117_67" x1="327.5" y1="755" x2="291.5" y2="841.5" gradientUnits="userSpaceOnUse">
<stop stop-color="#ECECEC"/>
<stop offset="1" stop-color="#D0D0D0"/>
</linearGradient>
<linearGradient id="paint2_linear_117_67" x1="723.5" y1="52.5" x2="443.5" y2="576" gradientUnits="userSpaceOnUse">
<stop stop-color="#76C893"/>
<stop offset="1" stop-color="#34A0A4"/>
</linearGradient>
</defs>
</svg>
