<svg width="1080" height="1080" viewBox="0 0 1080 1080" fill="none" xmlns="http://www.w3.org/2000/svg">
<path fill-rule="evenodd" clip-rule="evenodd" d="M358 31.9717V221.998C358 238.014 370.984 250.998 387 250.998H694.503C723.716 250.998 734.598 212.685 709.748 197.328L402.245 7.3021C382.925 -4.63716 358 9.26009 358 31.9717Z" fill="#CFCFCF"/>
<rect x="299" y="222" width="483" height="856" rx="80" fill="url(#paint0_linear_86_234)"/>
<mask id="mask0_86_234" style="mask-type:alpha" maskUnits="userSpaceOnUse" x="299" y="222" width="483" height="856">
<rect x="299" y="222" width="483" height="856" rx="80" fill="url(#paint1_linear_86_234)"/>
</mask>
<g mask="url(#mask0_86_234)">
<g filter="url(#filter0_f_86_234)">
<rect x="640" y="418" width="412" height="692" rx="80" fill="black" fill-opacity="0.25"/>
</g>
</g>
<rect x="666" y="386" width="412" height="692" rx="80" fill="url(#paint2_linear_86_234)"/>
<path d="M814 929C814 909.118 830.118 893 850 893H894C913.882 893 930 909.118 930 929V1078H814V929Z" fill="black" fill-opacity="0.25"/>
<rect x="741" y="659" width="105" height="105" rx="30" fill="white" fill-opacity="0.65"/>
<rect x="899" y="659" width="105" height="105" rx="30" fill="white" fill-opacity="0.65"/>
<rect x="741" y="495" width="105" height="105" rx="30" fill="white" fill-opacity="0.65"/>
<rect x="899" y="495" width="105" height="105" rx="30" fill="white" fill-opacity="0.65"/>
<rect x="2" y="547" width="412" height="531" rx="80" fill="url(#paint3_linear_86_234)"/>
<path d="M150 929C150 909.118 166.118 893 186 893H230C249.882 893 266 909.118 266 929V1078H150V929Z" fill="black" fill-opacity="0.25"/>
<rect x="77" y="659" width="105" height="105" rx="30" fill="white" fill-opacity="0.65"/>
<rect x="235" y="659" width="105" height="105" rx="30" fill="white" fill-opacity="0.65"/>
<defs>
<filter id="filter0_f_86_234" x="540" y="318" width="612" height="892" filterUnits="userSpaceOnUse" color-interpolation-filters="sRGB">
<feFlood flood-opacity="0" result="BackgroundImageFix"/>
<feBlend mode="normal" in="SourceGraphic" in2="BackgroundImageFix" result="shape"/>
<feGaussianBlur stdDeviation="50" result="effect1_foregroundBlur_86_234"/>
</filter>
<linearGradient id="paint0_linear_86_234" x1="693" y1="247.5" x2="462" y2="1014.5" gradientUnits="userSpaceOnUse">
<stop stop-color="#E0E0E0"/>
<stop offset="1" stop-color="#D2D2D2"/>
</linearGradient>
<linearGradient id="paint1_linear_86_234" x1="693" y1="247.5" x2="462" y2="1014.5" gradientUnits="userSpaceOnUse">
<stop stop-color="#E0E0E0"/>
<stop offset="1" stop-color="#D2D2D2"/>
</linearGradient>
<linearGradient id="paint2_linear_86_234" x1="934.5" y1="453.5" x2="-90.8847" y2="2279.5" gradientUnits="userSpaceOnUse">
<stop stop-color="#3FC1C0"/>
<stop offset="1" stop-color="#2196F3"/>
</linearGradient>
<linearGradient id="paint3_linear_86_234" x1="442" y1="30.5" x2="77.4396" y2="1168.63" gradientUnits="userSpaceOnUse">
<stop stop-color="#3FC1C0"/>
<stop offset="1" stop-color="#2196F3"/>
</linearGradient>
</defs>
</svg>
