<svg width="1080" height="1080" viewBox="0 0 1080 1080" fill="none" xmlns="http://www.w3.org/2000/svg">
<path d="M158.146 1078H759L740.539 257.145H65.0883C65.0883 257.145 52.0184 460.939 74.4985 565.674C96.9787 670.408 142.246 730.398 158.146 861.304C168.351 945.327 158.146 1078 158.146 1078Z" fill="url(#paint0_linear_506_33)"/>
<path d="M158.146 1078H759L740.539 257.145H65.0883C65.0883 257.145 52.0184 460.939 74.4985 565.674C96.9787 670.408 142.246 730.398 158.146 861.304C168.351 945.327 158.146 1078 158.146 1078Z" fill="url(#paint1_linear_506_33)"/>
<mask id="mask0_506_33" style="mask-type:alpha" maskUnits="userSpaceOnUse" x="61" y="257" width="698" height="821">
<path d="M158.146 1078H759L740.539 257.145H65.0883C65.0883 257.145 52.0184 460.939 74.4985 565.674C96.9787 670.408 142.246 730.398 158.146 861.304C168.351 945.327 158.146 1078 158.146 1078Z" fill="url(#paint2_linear_506_33)"/>
</mask>
<g mask="url(#mask0_506_33)">
<g filter="url(#filter0_f_506_33)">
<path fill-rule="evenodd" clip-rule="evenodd" d="M646.03 361.626C648.591 393.083 650.369 415.782 650.619 421.093C651.665 443.276 609.168 482.685 566.972 490.23C519.418 498.733 465.551 455.145 462.936 438.119C462.84 437.492 462.703 436.404 462.529 434.89C457.535 439.59 407.455 485.824 367.264 488.68C321.733 491.915 272.517 428.081 267.335 421.179C265.179 423.505 217.17 474.803 174.876 477.852C131.6 480.971 85.4783 431.416 81.8187 421.097C78.1592 410.778 55.1562 240.52 58.293 220.914C60.6043 206.468 83.2242 168.1 124.688 147.652C160.327 130.076 231.861 122.887 231.861 122.887L231.913 123.323C233.579 120.973 274.62 63.8985 336.419 55.8098C387.653 49.1039 427.385 63.0323 427.385 63.0323L435.72 150.125C431.176 100.523 427.909 64.5835 427.909 64.5835C427.909 64.5835 444.516 44.8269 462.936 34.1426C500.075 12.6009 569.586 24.3358 587.361 34.1404C602.991 42.7618 606.09 47.7919 616.918 65.3663L616.919 65.3682C618.173 67.4027 619.53 69.6054 621.022 72.0012L620.82 69.2198C620.82 69.2198 632.52 56.2909 658.984 45.4904C697.487 29.7757 755.603 40.3988 790.728 62.5173C812.682 76.3425 821.573 97.0833 821.573 97.0833L839 359.5C839 359.5 783.608 393.309 744.5 393.5C710.631 393.665 660.48 369.093 646.03 361.626Z" fill="black" fill-opacity="0.33"/>
</g>
</g>
<path d="M267.411 401.097L232 103C232 103 160.327 110.076 124.688 127.652C83.2246 148.1 60.6047 186.468 58.2934 200.914C55.1566 220.52 78.1595 390.779 81.8191 401.097C85.4787 411.416 131.6 460.971 174.877 457.852C218.153 454.733 267.411 401.097 267.411 401.097Z" fill="url(#paint3_linear_506_33)"/>
<path d="M462.936 414.509L428 44.5C428 44.5 387.653 29.1071 336.419 35.813C273.32 44.0719 232 103 232 103L266.888 400.58C266.888 400.58 319.135 472.103 367.264 468.683C409.611 465.674 462.936 414.509 462.936 414.509Z" fill="url(#paint4_linear_506_33)"/>
<path d="M650.62 401.093C649.574 378.909 621 49 621 49C605.839 24.7523 605.136 23.945 587.361 14.1404C569.586 4.33582 500.075 -7.39914 462.937 14.1426C444.516 24.8269 427.909 44.5835 427.909 44.5835C427.909 44.5835 460.322 401.093 462.937 418.119C465.551 435.145 519.419 478.733 566.973 470.23C609.168 462.685 651.665 423.276 650.62 401.093Z" fill="url(#paint5_linear_506_33)"/>
<path d="M839 339.5L821.573 77.0833C821.573 77.0833 812.683 56.3425 790.728 42.5173C755.603 20.3988 697.488 9.77569 658.984 25.4904C632.521 36.2909 621 49 621 49L642 339.5C642 339.5 704.567 373.695 744.5 373.5C783.608 373.309 839 339.5 839 339.5Z" fill="url(#paint6_linear_506_33)"/>
<mask id="mask1_506_33" style="mask-type:alpha" maskUnits="userSpaceOnUse" x="58" y="2" width="781" height="1076">
<path fill-rule="evenodd" clip-rule="evenodd" d="M743.156 373.494L759 1078H158.146C158.146 1078 168.351 945.327 158.146 861.304C148.834 784.638 129.449 732.296 110.468 681.044C97.0396 644.784 83.813 609.07 74.4985 565.674C56.1584 480.227 61.48 328.848 64.0621 275.989C59.9183 240.182 57.0486 208.692 58.293 200.914C60.6043 186.468 83.2242 148.1 124.688 127.652C160.327 110.076 231.861 102.887 231.861 102.887L231.913 103.323C233.579 100.973 274.62 43.8985 336.419 35.8098C387.653 29.1039 427.385 43.0323 427.385 43.0323L435.72 130.125C431.176 80.523 427.909 44.5835 427.909 44.5835C427.909 44.5835 444.516 24.8269 462.936 14.1426C500.075 -7.39914 569.586 4.33582 587.361 14.1404C602.991 22.7618 606.09 27.7919 616.918 45.3663L616.919 45.3682L616.951 45.4198C618.196 47.44 619.543 49.6257 621.022 52.0012L620.82 49.2198C620.82 49.2198 632.52 36.2909 658.984 25.4904C697.487 9.77569 755.603 20.3988 790.728 42.5173C812.682 56.3425 821.573 77.0833 821.573 77.0833L839 339.5C839 339.5 783.608 373.309 744.5 373.5C744.054 373.502 743.606 373.5 743.156 373.494Z" fill="url(#paint7_linear_506_33)"/>
</mask>
<g mask="url(#mask1_506_33)">
<g filter="url(#filter1_f_506_33)">
<path d="M988.45 639.41C988.45 739.501 713.983 965.479 694.64 1013.98C675.297 1062.48 524.129 925.845 509.571 818.955C499.895 747.913 508.04 709.363 548.78 650.02C589.256 591.061 703.669 542.52 703.669 542.52C703.669 542.52 722.49 513.912 703.669 485.02C684.848 456.127 590.604 416.01 548.78 424.781C506.957 433.551 451.389 366.383 465.133 317.467C473.145 288.952 509.571 270 509.571 270C509.571 270 856.183 271.549 900.621 301.989C945.058 332.429 988.45 539.32 988.45 639.41Z" fill="url(#paint8_linear_506_33)" fill-opacity="0.33"/>
</g>
</g>
<path d="M1021.28 556.391C1021.28 656.481 746.814 882.46 727.471 930.959C708.128 979.458 497.559 846.391 483 739.5C473.324 668.458 450.111 646.388 483 590.5C533.095 505.371 704.5 451 720.5 448C736.5 445 755.321 430.892 736.5 402C717.679 373.108 654 333.5 591.5 338C529 342.5 484.22 283.364 497.964 234.448C505.976 205.933 522.5 191.705 542.402 186.981C594.999 174.494 889.014 188.529 933.452 218.97C977.889 249.41 1021.28 456.301 1021.28 556.391Z" fill="url(#paint9_linear_506_33)"/>
<defs>
<filter id="filter0_f_506_33" x="-162" y="-198" width="1221" height="909.316" filterUnits="userSpaceOnUse" color-interpolation-filters="sRGB">
<feFlood flood-opacity="0" result="BackgroundImageFix"/>
<feBlend mode="normal" in="SourceGraphic" in2="BackgroundImageFix" result="shape"/>
<feGaussianBlur stdDeviation="110" result="effect1_foregroundBlur_506_33"/>
</filter>
<filter id="filter1_f_506_33" x="313" y="120" width="825.45" height="1054.05" filterUnits="userSpaceOnUse" color-interpolation-filters="sRGB">
<feFlood flood-opacity="0" result="BackgroundImageFix"/>
<feBlend mode="normal" in="SourceGraphic" in2="BackgroundImageFix" result="shape"/>
<feGaussianBlur stdDeviation="75" result="effect1_foregroundBlur_506_33"/>
</filter>
<linearGradient id="paint0_linear_506_33" x1="454" y1="393.5" x2="514.5" y2="612" gradientUnits="userSpaceOnUse">
<stop stop-color="#E47513"/>
<stop offset="1" stop-color="#F58D19"/>
</linearGradient>
<linearGradient id="paint1_linear_506_33" x1="458" y1="389.5" x2="459.5" y2="1040" gradientUnits="userSpaceOnUse">
<stop stop-color="#E47513" stop-opacity="0"/>
<stop offset="0.840821" stop-color="#F58D19" stop-opacity="0"/>
<stop offset="1" stop-color="#ED7F01"/>
</linearGradient>
<linearGradient id="paint2_linear_506_33" x1="332.5" y1="370" x2="583.5" y2="705" gradientUnits="userSpaceOnUse">
<stop stop-color="#E47513"/>
<stop offset="1" stop-color="#F58D19"/>
</linearGradient>
<linearGradient id="paint3_linear_506_33" x1="254" y1="140.5" x2="96.5" y2="411" gradientUnits="userSpaceOnUse">
<stop stop-color="#FFEA00"/>
<stop offset="1" stop-color="#F58D19"/>
</linearGradient>
<linearGradient id="paint4_linear_506_33" x1="463" y1="59.5" x2="275.5" y2="400" gradientUnits="userSpaceOnUse">
<stop stop-color="#FFEA00"/>
<stop offset="1" stop-color="#F58D19"/>
</linearGradient>
<linearGradient id="paint5_linear_506_33" x1="616.5" y1="38" x2="490.5" y2="351" gradientUnits="userSpaceOnUse">
<stop stop-color="#FFEA00"/>
<stop offset="1" stop-color="#F58D19"/>
</linearGradient>
<linearGradient id="paint6_linear_506_33" x1="839" y1="18" x2="730" y2="373" gradientUnits="userSpaceOnUse">
<stop stop-color="#FFEA00"/>
<stop offset="1" stop-color="#F58D19"/>
</linearGradient>
<linearGradient id="paint7_linear_506_33" x1="802.5" y1="-43" x2="710" y2="342" gradientUnits="userSpaceOnUse">
<stop stop-color="#FFEA00"/>
<stop offset="1" stop-color="#F58D19"/>
</linearGradient>
<linearGradient id="paint8_linear_506_33" x1="725.725" y1="270" x2="595" y2="779.5" gradientUnits="userSpaceOnUse">
<stop/>
<stop offset="1" stop-opacity="0"/>
</linearGradient>
<linearGradient id="paint9_linear_506_33" x1="791" y1="133" x2="449.5" y2="696.5" gradientUnits="userSpaceOnUse">
<stop stop-color="#FFEA00"/>
<stop offset="1" stop-color="#F58D19"/>
</linearGradient>
</defs>
</svg>
