<svg width="1080" height="1080" viewBox="0 0 1080 1080" fill="none" xmlns="http://www.w3.org/2000/svg">
<path d="M98 519H982V978C982 1033.23 937.228 1078 882 1078H198C142.772 1078 98 1033.23 98 978V519Z" fill="url(#paint0_linear_352_29)"/>
<mask id="mask0_352_29" style="mask-type:alpha" maskUnits="userSpaceOnUse" x="98" y="519" width="884" height="559">
<path d="M98 519H982V978C982 1033.23 937.228 1078 882 1078H198C142.772 1078 98 1033.23 98 978V519Z" fill="#8B5E34"/>
</mask>
<g mask="url(#mask0_352_29)">
<g filter="url(#filter0_f_352_29)">
<path d="M2 302C2 246.772 46.7715 202 102 202H978C1033.23 202 1078 246.772 1078 302V422C1078 532.457 988.457 622 878 622H202C91.5431 622 2 532.457 2 422V302Z" fill="black" fill-opacity="0.33"/>
</g>
</g>
<path fill-rule="evenodd" clip-rule="evenodd" d="M365 2C309.772 2 265 46.7715 265 102V179H392V139C392 120.775 406.775 106 425 106H654C672.225 106 687 120.775 687 139V179H814V102C814 46.7715 769.228 2 714 2H365Z" fill="url(#paint1_linear_352_29)"/>
<path d="M2 279C2 223.772 46.7715 179 102 179H978C1033.23 179 1078 223.772 1078 279V399C1078 509.457 988.457 599 878 599H202C91.5431 599 2 509.457 2 399V279Z" fill="url(#paint2_linear_352_29)"/>
<rect x="426" y="179" width="228" height="420" fill="url(#paint3_linear_352_29)"/>
<g filter="url(#filter1_f_352_29)">
<rect x="384" y="540" width="312" height="146" rx="73" fill="black" fill-opacity="0.33"/>
</g>
<rect x="384" y="519" width="312" height="146" rx="73" fill="url(#paint4_linear_352_29)"/>
<defs>
<filter id="filter0_f_352_29" x="-98" y="102" width="1276" height="620" filterUnits="userSpaceOnUse" color-interpolation-filters="sRGB">
<feFlood flood-opacity="0" result="BackgroundImageFix"/>
<feBlend mode="normal" in="SourceGraphic" in2="BackgroundImageFix" result="shape"/>
<feGaussianBlur stdDeviation="50" result="effect1_foregroundBlur_352_29"/>
</filter>
<filter id="filter1_f_352_29" x="284" y="440" width="512" height="346" filterUnits="userSpaceOnUse" color-interpolation-filters="sRGB">
<feFlood flood-opacity="0" result="BackgroundImageFix"/>
<feBlend mode="normal" in="SourceGraphic" in2="BackgroundImageFix" result="shape"/>
<feGaussianBlur stdDeviation="50" result="effect1_foregroundBlur_352_29"/>
</filter>
<linearGradient id="paint0_linear_352_29" x1="626.5" y1="628.5" x2="782.059" y2="1121.99" gradientUnits="userSpaceOnUse">
<stop stop-color="#8B5E34"/>
<stop offset="1" stop-color="#6F4518"/>
</linearGradient>
<linearGradient id="paint1_linear_352_29" x1="539.5" y1="2" x2="581" y2="307" gradientUnits="userSpaceOnUse">
<stop stop-color="#E7BC91"/>
<stop offset="1" stop-color="#D4A276"/>
</linearGradient>
<linearGradient id="paint2_linear_352_29" x1="489.5" y1="84" x2="645.095" y2="634.368" gradientUnits="userSpaceOnUse">
<stop stop-color="#D4A276"/>
<stop offset="1" stop-color="#A47148"/>
</linearGradient>
<linearGradient id="paint3_linear_352_29" x1="448" y1="101.5" x2="464.012" y2="559.057" gradientUnits="userSpaceOnUse">
<stop stop-color="#A47148"/>
<stop offset="1" stop-color="#8B5E34"/>
</linearGradient>
<linearGradient id="paint4_linear_352_29" x1="493" y1="519" x2="540" y2="665" gradientUnits="userSpaceOnUse">
<stop stop-color="#F3D5B5"/>
<stop offset="1" stop-color="#E7BC91"/>
</linearGradient>
</defs>
</svg>
