<svg width="1080" height="1080" viewBox="0 0 1080 1080" fill="none" xmlns="http://www.w3.org/2000/svg">
<path d="M718.517 170.148C695.008 184.614 674.811 203.871 659.242 226.665C643.672 249.458 633.079 275.276 628.154 302.436C623.228 329.596 624.08 357.489 630.654 384.299C637.228 411.108 649.377 436.231 666.308 458.031L821.5 337.5L718.517 170.148Z" fill="#686868"/>
<path d="M982.676 449.904C1006.67 415.503 1019.02 374.33 1017.93 332.404C1016.85 290.479 1002.37 250.001 976.631 216.891C950.89 183.781 915.229 159.776 874.866 148.386C834.503 136.995 791.554 138.818 752.302 153.587L821.5 337.5L982.676 449.904Z" fill="#686868"/>
<mask id="mask0_145_55" style="mask-type:alpha" maskUnits="userSpaceOnUse" x="625" y="141" width="393" height="318">
<path fill-rule="evenodd" clip-rule="evenodd" d="M1017.93 332.404C1019.02 374.33 1006.67 415.503 982.676 449.904L821.5 337.5L752.302 153.587C791.555 138.818 834.503 136.995 874.866 148.386C915.229 159.776 950.89 183.781 976.631 216.891C1002.37 250.001 1016.85 290.479 1017.93 332.404ZM659.242 226.665C674.811 203.871 695.008 184.614 718.517 170.148L821.5 337.5L666.308 458.031C649.377 436.231 637.228 411.108 630.654 384.299C624.08 357.49 623.228 329.596 628.154 302.436C633.079 275.276 643.672 249.458 659.242 226.665Z" fill="#686868"/>
</mask>
<g mask="url(#mask0_145_55)">
<g filter="url(#filter0_f_145_55)">
<circle cx="821.143" cy="344.37" r="127.37" fill="black" fill-opacity="0.6"/>
</g>
</g>
<path fill-rule="evenodd" clip-rule="evenodd" d="M821.143 471.74C891.487 471.74 948.513 414.714 948.513 344.37C948.513 274.025 891.487 217 821.143 217C750.798 217 693.773 274.025 693.773 344.37C693.773 414.714 750.798 471.74 821.143 471.74ZM785.642 519.203C663.233 519.203 564 618.435 564 740.845C564 808.564 618.897 863.462 686.617 863.462H955.068C1022.79 863.462 1077.68 808.564 1077.68 740.845C1077.68 618.435 978.452 519.203 856.043 519.203H785.642Z" fill="url(#paint0_linear_145_55)"/>
<mask id="mask1_145_55" style="mask-type:alpha" maskUnits="userSpaceOnUse" x="564" y="217" width="514" height="647">
<path fill-rule="evenodd" clip-rule="evenodd" d="M821.143 471.74C891.487 471.74 948.513 414.714 948.513 344.37C948.513 274.025 891.487 217 821.143 217C750.798 217 693.773 274.025 693.773 344.37C693.773 414.714 750.798 471.74 821.143 471.74ZM785.642 519.203C663.233 519.203 564 618.435 564 740.845C564 808.564 618.897 863.462 686.617 863.462H955.068C1022.79 863.462 1077.68 808.564 1077.68 740.845C1077.68 618.435 978.452 519.203 856.043 519.203H785.642Z" fill="url(#paint1_linear_145_55)"/>
</mask>
<g mask="url(#mask1_145_55)">
<g filter="url(#filter1_f_145_55)">
<path fill-rule="evenodd" clip-rule="evenodd" d="M317.033 456.089C403.215 456.089 473.078 386.226 473.078 300.045C473.078 213.864 403.215 144 317.033 144C230.852 144 160.989 213.864 160.989 300.045C160.989 386.226 230.852 456.089 317.033 456.089ZM273.54 514.238C123.573 514.238 2 635.811 2 785.778C2 868.743 69.2566 936 152.222 936H481.109C564.074 936 631.331 868.743 631.331 785.778C631.331 635.811 509.758 514.238 359.79 514.238H273.54Z" fill="black" fill-opacity="0.33"/>
</g>
</g>
<path fill-rule="evenodd" clip-rule="evenodd" d="M317.033 456.089C403.215 456.089 473.078 386.226 473.078 300.045C473.078 213.864 403.215 144 317.033 144C230.852 144 160.989 213.864 160.989 300.045C160.989 386.226 230.852 456.089 317.033 456.089ZM273.54 514.238C123.573 514.238 2 635.811 2 785.778C2 868.743 69.2566 936 152.222 936H481.109C564.074 936 631.331 868.743 631.331 785.778C631.331 635.811 509.758 514.238 359.79 514.238H273.54Z" fill="url(#paint2_linear_145_55)"/>
<mask id="mask2_145_55" style="mask-type:alpha" maskUnits="userSpaceOnUse" x="160" y="144" width="314" height="313">
<circle cx="317.033" cy="300.045" r="156.045" fill="#C4C4C4"/>
</mask>
<g mask="url(#mask2_145_55)">
<g filter="url(#filter2_f_145_55)">
<path fill-rule="evenodd" clip-rule="evenodd" d="M291.435 300C284.534 332.565 255.621 357 221 357C181.235 357 149 324.765 149 285C149 245.235 181.235 213 221 213C255.621 213 284.534 237.435 291.435 270H343.565C350.466 237.435 379.379 213 414 213C453.764 213 486 245.235 486 285C486 324.765 453.764 357 414 357C379.379 357 350.466 332.565 343.565 300H291.435ZM182.574 285C182.574 306.222 199.778 323.426 221 323.426C242.222 323.426 259.426 306.222 259.426 285C259.426 263.778 242.222 246.574 221 246.574C199.778 246.574 182.574 263.778 182.574 285ZM375.574 285C375.574 306.222 392.778 323.426 414 323.426C435.222 323.426 452.426 306.222 452.426 285C452.426 263.778 435.222 246.574 414 246.574C392.778 246.574 375.574 263.778 375.574 285Z" fill="black" fill-opacity="0.25"/>
</g>
</g>
<path fill-rule="evenodd" clip-rule="evenodd" d="M291.435 280C284.534 312.565 255.621 337 221 337C181.235 337 149 304.765 149 265C149 225.235 181.235 193 221 193C255.621 193 284.534 217.435 291.435 250H343.565C350.466 217.435 379.379 193 414 193C453.764 193 486 225.235 486 265C486 304.765 453.764 337 414 337C379.379 337 350.466 312.565 343.565 280H291.435ZM182.574 265C182.574 286.222 199.778 303.426 221 303.426C242.222 303.426 259.426 286.222 259.426 265C259.426 243.778 242.222 226.574 221 226.574C199.778 226.574 182.574 243.778 182.574 265ZM375.574 265C375.574 286.222 392.778 303.426 414 303.426C435.222 303.426 452.426 286.222 452.426 265C452.426 243.778 435.222 226.574 414 226.574C392.778 226.574 375.574 243.778 375.574 265Z" fill="#686868"/>
<defs>
<filter id="filter0_f_145_55" x="603.773" y="127" width="434.74" height="434.738" filterUnits="userSpaceOnUse" color-interpolation-filters="sRGB">
<feFlood flood-opacity="0" result="BackgroundImageFix"/>
<feBlend mode="normal" in="SourceGraphic" in2="BackgroundImageFix" result="shape"/>
<feGaussianBlur stdDeviation="45" result="effect1_foregroundBlur_145_55"/>
</filter>
<filter id="filter1_f_145_55" x="-98" y="44" width="829.33" height="992" filterUnits="userSpaceOnUse" color-interpolation-filters="sRGB">
<feFlood flood-opacity="0" result="BackgroundImageFix"/>
<feBlend mode="normal" in="SourceGraphic" in2="BackgroundImageFix" result="shape"/>
<feGaussianBlur stdDeviation="50" result="effect1_foregroundBlur_145_55"/>
</filter>
<filter id="filter2_f_145_55" x="99" y="163" width="437" height="244" filterUnits="userSpaceOnUse" color-interpolation-filters="sRGB">
<feFlood flood-opacity="0" result="BackgroundImageFix"/>
<feBlend mode="normal" in="SourceGraphic" in2="BackgroundImageFix" result="shape"/>
<feGaussianBlur stdDeviation="25" result="effect1_foregroundBlur_145_55"/>
</filter>
<linearGradient id="paint0_linear_145_55" x1="703" y1="392.5" x2="877.771" y2="879.755" gradientUnits="userSpaceOnUse">
<stop stop-color="#FF9500"/>
<stop offset="1" stop-color="#FF7B00"/>
</linearGradient>
<linearGradient id="paint1_linear_145_55" x1="588.702" y1="281.646" x2="877.771" y2="879.755" gradientUnits="userSpaceOnUse">
<stop stop-color="#168AAD"/>
<stop offset="1" stop-color="#1A759F"/>
</linearGradient>
<linearGradient id="paint2_linear_145_55" x1="255.5" y1="248.5" x2="545" y2="892" gradientUnits="userSpaceOnUse">
<stop stop-color="#FFC300"/>
<stop offset="1" stop-color="#FFAA00"/>
</linearGradient>
</defs>
</svg>
