<svg width="1080" height="1080" viewBox="0 0 1080 1080" fill="none" xmlns="http://www.w3.org/2000/svg">
<path fill-rule="evenodd" clip-rule="evenodd" d="M821.143 471.74C891.487 471.74 948.513 414.714 948.513 344.37C948.513 274.025 891.487 217 821.143 217C750.798 217 693.773 274.025 693.773 344.37C693.773 414.714 750.798 471.74 821.143 471.74ZM785.642 519.203C663.233 519.203 564 618.435 564 740.845C564 808.564 618.897 863.462 686.617 863.462H955.068C1022.79 863.462 1077.68 808.564 1077.68 740.845C1077.68 618.435 978.452 519.203 856.043 519.203H785.642Z" fill="url(#paint0_linear_7_165)"/>
<mask id="mask0_7_165" style="mask-type:alpha" maskUnits="userSpaceOnUse" x="564" y="217" width="514" height="647">
<path fill-rule="evenodd" clip-rule="evenodd" d="M821.143 471.74C891.487 471.74 948.513 414.714 948.513 344.37C948.513 274.025 891.487 217 821.143 217C750.798 217 693.773 274.025 693.773 344.37C693.773 414.714 750.798 471.74 821.143 471.74ZM785.642 519.203C663.233 519.203 564 618.435 564 740.845C564 808.564 618.897 863.462 686.617 863.462H955.068C1022.79 863.462 1077.68 808.564 1077.68 740.845C1077.68 618.435 978.452 519.203 856.043 519.203H785.642Z" fill="url(#paint1_linear_7_165)"/>
</mask>
<g mask="url(#mask0_7_165)">
<g filter="url(#filter0_f_7_165)">
<path fill-rule="evenodd" clip-rule="evenodd" d="M317.033 456.089C403.215 456.089 473.078 386.226 473.078 300.045C473.078 213.864 403.215 144 317.033 144C230.852 144 160.989 213.864 160.989 300.045C160.989 386.226 230.852 456.089 317.033 456.089ZM273.54 514.238C123.573 514.238 2 635.811 2 785.778C2 868.743 69.2566 936 152.222 936H481.109C564.074 936 631.331 868.743 631.331 785.778C631.331 635.811 509.758 514.238 359.79 514.238H273.54Z" fill="black" fill-opacity="0.6"/>
</g>
</g>
<path fill-rule="evenodd" clip-rule="evenodd" d="M317.033 456.089C403.215 456.089 473.078 386.226 473.078 300.045C473.078 213.864 403.215 144 317.033 144C230.852 144 160.989 213.864 160.989 300.045C160.989 386.226 230.852 456.089 317.033 456.089ZM273.54 514.238C123.573 514.238 2 635.811 2 785.778C2 868.743 69.2566 936 152.222 936H481.109C564.074 936 631.331 868.743 631.331 785.778C631.331 635.811 509.758 514.238 359.79 514.238H273.54Z" fill="url(#paint2_linear_7_165)"/>
<defs>
<filter id="filter0_f_7_165" x="-98" y="44" width="829.332" height="992" filterUnits="userSpaceOnUse" color-interpolation-filters="sRGB">
<feFlood flood-opacity="0" result="BackgroundImageFix"/>
<feBlend mode="normal" in="SourceGraphic" in2="BackgroundImageFix" result="shape"/>
<feGaussianBlur stdDeviation="50" result="effect1_foregroundBlur_7_165"/>
</filter>
<linearGradient id="paint0_linear_7_165" x1="588.702" y1="281.646" x2="877.771" y2="879.755" gradientUnits="userSpaceOnUse">
<stop stop-color="#168AAD"/>
<stop offset="1" stop-color="#1A759F"/>
</linearGradient>
<linearGradient id="paint1_linear_7_165" x1="588.702" y1="281.646" x2="877.771" y2="879.755" gradientUnits="userSpaceOnUse">
<stop stop-color="#168AAD"/>
<stop offset="1" stop-color="#1A759F"/>
</linearGradient>
<linearGradient id="paint2_linear_7_165" x1="133" y1="265" x2="548.5" y2="979" gradientUnits="userSpaceOnUse">
<stop stop-color="#76C893"/>
<stop offset="1" stop-color="#34A0A4"/>
</linearGradient>
</defs>
</svg>
