<svg width="1080" height="1080" viewBox="0 0 1080 1080" fill="none" xmlns="http://www.w3.org/2000/svg">
<rect x="2" y="2" width="1076" height="1076" rx="130" fill="url(#paint0_linear_69_149)"/>
<rect x="91" y="96" width="898" height="641" rx="63" fill="black" fill-opacity="0.33"/>
<rect x="91" y="825" width="898" height="110" rx="55" fill="black" fill-opacity="0.33"/>
<rect x="91" y="825" width="625" height="110" rx="55" fill="url(#paint1_linear_69_149)"/>
<g filter="url(#filter0_f_69_149)">
<path fill-rule="evenodd" clip-rule="evenodd" d="M405 525.923C405 562.43 444.138 585.574 476.127 567.984L691.506 449.557C724.669 431.321 724.669 383.67 691.506 365.435L476.127 247.007C444.138 229.418 405 252.562 405 289.068V525.923Z" fill="black" fill-opacity="0.6"/>
</g>
<g filter="url(#filter1_f_69_149)">
<circle cx="716" cy="880" r="99" fill="black" fill-opacity="0.6"/>
</g>
<path fill-rule="evenodd" clip-rule="evenodd" d="M405 525.923C405 562.43 444.138 585.574 476.127 567.984L691.506 449.557C724.669 431.321 724.669 383.67 691.506 365.435L476.127 247.007C444.138 229.418 405 252.562 405 289.068V525.923Z" fill="white"/>
<circle cx="716" cy="880" r="99" fill="white"/>
<defs>
<filter id="filter0_f_69_149" x="325" y="161" width="471.379" height="492.992" filterUnits="userSpaceOnUse" color-interpolation-filters="sRGB">
<feFlood flood-opacity="0" result="BackgroundImageFix"/>
<feBlend mode="normal" in="SourceGraphic" in2="BackgroundImageFix" result="shape"/>
<feGaussianBlur stdDeviation="40" result="effect1_foregroundBlur_69_149"/>
</filter>
<filter id="filter1_f_69_149" x="537" y="701" width="358" height="358" filterUnits="userSpaceOnUse" color-interpolation-filters="sRGB">
<feFlood flood-opacity="0" result="BackgroundImageFix"/>
<feBlend mode="normal" in="SourceGraphic" in2="BackgroundImageFix" result="shape"/>
<feGaussianBlur stdDeviation="40" result="effect1_foregroundBlur_69_149"/>
</filter>
<linearGradient id="paint0_linear_69_149" x1="1078" y1="-121.5" x2="76.5" y2="1212" gradientUnits="userSpaceOnUse">
<stop stop-color="#9556CC"/>
<stop offset="1" stop-color="#5A189A"/>
</linearGradient>
<linearGradient id="paint1_linear_69_149" x1="497.5" y1="880" x2="142.5" y2="880" gradientUnits="userSpaceOnUse">
<stop stop-color="#FF9E00"/>
<stop offset="1" stop-color="#FF8500"/>
</linearGradient>
</defs>
</svg>
