<svg width="1080" height="1080" viewBox="0 0 1080 1080" fill="none" xmlns="http://www.w3.org/2000/svg">
<path d="M2 556H437V871H122C55.7258 871 2 817.274 2 751V556Z" fill="#A71E34"/>
<path d="M437 556H871V751C871 817.274 817.274 871 751 871H437V556Z" fill="#85182A"/>
<path d="M2 122C2 55.7258 55.7258 2 122 2H751C817.274 2 871 55.7258 871 122V241H2V122Z" fill="url(#paint0_linear_73_319)"/>
<rect x="201" y="73" width="472" height="97" rx="48.5" fill="#F12842"/>
<rect x="2" y="241" width="435" height="315" fill="#E01E37"/>
<rect x="437" y="241" width="434" height="315" fill="#BD1F36"/>
<mask id="mask0_73_319" style="mask-type:alpha" maskUnits="userSpaceOnUse" x="2" y="241" width="869" height="630">
<path fill-rule="evenodd" clip-rule="evenodd" d="M2 241H437H871V556V751C871 817.274 817.274 871 751 871H437H122C55.7258 871 2 817.274 2 751V556V241Z" fill="#BD1F36"/>
</mask>
<g mask="url(#mask0_73_319)">
<g filter="url(#filter0_f_73_319)">
<circle cx="724" cy="797" r="305" fill="black" fill-opacity="0.6"/>
</g>
</g>
<circle cx="773" cy="773" r="305" fill="url(#paint1_linear_73_319)"/>
<path fill-rule="evenodd" clip-rule="evenodd" d="M772.657 769.475C773.668 771.157 774.898 772.743 776.349 774.194C785.93 783.775 801.464 783.775 811.046 774.194L907.192 678.047C916.773 668.466 916.773 652.931 907.192 643.35C897.611 633.769 882.076 633.769 872.495 643.35L776.349 739.497C770.432 745.413 768.169 753.599 769.559 761.252C765.43 754.504 757.991 750.001 749.5 750.001H556.5C543.521 750.001 533 760.522 533 773.501C533 786.48 543.521 797.001 556.5 797.001H749.5C762.479 797.001 773 786.48 773 773.501C773 772.128 772.882 770.783 772.657 769.475Z" fill="white"/>
<g filter="url(#filter1_d_73_319)">
<circle cx="773.375" cy="773.375" r="43.1958" fill="url(#paint2_linear_73_319)"/>
</g>
<defs>
<filter id="filter0_f_73_319" x="319" y="392" width="810" height="810" filterUnits="userSpaceOnUse" color-interpolation-filters="sRGB">
<feFlood flood-opacity="0" result="BackgroundImageFix"/>
<feBlend mode="normal" in="SourceGraphic" in2="BackgroundImageFix" result="shape"/>
<feGaussianBlur stdDeviation="50" result="effect1_foregroundBlur_73_319"/>
</filter>
<filter id="filter1_d_73_319" x="704.18" y="721.18" width="130.391" height="130.391" filterUnits="userSpaceOnUse" color-interpolation-filters="sRGB">
<feFlood flood-opacity="0" result="BackgroundImageFix"/>
<feColorMatrix in="SourceAlpha" type="matrix" values="0 0 0 0 0 0 0 0 0 0 0 0 0 0 0 0 0 0 127 0" result="hardAlpha"/>
<feMorphology radius="1" operator="dilate" in="SourceAlpha" result="effect1_dropShadow_73_319"/>
<feOffset dx="-4" dy="13"/>
<feGaussianBlur stdDeviation="10.5"/>
<feComposite in2="hardAlpha" operator="out"/>
<feColorMatrix type="matrix" values="0 0 0 0 0 0 0 0 0 0 0 0 0 0 0 0 0 0 0.25 0"/>
<feBlend mode="normal" in2="BackgroundImageFix" result="effect1_dropShadow_73_319"/>
<feBlend mode="normal" in="SourceGraphic" in2="effect1_dropShadow_73_319" result="shape"/>
</filter>
<linearGradient id="paint0_linear_73_319" x1="388.043" y1="-86.4139" x2="458.575" y2="250.805" gradientUnits="userSpaceOnUse">
<stop stop-color="#A71E34"/>
<stop offset="1" stop-color="#85182A"/>
</linearGradient>
<linearGradient id="paint1_linear_73_319" x1="917.5" y1="650.5" x2="592" y2="1038" gradientUnits="userSpaceOnUse">
<stop stop-color="#F42741"/>
<stop offset="1" stop-color="#BD1F36"/>
</linearGradient>
<linearGradient id="paint2_linear_73_319" x1="817" y1="684" x2="750.5" y2="881.5" gradientUnits="userSpaceOnUse">
<stop stop-color="#E9E9E9"/>
<stop offset="1" stop-color="#8A8A8A"/>
</linearGradient>
</defs>
</svg>
