<svg width="1080" height="1080" viewBox="0 0 1080 1080" fill="none" xmlns="http://www.w3.org/2000/svg">
<path fill-rule="evenodd" clip-rule="evenodd" d="M735 671C735 646.699 715.301 627 691 627H390C365.699 627 346 646.699 346 671V1033.55C346 1070.21 388.201 1090.8 417.089 1068.23L515.088 991.662C531.006 979.225 553.348 979.225 569.266 991.662L663.911 1065.61C692.799 1088.18 735 1067.59 735 1030.93V671Z" fill="url(#paint0_linear_364_534)"/>
<mask id="mask0_364_534" style="mask-type:alpha" maskUnits="userSpaceOnUse" x="346" y="627" width="389" height="451">
<path fill-rule="evenodd" clip-rule="evenodd" d="M735 671C735 646.699 715.301 627 691 627H390C365.699 627 346 646.699 346 671V1033.55C346 1070.21 388.201 1090.8 417.089 1068.23L515.088 991.662C531.006 979.225 553.348 979.225 569.266 991.662L663.911 1065.61C692.799 1088.18 735 1067.59 735 1030.93V671Z" fill="#FF8500"/>
</mask>
<g mask="url(#mask0_364_534)">
<g filter="url(#filter0_f_364_534)">
<path fill-rule="evenodd" clip-rule="evenodd" d="M600.213 71.3937C566.186 40.2021 513.96 40.2021 479.933 71.3937L414.315 131.545C401.4 143.383 385.279 151.147 367.971 153.863L280.03 167.662C234.429 174.817 201.866 215.65 205.037 261.7L211.153 350.507C212.356 367.985 208.375 385.429 199.707 400.654L155.665 478.013C132.827 518.127 144.449 569.044 182.43 595.277L255.675 645.865C270.09 655.822 281.246 669.811 287.745 686.081L320.767 768.746C337.89 811.612 384.945 834.272 429.135 820.933L514.354 795.21C531.126 790.147 549.02 790.147 565.792 795.21L651.011 820.933C695.201 834.272 742.256 811.612 759.379 768.746L792.401 686.081C798.9 669.811 810.056 655.822 824.471 645.865L897.716 595.277C935.697 569.044 947.319 518.127 924.481 478.013L880.439 400.654C871.771 385.429 867.79 367.985 868.993 350.507L875.109 261.7C878.28 215.65 845.717 174.817 800.116 167.662L712.175 153.863C694.867 151.147 678.746 143.383 665.831 131.545L600.213 71.3937Z" fill="black" fill-opacity="0.33"/>
</g>
</g>
<path fill-rule="evenodd" clip-rule="evenodd" d="M600.104 25.2765C566.077 -5.91511 513.85 -5.91507 479.824 25.2765L414.205 85.4277C401.291 97.2662 385.169 105.03 367.862 107.746L279.921 121.545C234.319 128.7 201.756 169.532 204.928 215.583L211.043 304.389C212.247 321.868 208.265 339.312 199.597 354.537L155.556 431.895C132.718 472.01 144.339 522.927 182.321 549.16L255.565 599.748C269.981 609.704 281.137 623.694 287.636 639.964L320.658 722.629C337.781 765.495 384.836 788.155 429.026 774.816L514.245 749.093C531.017 744.03 548.91 744.03 565.682 749.093L650.901 774.816C695.092 788.155 742.146 765.495 759.27 722.629L792.291 639.964C798.79 623.694 809.947 609.704 824.362 599.748L897.607 549.16C935.588 522.927 947.209 472.01 924.371 431.895L880.33 354.537C871.662 339.312 867.68 321.868 868.884 304.389L875 215.583C878.171 169.532 845.608 128.7 800.006 121.545L712.066 107.746C694.758 105.03 678.637 97.2661 665.722 85.4277L600.104 25.2765Z" fill="url(#paint1_linear_364_534)"/>
<circle cx="540.5" cy="412.5" r="210.5" fill="url(#paint2_linear_364_534)"/>
<defs>
<filter id="filter0_f_364_534" x="44" y="-52" width="992.146" height="976.748" filterUnits="userSpaceOnUse" color-interpolation-filters="sRGB">
<feFlood flood-opacity="0" result="BackgroundImageFix"/>
<feBlend mode="normal" in="SourceGraphic" in2="BackgroundImageFix" result="shape"/>
<feGaussianBlur stdDeviation="50" result="effect1_foregroundBlur_364_534"/>
</filter>
<linearGradient id="paint0_linear_364_534" x1="615.5" y1="705.5" x2="437" y2="1041" gradientUnits="userSpaceOnUse">
<stop stop-color="#42A5F5"/>
<stop offset="1" stop-color="#3FC1C0"/>
</linearGradient>
<linearGradient id="paint1_linear_364_534" x1="661.5" y1="94" x2="367.5" y2="670" gradientUnits="userSpaceOnUse">
<stop stop-color="#FFB700"/>
<stop offset="1" stop-color="#FF8800"/>
</linearGradient>
<linearGradient id="paint2_linear_364_534" x1="592" y1="276" x2="456.5" y2="585" gradientUnits="userSpaceOnUse">
<stop stop-color="#FFEA00"/>
<stop offset="1" stop-color="#FFDD00"/>
</linearGradient>
</defs>
</svg>
