<svg width="1080" height="1080" viewBox="0 0 1080 1080" fill="none" xmlns="http://www.w3.org/2000/svg">
<path d="M565.55 979.18L812.719 729.417L754.834 672.18L500.719 913.27L565.55 979.18Z" fill="#D38D00"/>
<path fill-rule="evenodd" clip-rule="evenodd" d="M22.852 429.523L115.81 521.182L115.438 521.555L155.936 726.824L427.394 978.826L427.281 978.94L513.028 1064.32C531.814 1083.02 562.215 1082.96 580.93 1064.19L588.763 1056.33C607.478 1037.55 607.421 1007.17 588.635 988.467L522.64 922.757L528.665 916.579L606.109 993.688C624.894 1012.39 655.295 1012.33 674.01 993.56L679.079 988.474C697.794 969.699 697.737 939.315 678.951 920.611L600.71 842.708L606.297 836.979L696.646 926.937C715.432 945.641 745.833 945.584 764.548 926.808L772.453 918.878C791.168 900.103 791.11 869.72 772.325 851.015L681.147 760.232L685.949 755.308L761.039 830.072C779.824 848.776 810.225 848.719 828.94 829.944L837.064 821.794C855.779 803.019 855.721 772.635 836.936 753.931L761.016 678.34L761.099 678.254L520.423 437.135L564.392 303.565L387.394 249.577L290.301 158.853C262.776 133.135 219.835 133.81 193.133 160.382L22.6236 330.06C-4.96366 357.513 -4.86103 402.197 22.852 429.523Z" fill="url(#paint0_linear_98_117)"/>
<mask id="mask0_98_117" style="mask-type:alpha" maskUnits="userSpaceOnUse" x="2" y="140" width="850" height="939">
<path fill-rule="evenodd" clip-rule="evenodd" d="M22.852 429.523L115.81 521.182L115.438 521.555L155.936 726.824L427.394 978.826L427.281 978.94L513.028 1064.32C531.814 1083.02 562.215 1082.96 580.93 1064.19L588.763 1056.33C607.478 1037.55 607.421 1007.17 588.635 988.467L522.64 922.757L528.665 916.579L606.109 993.688C624.894 1012.39 655.295 1012.33 674.01 993.56L679.079 988.474C697.794 969.699 697.737 939.315 678.951 920.611L600.71 842.708L606.297 836.979L696.646 926.937C715.432 945.641 745.833 945.584 764.548 926.808L772.453 918.878C791.168 900.103 791.11 869.72 772.325 851.015L681.147 760.232L685.949 755.308L761.039 830.072C779.824 848.776 810.225 848.719 828.94 829.944L837.064 821.794C855.779 803.019 855.721 772.635 836.936 753.931L761.016 678.34L761.099 678.254L520.423 437.135L564.392 303.565L387.394 249.577L290.301 158.853C262.776 133.135 219.835 133.81 193.133 160.382L22.6236 330.06C-4.96366 357.513 -4.86103 402.197 22.852 429.523Z" fill="url(#paint1_linear_98_117)"/>
</mask>
<g mask="url(#mask0_98_117)">
<g filter="url(#filter0_f_98_117)">
<path fill-rule="evenodd" clip-rule="evenodd" d="M152.201 850.919C165.07 864.593 186.594 865.252 200.275 852.39L255.783 800.207C275.098 782.05 276.027 751.681 257.859 732.376L246.031 719.809C227.862 700.504 197.476 699.574 178.161 717.732L122.653 769.914C108.972 782.776 108.313 804.288 121.183 817.962L152.201 850.919ZM221.233 944.088C234.103 957.763 255.626 958.421 269.308 945.559L352.822 867.049C372.137 848.891 373.066 818.522 354.898 799.217L346.153 789.926C327.985 770.622 297.599 769.692 278.284 787.85L194.769 866.36C181.088 879.222 180.43 900.733 193.299 914.408L221.233 944.088ZM357.707 1018.79C344.026 1031.65 322.502 1030.99 309.633 1017.31L282.459 988.442C269.589 974.768 270.248 953.256 283.929 940.395L340.968 886.773C360.283 868.615 390.67 869.545 408.838 888.849L416.822 897.333C434.991 916.637 434.061 947.006 414.747 965.164L357.707 1018.79ZM391.022 1084.9C403.891 1098.57 425.415 1099.23 439.096 1086.37L478.005 1049.79C497.32 1031.63 498.249 1001.26 480.08 981.959L478.186 979.946C460.018 960.642 429.631 959.712 410.317 977.87L371.408 1014.45C357.727 1027.31 357.068 1048.82 369.938 1062.49L391.022 1084.9Z" fill="black" fill-opacity="0.25"/>
</g>
</g>
<path fill-rule="evenodd" clip-rule="evenodd" d="M140.212 824.329C153.082 838.003 174.605 838.662 188.287 825.8L243.795 773.618C263.11 755.46 264.039 725.091 245.871 705.786L234.043 693.219C215.874 673.914 185.488 672.984 166.173 691.142L110.665 743.325C96.9833 756.186 96.3251 777.698 109.194 791.372L140.212 824.329ZM209.245 917.499C222.114 931.173 243.638 931.831 257.319 918.97L340.834 840.459C360.149 822.301 361.078 791.932 342.909 772.628L334.165 763.337C315.997 744.032 285.61 743.102 266.295 761.26L182.781 839.77C169.1 852.632 168.441 874.144 181.311 887.818L209.245 917.499ZM345.719 992.196C332.037 1005.06 310.514 1004.4 297.644 990.725L270.471 961.852C257.601 948.178 258.259 926.666 271.941 913.805L328.98 860.183C348.295 842.025 378.681 842.955 396.85 862.26L404.834 870.743C423.002 890.047 422.073 920.416 402.758 938.574L345.719 992.196ZM379.034 1058.31C391.903 1071.98 413.427 1072.64 427.108 1059.78L466.017 1023.2C485.331 1005.04 486.261 974.674 468.092 955.369L466.198 953.357C448.029 934.052 417.643 933.122 398.328 951.28L359.42 987.857C345.738 1000.72 345.08 1022.23 357.95 1035.9L379.034 1058.31Z" fill="url(#paint2_linear_98_117)"/>
<g filter="url(#filter1_f_98_117)">
<path fill-rule="evenodd" clip-rule="evenodd" d="M311.319 614.682C335.81 639.28 375.615 639.378 400.227 614.901L516.792 498.978L521.952 504.161C554.684 537.037 607.885 537.168 640.779 504.454L651.709 493.585C672.38 473.027 672.463 439.614 651.893 418.954L625.302 392.245C607.975 374.843 581.522 372.041 561.257 383.876L537.626 360.142C520.091 342.53 491.591 342.459 473.969 359.985L309.387 523.662C284.775 548.139 284.676 587.923 309.167 612.521L311.319 614.682Z" fill="black" fill-opacity="0.25"/>
</g>
<path fill-rule="evenodd" clip-rule="evenodd" d="M701.156 250.598L784.995 166.151C812.111 138.837 856.192 138.539 883.676 165.483L1056.44 334.857C1084.3 362.171 1084.45 406.99 1056.78 434.493L967.539 523.183L967.642 523.289L812.591 729.714L597.709 514.379C565.962 530.945 525.863 525.847 499.272 499.14L494.106 493.951L377.548 609.869C352.936 634.346 313.13 634.247 288.639 609.649L286.488 607.488C261.997 582.89 262.095 543.107 286.707 518.63L451.102 355.139L450.998 355.026L466.04 341.727L700.931 250.368L701.156 250.598Z" fill="url(#paint3_linear_98_117)"/>
<path fill-rule="evenodd" clip-rule="evenodd" d="M518.983 128.778C525.502 149.185 554.377 149.185 560.896 128.778L592.23 30.6949C596.765 16.5011 586.174 2 571.274 2H508.605C493.705 2 483.114 16.5012 487.648 30.6949L518.983 128.778ZM426.431 166.079C445.471 175.899 465.888 155.482 456.068 136.442L408.869 44.9301C402.039 31.6872 384.297 28.922 373.761 39.4582L329.447 83.7719C318.911 94.3081 321.676 112.051 334.919 118.881L426.431 166.079ZM623.397 136.442C613.577 155.482 633.994 175.899 653.034 166.079L744.546 118.881C757.789 112.051 760.554 94.3081 750.018 83.7719L705.704 39.4582C695.168 28.922 677.426 31.6872 670.595 44.9301L623.397 136.442Z" fill="url(#paint4_linear_98_117)"/>
<defs>
<filter id="filter0_f_98_117" x="61.9453" y="654.699" width="481.176" height="490.9" filterUnits="userSpaceOnUse" color-interpolation-filters="sRGB">
<feFlood flood-opacity="0" result="BackgroundImageFix"/>
<feBlend mode="normal" in="SourceGraphic" in2="BackgroundImageFix" result="shape"/>
<feGaussianBlur stdDeviation="25" result="effect1_foregroundBlur_98_117"/>
</filter>
<filter id="filter1_f_98_117" x="240.863" y="296.887" width="476.402" height="386.309" filterUnits="userSpaceOnUse" color-interpolation-filters="sRGB">
<feFlood flood-opacity="0" result="BackgroundImageFix"/>
<feBlend mode="normal" in="SourceGraphic" in2="BackgroundImageFix" result="shape"/>
<feGaussianBlur stdDeviation="25" result="effect1_foregroundBlur_98_117"/>
</filter>
<linearGradient id="paint0_linear_98_117" x1="308" y1="267.5" x2="501.813" y2="937.265" gradientUnits="userSpaceOnUse">
<stop stop-color="#FFAA00"/>
<stop offset="1" stop-color="#FF8800"/>
</linearGradient>
<linearGradient id="paint1_linear_98_117" x1="320.833" y1="11.0687" x2="413.11" y2="1098.38" gradientUnits="userSpaceOnUse">
<stop stop-color="#C9A227"/>
<stop offset="1" stop-color="#A47E1B"/>
</linearGradient>
<linearGradient id="paint2_linear_98_117" x1="395.5" y1="846.5" x2="253.009" y2="1191.8" gradientUnits="userSpaceOnUse">
<stop stop-color="#FAD643"/>
<stop offset="1" stop-color="#FFAA00"/>
</linearGradient>
<linearGradient id="paint3_linear_98_117" x1="632" y1="468" x2="825.071" y2="864.465" gradientUnits="userSpaceOnUse">
<stop stop-color="#FAD643"/>
<stop offset="1" stop-color="#FFAA00"/>
</linearGradient>
<linearGradient id="paint4_linear_98_117" x1="539.732" y1="2" x2="539.732" y2="168.628" gradientUnits="userSpaceOnUse">
<stop stop-color="#E0E0E0"/>
<stop offset="1" stop-color="#C8C8C8"/>
</linearGradient>
</defs>
</svg>
