<svg width="1080" height="1080" viewBox="0 0 1080 1080" fill="none" xmlns="http://www.w3.org/2000/svg">
<circle cx="540" cy="540" r="538" fill="url(#paint0_linear_68_126)"/>
<circle cx="540" cy="540" r="425" fill="black" fill-opacity="0.33"/>
<g filter="url(#filter0_f_68_126)">
<path d="M714.778 720.799C738.085 742.108 739.958 778.831 714.545 797.58C682.339 821.341 645.453 838.398 606.063 847.482C547.992 860.873 487.222 856.3 431.808 834.369C376.394 812.438 328.954 774.184 295.776 724.678C262.597 675.172 245.247 616.752 246.025 557.161C246.803 497.571 265.673 439.624 300.133 391.001C334.592 342.378 383.015 305.376 438.983 284.899C494.95 264.423 555.819 261.438 613.521 276.341C652.66 286.45 689.089 304.465 720.663 329.058C745.578 348.464 742.746 385.125 718.891 405.819C695.035 426.513 659.159 422.914 632.038 406.733C617.431 398.018 601.578 391.373 584.922 387.071C549.665 377.965 512.474 379.789 478.278 392.3C444.081 404.812 414.494 427.42 393.439 457.129C372.384 486.838 360.854 522.244 360.379 558.655C359.903 595.065 370.504 630.76 390.777 661.009C411.049 691.257 440.036 714.63 473.894 728.031C507.752 741.431 544.883 744.225 580.365 736.043C597.128 732.177 613.149 725.948 627.979 717.617C655.513 702.15 691.47 699.489 714.778 720.799Z" fill="black" fill-opacity="0.3"/>
</g>
<path d="M714.778 699.799C738.085 721.108 739.958 757.831 714.545 776.58C682.339 800.341 645.453 817.398 606.063 826.482C547.992 839.873 487.222 835.3 431.808 813.369C376.394 791.438 328.954 753.184 295.776 703.678C262.597 654.172 245.247 595.752 246.025 536.161C246.803 476.571 265.673 418.624 300.133 370.001C334.592 321.378 383.015 284.376 438.983 263.899C494.95 243.423 555.819 240.438 613.521 255.341C652.66 265.45 689.089 283.465 720.663 308.058C745.578 327.464 742.746 364.125 718.891 384.819C695.035 405.513 659.159 401.914 632.038 385.733C617.431 377.018 601.578 370.373 584.922 366.071C549.665 356.965 512.474 358.789 478.278 371.3C444.081 383.812 414.494 406.42 393.439 436.129C372.384 465.838 360.854 501.244 360.379 537.655C359.903 574.065 370.504 609.76 390.777 640.009C411.049 670.257 440.036 693.63 473.894 707.031C507.752 720.431 544.883 723.225 580.365 715.043C597.128 711.177 613.149 704.948 627.979 696.617C655.513 681.15 691.47 678.489 714.778 699.799Z" fill="url(#paint1_linear_68_126)"/>
<defs>
<filter id="filter0_f_68_126" x="166" y="187" width="652.105" height="748" filterUnits="userSpaceOnUse" color-interpolation-filters="sRGB">
<feFlood flood-opacity="0" result="BackgroundImageFix"/>
<feBlend mode="normal" in="SourceGraphic" in2="BackgroundImageFix" result="shape"/>
<feGaussianBlur stdDeviation="40" result="effect1_foregroundBlur_68_126"/>
</filter>
<linearGradient id="paint0_linear_68_126" x1="742" y1="1.99998" x2="385.5" y2="868.5" gradientUnits="userSpaceOnUse">
<stop stop-color="#E01E37"/>
<stop offset="1" stop-color="#A11D33"/>
</linearGradient>
<linearGradient id="paint1_linear_68_126" x1="649.709" y1="246" x2="373.993" y2="819.565" gradientUnits="userSpaceOnUse">
<stop stop-color="white"/>
<stop offset="1" stop-color="#E8E8E8"/>
</linearGradient>
</defs>
</svg>
