<svg width="1080" height="1080" viewBox="0 0 1080 1080" fill="none" xmlns="http://www.w3.org/2000/svg">
<path fill-rule="evenodd" clip-rule="evenodd" d="M1066.25 853.413C1081.87 869.034 1081.87 894.361 1066.25 909.982L909.982 1066.25C894.361 1081.87 869.034 1081.87 853.413 1066.25L13.8876 226.727C-1.73337 211.106 -1.73337 185.779 13.8876 170.158L170.158 13.8876C185.779 -1.73336 211.106 -1.73337 226.727 13.8876L1066.25 853.413Z" fill="#1976D2"/>
<path fill-rule="evenodd" clip-rule="evenodd" d="M902.207 891.484C914.942 904.219 914.942 924.867 902.207 937.601L813.543 1026.27L767.426 980.149L856.09 891.484C868.825 878.75 889.472 878.75 902.207 891.484ZM800.434 789.711C813.169 802.446 813.169 823.093 800.434 835.828L711.769 924.492L665.652 878.375L754.317 789.711C767.052 776.976 787.699 776.976 800.434 789.711ZM698.656 734.05C711.391 721.315 711.391 700.668 698.656 687.933C685.921 675.198 665.274 675.198 652.539 687.933L563.875 776.598L609.992 822.715L698.656 734.05ZM596.883 586.16C609.617 598.895 609.617 619.542 596.883 632.277L508.218 720.941L462.101 674.824L550.766 586.16C563.5 573.425 584.148 573.425 596.883 586.16ZM495.105 530.499C507.84 517.764 507.84 497.117 495.105 484.382C482.37 471.647 461.723 471.647 448.988 484.382L360.323 573.046L406.44 619.163L495.105 530.499ZM393.331 382.609C406.066 395.344 406.066 415.991 393.331 428.726L304.667 517.39L258.55 471.273L347.214 382.609C359.949 369.874 380.597 369.874 393.331 382.609ZM291.554 326.948C304.288 314.213 304.288 293.566 291.554 280.831C278.819 268.096 258.171 268.096 245.437 280.831L156.772 369.495L202.889 415.612L291.554 326.948ZM189.78 179.058C202.515 191.792 202.515 212.44 189.78 225.175L101.116 313.839L54.9989 267.722L143.663 179.058C156.398 166.323 177.045 166.323 189.78 179.058Z" fill="#42A5F5"/>
<mask id="mask0_442_67" style="mask-type:alpha" maskUnits="userSpaceOnUse" x="146" y="146" width="777" height="777">
<rect width="843.083" height="301" rx="40" transform="matrix(-0.707107 -0.707107 -0.707107 0.707107 938.84 726)" fill="#C4C4C4"/>
</mask>
<g mask="url(#mask0_442_67)">
<g filter="url(#filter0_f_442_67)">
<path fill-rule="evenodd" clip-rule="evenodd" d="M807.235 117.001L1020.07 329.84L354.839 995.075L141.999 782.236L807.235 117.001Z" fill="black" fill-opacity="0.36"/>
</g>
</g>
<path fill-rule="evenodd" clip-rule="evenodd" d="M789.45 78.2234L1002.29 291.062L318.9 974.451L106.061 761.612L789.45 78.2234Z" fill="url(#paint0_linear_442_67)"/>
<path fill-rule="evenodd" clip-rule="evenodd" d="M789.446 78.2197L896.125 184.898L212.735 868.289L106.056 761.61L789.446 78.2197Z" fill="url(#paint1_linear_442_67)"/>
<path fill-rule="evenodd" clip-rule="evenodd" d="M977.079 32.0198C938.026 -7.03264 874.71 -7.03264 835.658 32.0198L789.395 78.2828L1002.23 291.122L1048.5 244.859C1087.55 205.807 1087.55 142.49 1048.5 103.438L977.079 32.0198Z" fill="url(#paint2_linear_442_67)"/>
<path fill-rule="evenodd" clip-rule="evenodd" d="M106.061 761.613L318.9 974.452L308.307 985.045C299.973 993.38 288.876 997.267 277.965 996.708L20.4397 1077.61C9.64599 1081 -0.503348 1070.85 2.88739 1060.06L83.8018 802.481C83.2626 791.591 87.1514 780.523 95.4683 772.206L106.061 761.613Z" fill="#90CAF9"/>
<path fill-rule="evenodd" clip-rule="evenodd" d="M37.051 951.301L2.88739 1060.05C-0.503348 1070.85 9.64599 1081 20.4397 1077.61L129.192 1043.44L37.051 951.301Z" fill="#0D47A1"/>
<defs>
<filter id="filter0_f_442_67" x="42" y="17" width="1078.07" height="1078.08" filterUnits="userSpaceOnUse" color-interpolation-filters="sRGB">
<feFlood flood-opacity="0" result="BackgroundImageFix"/>
<feBlend mode="normal" in="SourceGraphic" in2="BackgroundImageFix" result="shape"/>
<feGaussianBlur stdDeviation="50" result="effect1_foregroundBlur_442_67"/>
</filter>
<linearGradient id="paint0_linear_442_67" x1="1107.88" y1="518.62" x2="548.182" y2="675.569" gradientUnits="userSpaceOnUse">
<stop stop-color="#42A5F5"/>
<stop offset="1" stop-color="#2196F3"/>
</linearGradient>
<linearGradient id="paint1_linear_442_67" x1="392.177" y1="490.689" x2="613.395" y2="712.897" gradientUnits="userSpaceOnUse">
<stop stop-color="#42A5F5"/>
<stop offset="1" stop-color="#2196F3"/>
</linearGradient>
<linearGradient id="paint2_linear_442_67" x1="905.5" y1="4" x2="972.5" y2="291" gradientUnits="userSpaceOnUse">
<stop stop-color="#1976D2"/>
<stop offset="1" stop-color="#1565C0"/>
</linearGradient>
</defs>
</svg>
