<svg width="1080" height="1080" viewBox="0 0 1080 1080" fill="none" xmlns="http://www.w3.org/2000/svg">
<path fill-rule="evenodd" clip-rule="evenodd" d="M860.764 456.729C920.336 456.729 968.628 408.436 968.628 348.864C968.628 289.292 920.336 241 860.764 241C801.192 241 752.9 289.292 752.9 348.864C752.9 408.436 801.192 456.729 860.764 456.729ZM830.7 496.923C727.036 496.923 643 580.959 643 684.623C643 741.972 689.49 788.462 746.839 788.462H974.179C1031.53 788.462 1078.02 741.972 1078.02 684.623C1078.02 580.959 993.983 496.923 890.319 496.923H830.7Z" fill="url(#paint0_linear_68_95)"/>
<path fill-rule="evenodd" clip-rule="evenodd" d="M219.764 456.729C279.336 456.729 327.628 408.436 327.628 348.864C327.628 289.292 279.336 241 219.764 241C160.192 241 111.9 289.292 111.9 348.864C111.9 408.436 160.192 456.729 219.764 456.729ZM189.7 496.923C86.036 496.923 2 580.959 2 684.623C2 741.972 48.4903 788.462 105.839 788.462H333.179C390.528 788.462 437.019 741.972 437.019 684.623C437.019 580.959 352.983 496.923 249.319 496.923H189.7Z" fill="url(#paint1_linear_68_95)"/>
<mask id="mask0_68_95" style="mask-type:alpha" maskUnits="userSpaceOnUse" x="2" y="241" width="1077" height="548">
<path fill-rule="evenodd" clip-rule="evenodd" d="M327.628 348.864C327.628 408.436 279.336 456.729 219.764 456.729C160.192 456.729 111.9 408.436 111.9 348.864C111.9 289.292 160.192 241 219.764 241C279.336 241 327.628 289.292 327.628 348.864ZM2 684.623C2 580.959 86.036 496.923 189.7 496.923H249.319C352.983 496.923 437.019 580.959 437.019 684.623C437.019 741.972 390.528 788.462 333.179 788.462H105.839C48.4903 788.462 2 741.972 2 684.623ZM968.628 348.864C968.628 408.436 920.336 456.729 860.764 456.729C801.192 456.729 752.9 408.436 752.9 348.864C752.9 289.292 801.192 241 860.764 241C920.336 241 968.628 289.292 968.628 348.864ZM643 684.623C643 580.959 727.036 496.923 830.7 496.923H890.319C993.983 496.923 1078.02 580.959 1078.02 684.623C1078.02 741.972 1031.53 788.462 974.179 788.462H746.839C689.49 788.462 643 741.972 643 684.623Z" fill="#2196F3"/>
</mask>
<g mask="url(#mask0_68_95)">
<g filter="url(#filter0_f_68_95)">
<path fill-rule="evenodd" clip-rule="evenodd" d="M540.033 456.089C626.215 456.089 696.078 386.226 696.078 300.045C696.078 213.864 626.215 144 540.033 144C453.852 144 383.989 213.864 383.989 300.045C383.989 386.226 453.852 456.089 540.033 456.089ZM496.54 514.238C346.573 514.238 225 635.811 225 785.778C225 868.743 292.257 936 375.222 936H704.109C787.074 936 854.331 868.743 854.331 785.778C854.331 635.811 732.758 514.238 582.79 514.238H496.54Z" fill="black" fill-opacity="0.36"/>
</g>
</g>
<path fill-rule="evenodd" clip-rule="evenodd" d="M540.033 456.089C626.215 456.089 696.078 386.226 696.078 300.045C696.078 213.864 626.215 144 540.033 144C453.852 144 383.989 213.864 383.989 300.045C383.989 386.226 453.852 456.089 540.033 456.089ZM496.54 514.238C346.573 514.238 225 635.811 225 785.778C225 868.743 292.257 936 375.222 936H704.109C787.074 936 854.331 868.743 854.331 785.778C854.331 635.811 732.758 514.238 582.79 514.238H496.54Z" fill="url(#paint2_linear_68_95)"/>
<defs>
<filter id="filter0_f_68_95" x="125" y="44" width="829.332" height="992" filterUnits="userSpaceOnUse" color-interpolation-filters="sRGB">
<feFlood flood-opacity="0" result="BackgroundImageFix"/>
<feBlend mode="normal" in="SourceGraphic" in2="BackgroundImageFix" result="shape"/>
<feGaussianBlur stdDeviation="50" result="effect1_foregroundBlur_68_95"/>
</filter>
<linearGradient id="paint0_linear_68_95" x1="663.919" y1="295.746" x2="908.72" y2="802.26" gradientUnits="userSpaceOnUse">
<stop stop-color="#2196F3"/>
<stop offset="1" stop-color="#1976D2"/>
</linearGradient>
<linearGradient id="paint1_linear_68_95" x1="22.9193" y1="295.746" x2="267.72" y2="802.26" gradientUnits="userSpaceOnUse">
<stop stop-color="#2196F3"/>
<stop offset="1" stop-color="#1976D2"/>
</linearGradient>
<linearGradient id="paint2_linear_68_95" x1="514" y1="209.5" x2="676.5" y2="964" gradientUnits="userSpaceOnUse">
<stop stop-color="#64B5F6"/>
<stop offset="1" stop-color="#2196F3"/>
</linearGradient>
</defs>
</svg>
