<svg width="1080" height="1080" viewBox="0 0 1080 1080" fill="none" xmlns="http://www.w3.org/2000/svg">
<path d="M701 92H890C915.405 92 936 112.595 936 138V943C936 968.405 915.405 989 890 989H701V92Z" fill="#1E6091"/>
<path d="M701 172H841C855.912 172 868 184.088 868 199V882C868 896.912 855.912 909 841 909H701V172Z" fill="black" fill-opacity="0.38"/>
<path fill-rule="evenodd" clip-rule="evenodd" d="M181.077 94.089C159.529 98.3499 144 117.25 144 139.215V941.635C144 963.631 159.571 982.549 181.156 986.777L646.156 1077.88C674.57 1083.44 701 1061.69 701 1032.73V47.2653C701 18.278 674.513 -3.484 646.077 2.13913L181.077 94.089Z" fill="url(#paint0_linear_21_43)"/>
<g filter="url(#filter0_f_21_43)">
<ellipse cx="557.5" cy="515" rx="54.5" ry="64" fill="black" fill-opacity="0.25"/>
</g>
<ellipse cx="548.5" cy="503" rx="54.5" ry="64" fill="url(#paint1_linear_21_43)"/>
<rect x="698" y="92" width="54" height="897" fill="url(#paint2_linear_21_43)"/>
<defs>
<filter id="filter0_f_21_43" x="493" y="441" width="129" height="148" filterUnits="userSpaceOnUse" color-interpolation-filters="sRGB">
<feFlood flood-opacity="0" result="BackgroundImageFix"/>
<feBlend mode="normal" in="SourceGraphic" in2="BackgroundImageFix" result="shape"/>
<feGaussianBlur stdDeviation="5" result="effect1_foregroundBlur_21_43"/>
</filter>
<linearGradient id="paint0_linear_21_43" x1="216" y1="146" x2="701" y2="1415" gradientUnits="userSpaceOnUse">
<stop stop-color="#76C893"/>
<stop offset="1" stop-color="#168AAD"/>
</linearGradient>
<linearGradient id="paint1_linear_21_43" x1="575.5" y1="576.5" x2="509.5" y2="420" gradientUnits="userSpaceOnUse">
<stop stop-color="#C8C8C8"/>
<stop offset="1" stop-color="white"/>
</linearGradient>
<linearGradient id="paint2_linear_21_43" x1="640" y1="326" x2="1058.31" y2="994.618" gradientUnits="userSpaceOnUse">
<stop stop-opacity="0.25"/>
<stop offset="1" stop-opacity="0"/>
</linearGradient>
</defs>
</svg>
