<svg width="1080" height="1080" viewBox="0 0 1080 1080" fill="none" xmlns="http://www.w3.org/2000/svg">
<circle cx="540" cy="179" r="177" fill="url(#paint0_linear_29_214)"/>
<circle cx="179" cy="901" r="177" fill="url(#paint1_linear_29_214)"/>
<circle cx="901" cy="901" r="177" fill="url(#paint2_linear_29_214)"/>
<path fill-rule="evenodd" clip-rule="evenodd" d="M470.999 311.5C470.999 273.116 502.116 242 540.499 242C578.883 242 609.999 273.116 609.999 311.5V511.713L843.437 745.151C870.578 772.292 870.578 816.297 843.437 843.439C816.295 870.58 772.29 870.58 745.149 843.439L540.291 638.581L335.433 843.439C308.292 870.581 264.287 870.581 237.145 843.439C210.004 816.298 210.004 772.293 237.145 745.151L470.999 511.297V311.5Z" fill="url(#paint3_linear_29_214)"/>
<defs>
<linearGradient id="paint0_linear_29_214" x1="540" y1="2" x2="540" y2="356" gradientUnits="userSpaceOnUse">
<stop stop-color="#90E0EF"/>
<stop offset="1" stop-color="#48CAE4"/>
</linearGradient>
<linearGradient id="paint1_linear_29_214" x1="179" y1="724" x2="179" y2="1078" gradientUnits="userSpaceOnUse">
<stop stop-color="#90E0EF"/>
<stop offset="1" stop-color="#48CAE4"/>
</linearGradient>
<linearGradient id="paint2_linear_29_214" x1="901" y1="724" x2="901" y2="1078" gradientUnits="userSpaceOnUse">
<stop stop-color="#90E0EF"/>
<stop offset="1" stop-color="#48CAE4"/>
</linearGradient>
<linearGradient id="paint3_linear_29_214" x1="540.291" y1="242" x2="540.291" y2="863.795" gradientUnits="userSpaceOnUse">
<stop stop-color="#0096C7"/>
<stop offset="1" stop-color="#0077B6"/>
</linearGradient>
</defs>
</svg>
