<svg width="1080" height="1080" viewBox="0 0 1080 1080" fill="none" xmlns="http://www.w3.org/2000/svg">
<path fill-rule="evenodd" clip-rule="evenodd" d="M540.311 230.157C603.315 230.157 654.389 179.083 654.389 116.079C654.389 53.0748 603.315 2 540.311 2C477.307 2 426.232 53.0748 426.232 116.079C426.232 179.083 477.307 230.157 540.311 230.157ZM540 273C412.975 273 310 375.975 310 503V595.556C310 694.108 389.892 774 488.444 774H591.556C690.108 774 770 694.108 770 595.556V503C770 375.975 667.025 273 540 273Z" fill="url(#paint0_linear_379_40)"/>
<path d="M236 616H845L797.502 1007.63C792.631 1047.8 758.541 1078 718.084 1078H362.916C322.459 1078 288.369 1047.8 283.498 1007.63L236 616Z" fill="url(#paint1_linear_379_40)"/>
<mask id="mask0_379_40" style="mask-type:alpha" maskUnits="userSpaceOnUse" x="236" y="616" width="609" height="462">
<path d="M236 616H845L797.502 1007.63C792.631 1047.8 758.541 1078 718.084 1078H362.916C322.459 1078 288.369 1047.8 283.498 1007.63L236 616Z" fill="#64B5F6"/>
</mask>
<g mask="url(#mask0_379_40)">
<g filter="url(#filter0_f_379_40)">
<rect x="144" y="500" width="792" height="163" rx="81.5" fill="black" fill-opacity="0.25"/>
</g>
</g>
<rect x="144" y="500" width="792" height="163" rx="81.5" fill="url(#paint2_linear_379_40)"/>
<g filter="url(#filter1_f_379_40)">
<path fill-rule="evenodd" clip-rule="evenodd" d="M692 616V653C692 697.183 656.183 733 612 733H468C423.817 733 388 697.183 388 653V616H692Z" fill="black" fill-opacity="0.25"/>
</g>
<path d="M388 595C388 518.785 449.785 457 526 457H554C630.215 457 692 518.785 692 595V653C692 697.183 656.183 733 612 733H468C423.817 733 388 697.183 388 653V595Z" fill="url(#paint3_linear_379_40)"/>
<defs>
<filter id="filter0_f_379_40" x="44" y="400" width="992" height="363" filterUnits="userSpaceOnUse" color-interpolation-filters="sRGB">
<feFlood flood-opacity="0" result="BackgroundImageFix"/>
<feBlend mode="normal" in="SourceGraphic" in2="BackgroundImageFix" result="shape"/>
<feGaussianBlur stdDeviation="50" result="effect1_foregroundBlur_379_40"/>
</filter>
<filter id="filter1_f_379_40" x="288" y="516" width="504" height="317" filterUnits="userSpaceOnUse" color-interpolation-filters="sRGB">
<feFlood flood-opacity="0" result="BackgroundImageFix"/>
<feBlend mode="normal" in="SourceGraphic" in2="BackgroundImageFix" result="shape"/>
<feGaussianBlur stdDeviation="50" result="effect1_foregroundBlur_379_40"/>
</filter>
<linearGradient id="paint0_linear_379_40" x1="362.5" y1="-70" x2="585.998" y2="499.501" gradientUnits="userSpaceOnUse">
<stop stop-color="#64B5F6"/>
<stop offset="1" stop-color="#2196F3"/>
</linearGradient>
<linearGradient id="paint1_linear_379_40" x1="487.5" y1="616" x2="685" y2="1078" gradientUnits="userSpaceOnUse">
<stop stop-color="#818181"/>
<stop offset="1" stop-color="#505050"/>
</linearGradient>
<linearGradient id="paint2_linear_379_40" x1="507.5" y1="368" x2="581.5" y2="697" gradientUnits="userSpaceOnUse">
<stop stop-color="#C6C6C6"/>
<stop offset="1" stop-color="#9A9A9A"/>
</linearGradient>
<linearGradient id="paint3_linear_379_40" x1="469.5" y1="426.5" x2="570" y2="778" gradientUnits="userSpaceOnUse">
<stop stop-color="white"/>
<stop offset="1" stop-color="#C9C9C9"/>
</linearGradient>
</defs>
</svg>
