<svg width="1080" height="1080" viewBox="0 0 1080 1080" fill="none" xmlns="http://www.w3.org/2000/svg">
<circle cx="540" cy="540" r="538" fill="url(#paint0_linear_97_92)"/>
<path d="M1025.19 772.454C992.838 839.981 946.746 900.011 889.865 948.704C832.983 997.397 766.563 1033.68 694.855 1055.23C623.147 1076.78 547.73 1083.13 473.428 1073.87C399.127 1064.6 327.578 1039.93 263.358 1001.43C199.139 962.923 143.663 911.44 100.481 850.27C57.2991 789.099 27.3612 719.588 12.5828 646.184C-2.19551 572.781 -1.4888 497.1 14.6577 423.985C30.8043 350.87 62.0351 281.93 106.352 221.577L229.114 311.719C197.342 354.987 174.953 404.411 163.377 456.828C151.802 509.245 151.295 563.501 161.89 616.125C172.484 668.749 193.947 718.582 224.905 762.435C255.863 806.289 295.633 843.198 341.673 870.8C387.712 898.403 439.007 916.091 492.274 922.733C545.542 929.375 599.609 924.826 651.017 909.375C702.425 893.924 750.042 867.912 790.821 833.004C831.6 798.095 864.644 755.059 887.837 706.648L1025.19 772.454Z" fill="url(#paint1_linear_97_92)"/>
<mask id="mask0_97_92" style="mask-type:alpha" maskUnits="userSpaceOnUse" x="2" y="2" width="1076" height="1076">
<circle cx="540" cy="540" r="538" fill="url(#paint2_linear_97_92)"/>
</mask>
<g mask="url(#mask0_97_92)">
<g filter="url(#filter0_f_97_92)">
<path fill-rule="evenodd" clip-rule="evenodd" d="M351.737 225.732L401.535 267.547C430.788 292.109 420.078 339.457 383.102 349.038L124.795 415.974C93.5203 424.078 63.5826 398.94 66.1546 366.735L87.3974 100.743C90.4382 62.6675 135.219 43.9285 164.471 68.4907L227.259 121.212C270.944 92.1905 318.913 69.2316 369.806 53.234C471.059 21.4064 579.618 18.4752 682.542 44.79C785.465 71.1047 878.412 125.555 950.3 201.651C1022.19 277.746 1069.99 372.276 1088 473.971L933.148 499.74C920.236 426.834 885.969 359.065 834.431 304.511C782.894 249.958 716.26 210.922 642.473 192.056C568.686 173.191 490.859 175.293 418.269 198.11C395.169 205.371 372.909 214.633 351.737 225.732Z" fill="black" fill-opacity="0.25"/>
</g>
</g>
<path d="M123.626 199.299C207.151 97.2235 325.261 29.3856 455.518 8.67446C585.775 -12.0366 719.102 15.8222 830.167 86.958C941.232 158.094 1022.3 267.55 1057.96 394.53C1093.62 521.51 1081.4 657.167 1023.61 775.726L886.704 708.994C928.133 623.998 936.897 526.745 911.33 435.711C885.763 344.678 827.647 266.208 748.024 215.21C668.4 164.212 572.817 144.24 479.434 159.088C386.052 173.936 301.377 222.569 241.498 295.748L123.626 199.299Z" fill="url(#paint3_linear_97_92)"/>
<g filter="url(#filter1_f_97_92)">
<path fill-rule="evenodd" clip-rule="evenodd" d="M384.018 566.678L446.08 676.294H511.366L444.065 562.245C465.29 556.603 481.275 546.394 492.022 531.617C502.769 516.572 508.142 499.78 508.142 481.242C508.142 465.122 504.246 450.614 496.455 437.718C488.932 424.553 477.514 414.21 462.2 406.687C446.886 398.896 428.348 395 406.586 395H301V676.294H357.42V566.678H384.018ZM404.571 524.363H357.42V441.748H404.571C419.885 441.748 431.303 445.375 438.826 452.629C446.349 459.614 450.11 469.555 450.11 482.451C450.11 495.616 446.349 505.959 438.826 513.482C431.303 520.736 419.885 524.363 404.571 524.363ZM633.242 459.887C620.615 466.604 610.674 475.067 603.42 485.276V453.036H547V782.69H603.42V644.461C611.211 654.67 621.286 663.133 633.645 669.85C646.272 676.567 660.78 679.925 677.169 679.925C696.244 679.925 713.439 675.089 728.753 665.417C744.336 655.745 756.56 642.177 765.426 624.714C774.561 606.982 779.128 586.698 779.128 563.861C779.128 541.024 774.561 521.009 765.426 503.814C756.56 486.351 744.336 472.917 728.753 463.514C713.439 454.111 696.244 449.409 677.169 449.409C660.78 449.409 646.138 452.902 633.242 459.887ZM713.036 529.203C718.678 538.875 721.499 550.428 721.499 563.861C721.499 577.563 718.678 589.384 713.036 599.325C707.663 609.266 700.409 616.923 691.274 622.296C682.408 627.669 672.736 630.356 662.258 630.356C652.049 630.356 642.377 627.804 633.242 622.699C624.376 617.326 617.122 609.669 611.48 599.728C606.107 589.787 603.42 578.1 603.42 564.667C603.42 551.234 606.107 539.547 611.48 529.606C617.122 519.665 624.376 512.143 633.242 507.038C642.377 501.665 652.049 498.978 662.258 498.978C672.736 498.978 682.408 501.53 691.274 506.635C700.409 511.74 707.663 519.262 713.036 529.203Z" fill="black" fill-opacity="0.25"/>
</g>
<path fill-rule="evenodd" clip-rule="evenodd" d="M384.018 533.678L446.08 643.294H511.366L444.065 529.245C465.29 523.603 481.275 513.394 492.022 498.617C502.769 483.572 508.142 466.78 508.142 448.242C508.142 432.122 504.246 417.614 496.455 404.718C488.932 391.553 477.514 381.21 462.2 373.687C446.886 365.896 428.348 362 406.586 362H301V643.294H357.42V533.678H384.018ZM404.571 491.363H357.42V408.748H404.571C419.885 408.748 431.303 412.375 438.826 419.629C446.349 426.614 450.11 436.555 450.11 449.451C450.11 462.616 446.349 472.959 438.826 480.482C431.303 487.736 419.885 491.363 404.571 491.363ZM633.242 426.887C620.615 433.604 610.674 442.067 603.42 452.276V420.036H547V749.69H603.42V611.461C611.211 621.67 621.286 630.133 633.645 636.85C646.272 643.567 660.78 646.925 677.169 646.925C696.244 646.925 713.439 642.089 728.753 632.417C744.336 622.745 756.56 609.177 765.426 591.714C774.561 573.982 779.128 553.698 779.128 530.861C779.128 508.024 774.561 488.009 765.426 470.814C756.56 453.351 744.336 439.917 728.753 430.514C713.439 421.111 696.244 416.409 677.169 416.409C660.78 416.409 646.138 419.902 633.242 426.887ZM713.036 496.203C718.678 505.875 721.499 517.428 721.499 530.861C721.499 544.563 718.678 556.384 713.036 566.325C707.663 576.266 700.409 583.923 691.274 589.296C682.408 594.669 672.736 597.356 662.258 597.356C652.049 597.356 642.377 594.804 633.242 589.699C624.376 584.326 617.122 576.669 611.48 566.728C606.107 556.787 603.42 545.1 603.42 531.667C603.42 518.234 606.107 506.547 611.48 496.606C617.122 486.665 624.376 479.143 633.242 474.038C642.377 468.665 652.049 465.978 662.258 465.978C672.736 465.978 682.408 468.53 691.274 473.635C700.409 478.74 707.663 486.262 713.036 496.203Z" fill="white"/>
<path fill-rule="evenodd" clip-rule="evenodd" d="M82.4071 341.735C79.8351 373.94 109.773 399.078 141.048 390.973L399.355 324.038C436.33 314.456 447.04 267.109 417.788 242.547L180.724 43.4906C151.472 18.9283 106.691 37.6673 103.65 75.7429L82.4071 341.735Z" fill="#FFEA00"/>
<defs>
<filter id="filter0_f_97_92" x="-4" y="-43" width="1162" height="612.742" filterUnits="userSpaceOnUse" color-interpolation-filters="sRGB">
<feFlood flood-opacity="0" result="BackgroundImageFix"/>
<feBlend mode="normal" in="SourceGraphic" in2="BackgroundImageFix" result="shape"/>
<feGaussianBlur stdDeviation="35" result="effect1_foregroundBlur_97_92"/>
</filter>
<filter id="filter1_f_97_92" x="231" y="325" width="618.129" height="527.691" filterUnits="userSpaceOnUse" color-interpolation-filters="sRGB">
<feFlood flood-opacity="0" result="BackgroundImageFix"/>
<feBlend mode="normal" in="SourceGraphic" in2="BackgroundImageFix" result="shape"/>
<feGaussianBlur stdDeviation="35" result="effect1_foregroundBlur_97_92"/>
</filter>
<linearGradient id="paint0_linear_97_92" x1="540" y1="255" x2="540" y2="1047" gradientUnits="userSpaceOnUse">
<stop stop-color="#FF8800"/>
<stop offset="1" stop-color="#FF6B00"/>
</linearGradient>
<linearGradient id="paint1_linear_97_92" x1="193.5" y1="856.5" x2="1395.5" y2="15.5" gradientUnits="userSpaceOnUse">
<stop stop-color="#FFAA00"/>
<stop offset="1" stop-color="#FFEA00"/>
</linearGradient>
<linearGradient id="paint2_linear_97_92" x1="540" y1="255" x2="540" y2="1047" gradientUnits="userSpaceOnUse">
<stop stop-color="#FF8800"/>
<stop offset="1" stop-color="#FF6B00"/>
</linearGradient>
<linearGradient id="paint3_linear_97_92" x1="851.5" y1="1459.5" x2="411" y2="185.5" gradientUnits="userSpaceOnUse">
<stop stop-color="#FFAA00"/>
<stop offset="1" stop-color="#FFEA00"/>
</linearGradient>
</defs>
</svg>
