<svg width="1080" height="1080" viewBox="0 0 1080 1080" fill="none" xmlns="http://www.w3.org/2000/svg">
<rect x="2" y="482" width="1076" height="596" rx="100" fill="url(#paint0_linear_168_134)"/>
<rect x="60" y="545" width="961" height="470" rx="49" fill="black" fill-opacity="0.33"/>
<g filter="url(#filter0_f_168_134)">
<path fill-rule="evenodd" clip-rule="evenodd" d="M253.395 708C253.395 698.611 261.006 691 270.395 691H282.785C292.174 691 299.785 698.611 299.785 708V777.012L357.904 758.838C366.865 756.035 376.401 761.028 379.203 769.989L382.902 781.815C385.704 790.776 380.711 800.312 371.75 803.114L311.144 822.066L350.593 878.125C355.996 885.803 354.152 896.408 346.473 901.811L336.34 908.942C328.662 914.345 318.057 912.501 312.654 904.823L274.844 851.093L238.352 902.949C232.949 910.627 222.344 912.472 214.666 907.068L204.533 899.937C196.855 894.534 195.011 883.93 200.414 876.251L239.871 820.181L180.931 801.749C171.97 798.947 166.977 789.411 169.779 780.45L173.478 768.624C176.28 759.663 185.816 754.67 194.777 757.473L253.395 775.803V708ZM523.395 708C523.395 698.611 531.006 691 540.395 691H552.785C562.174 691 569.785 698.611 569.785 708V777.012L627.904 758.838C636.865 756.035 646.401 761.028 649.203 769.989L652.902 781.815C655.704 790.776 650.711 800.312 641.75 803.114L581.144 822.066L620.593 878.125C625.996 885.803 624.152 896.408 616.473 901.811L606.34 908.942C598.662 914.345 588.057 912.501 582.654 904.823L544.844 851.093L508.352 902.949C502.949 910.627 492.344 912.472 484.666 907.068L474.533 899.937C466.855 894.534 465.011 883.93 470.414 876.251L509.871 820.181L450.931 801.749C441.97 798.947 436.977 789.411 439.779 780.45L443.478 768.624C446.28 759.663 455.816 754.67 464.777 757.473L523.395 775.803V708ZM810.395 691C801.006 691 793.395 698.611 793.395 708V775.803L734.776 757.473C725.816 754.67 716.28 759.663 713.478 768.624L709.779 780.45C706.977 789.411 711.97 798.947 720.931 801.749L779.871 820.181L740.414 876.251C735.011 883.93 736.855 894.534 744.533 899.937L754.666 907.068C762.344 912.472 772.949 910.627 778.352 902.949L814.844 851.093L852.654 904.823C858.057 912.501 868.662 914.345 876.34 908.942L886.473 901.811C894.152 896.408 895.996 885.803 890.593 878.125L851.144 822.066L911.75 803.114C920.711 800.312 925.704 790.776 922.902 781.815L919.203 769.989C916.401 761.028 906.865 756.035 897.904 758.838L839.785 777.012V708C839.785 698.611 832.174 691 822.785 691H810.395Z" fill="black" fill-opacity="0.33"/>
</g>
<path fill-rule="evenodd" clip-rule="evenodd" d="M247.395 686C247.395 676.611 255.006 669 264.395 669H276.785C286.174 669 293.785 676.611 293.785 686V755.012L351.904 736.838C360.865 734.035 370.401 739.028 373.203 747.989L376.902 759.815C379.704 768.776 374.711 778.312 365.75 781.114L305.144 800.066L344.593 856.125C349.996 863.803 348.152 874.408 340.473 879.811L330.34 886.942C322.662 892.345 312.057 890.501 306.654 882.823L268.844 829.093L232.352 880.949C226.949 888.627 216.344 890.472 208.666 885.068L198.533 877.938C190.855 872.534 189.01 861.93 194.414 854.251L233.871 798.181L174.931 779.749C165.97 776.947 160.977 767.411 163.779 758.45L167.478 746.624C170.28 737.663 179.816 732.67 188.777 735.473L247.395 753.803V686ZM517.395 686C517.395 676.611 525.006 669 534.395 669H546.785C556.174 669 563.785 676.611 563.785 686V755.012L621.904 736.838C630.865 734.035 640.401 739.028 643.203 747.989L646.902 759.815C649.704 768.776 644.711 778.312 635.75 781.114L575.144 800.066L614.593 856.125C619.996 863.803 618.152 874.408 610.473 879.811L600.34 886.942C592.662 892.345 582.057 890.501 576.654 882.823L538.844 829.093L502.352 880.949C496.949 888.627 486.344 890.472 478.666 885.068L468.533 877.938C460.855 872.534 459.01 861.93 464.414 854.251L503.871 798.181L444.931 779.749C435.97 776.947 430.977 767.411 433.779 758.45L437.478 746.624C440.28 737.663 449.816 732.67 458.777 735.473L517.395 753.803V686ZM804.395 669C795.006 669 787.395 676.611 787.395 686V753.803L728.776 735.473C719.816 732.67 710.28 737.663 707.478 746.624L703.779 758.45C700.977 767.411 705.97 776.947 714.931 779.749L773.871 798.181L734.414 854.251C729.01 861.93 730.855 872.534 738.533 877.938L748.666 885.068C756.344 890.472 766.949 888.627 772.352 880.949L808.844 829.093L846.654 882.823C852.057 890.501 862.662 892.345 870.34 886.942L880.473 879.811C888.152 874.408 889.996 863.803 884.593 856.125L845.144 800.066L905.75 781.114C914.711 778.312 919.704 768.776 916.902 759.815L913.203 747.989C910.401 739.028 900.865 734.035 891.904 736.838L833.785 755.012V686C833.785 676.611 826.174 669 816.785 669H804.395Z" fill="white"/>
<mask id="mask0_168_134" style="mask-type:alpha" maskUnits="userSpaceOnUse" x="2" y="482" width="1076" height="596">
<rect x="2" y="482" width="1076" height="596" rx="100" fill="url(#paint1_linear_168_134)"/>
</mask>
<g mask="url(#mask0_168_134)">
<g filter="url(#filter1_f_168_134)">
<path d="M336 288C336 271.431 349.431 258 366 258H726C742.569 258 756 271.431 756 288V562C756 606.183 720.183 642 676 642H416C371.817 642 336 606.183 336 562V288Z" fill="black" fill-opacity="0.6"/>
</g>
</g>
<path d="M330 275C330 258.431 343.431 245 360 245H720C736.569 245 750 258.431 750 275V549C750 593.183 714.183 629 670 629H410C365.817 629 330 593.183 330 549V275Z" fill="url(#paint2_linear_168_134)"/>
<path fill-rule="evenodd" clip-rule="evenodd" d="M540 2C457.71 2 391 68.7096 391 151V245H459V157.5C459 113.041 495.041 77 539.5 77C583.959 77 620 113.041 620 157.5V245H689V151C689 68.7096 622.29 2 540 2Z" fill="url(#paint3_linear_168_134)"/>
<g filter="url(#filter2_i_168_134)">
<path fill-rule="evenodd" clip-rule="evenodd" d="M566.125 423.508C576.517 415.635 583.23 403.161 583.23 389.118C583.23 365.305 563.925 346 540.112 346C516.298 346 496.994 365.305 496.994 389.118C496.994 403.161 503.707 415.635 514.099 423.508L481.039 508.313C477.205 518.148 484.459 528.761 495.014 528.761H585.21C595.765 528.761 603.019 518.148 599.185 508.313L566.125 423.508Z" fill="url(#paint4_linear_168_134)"/>
</g>
<defs>
<filter id="filter0_f_168_134" x="69" y="591" width="954.681" height="421.039" filterUnits="userSpaceOnUse" color-interpolation-filters="sRGB">
<feFlood flood-opacity="0" result="BackgroundImageFix"/>
<feBlend mode="normal" in="SourceGraphic" in2="BackgroundImageFix" result="shape"/>
<feGaussianBlur stdDeviation="50" result="effect1_foregroundBlur_168_134"/>
</filter>
<filter id="filter1_f_168_134" x="236" y="158" width="620" height="584" filterUnits="userSpaceOnUse" color-interpolation-filters="sRGB">
<feFlood flood-opacity="0" result="BackgroundImageFix"/>
<feBlend mode="normal" in="SourceGraphic" in2="BackgroundImageFix" result="shape"/>
<feGaussianBlur stdDeviation="50" result="effect1_foregroundBlur_168_134"/>
</filter>
<filter id="filter2_i_168_134" x="480" y="346" width="141.224" height="206.762" filterUnits="userSpaceOnUse" color-interpolation-filters="sRGB">
<feFlood flood-opacity="0" result="BackgroundImageFix"/>
<feBlend mode="normal" in="SourceGraphic" in2="BackgroundImageFix" result="shape"/>
<feColorMatrix in="SourceAlpha" type="matrix" values="0 0 0 0 0 0 0 0 0 0 0 0 0 0 0 0 0 0 127 0" result="hardAlpha"/>
<feOffset dx="21" dy="24"/>
<feGaussianBlur stdDeviation="37.5"/>
<feComposite in2="hardAlpha" operator="arithmetic" k2="-1" k3="1"/>
<feColorMatrix type="matrix" values="0 0 0 0 0 0 0 0 0 0 0 0 0 0 0 0 0 0 0.25 0"/>
<feBlend mode="normal" in2="shape" result="effect1_innerShadow_168_134"/>
</filter>
<linearGradient id="paint0_linear_168_134" x1="540" y1="290" x2="540" y2="1411.5" gradientUnits="userSpaceOnUse">
<stop stop-color="#4AD66D"/>
<stop offset="1" stop-color="#008000"/>
</linearGradient>
<linearGradient id="paint1_linear_168_134" x1="540" y1="290" x2="540" y2="1411.5" gradientUnits="userSpaceOnUse">
<stop stop-color="#4AD66D"/>
<stop offset="1" stop-color="#008000"/>
</linearGradient>
<linearGradient id="paint2_linear_168_134" x1="449.5" y1="268" x2="665.5" y2="743" gradientUnits="userSpaceOnUse">
<stop stop-color="#FAD643"/>
<stop offset="1" stop-color="#FFA200"/>
</linearGradient>
<linearGradient id="paint3_linear_168_134" x1="423.5" y1="-101" x2="540" y2="245" gradientUnits="userSpaceOnUse">
<stop stop-color="#E0E0E0"/>
<stop offset="1" stop-color="#C1C1C1"/>
</linearGradient>
<linearGradient id="paint4_linear_168_134" x1="506.5" y1="382.5" x2="573.5" y2="564" gradientUnits="userSpaceOnUse">
<stop stop-color="#FF7B00"/>
<stop offset="1" stop-color="#FF8800"/>
</linearGradient>
</defs>
</svg>
