<svg width="1080" height="1080" viewBox="0 0 1080 1080" fill="none" xmlns="http://www.w3.org/2000/svg">
<path fill-rule="evenodd" clip-rule="evenodd" d="M583.369 20.1665C541.53 -4.05552 489.932 -4.0555 448.092 20.1665L100.362 221.478C58.6705 245.614 33 290.138 33 338.311V741.574C33 789.747 58.6705 834.271 100.362 858.407L448.092 1059.72C489.932 1083.94 541.53 1083.94 583.369 1059.72L931.1 858.407C972.791 834.271 998.462 789.747 998.462 741.574V338.311C998.462 290.138 972.791 245.614 931.1 221.478L583.369 20.1665ZM995.397 63.8358L1046.49 100.344L943.656 170.953C945.905 177.516 947.126 184.556 947.126 191.882C947.126 226.927 919.191 255.447 884.373 256.389L746.928 537.674C750.198 545.399 752.007 553.894 752.007 562.811C752.007 598.451 723.115 627.343 687.476 627.343C664.336 627.343 644.042 615.164 632.652 596.867L387.976 551.072C376.236 567.122 357.263 577.546 335.855 577.546C331.624 577.546 327.488 577.139 323.484 576.362L192.104 845.233C199.748 855.837 204.252 868.856 204.252 882.927C204.252 918.566 175.36 947.458 139.72 947.458C104.081 947.458 75.1889 918.566 75.1889 882.927C75.1889 847.324 104.02 818.456 139.608 818.395L276.469 538.308C273.157 530.541 271.324 521.992 271.324 513.015C271.324 477.375 300.216 448.483 335.855 448.483C364.442 448.483 388.687 467.071 397.164 492.82L628.69 536.154C638.837 513.815 661.342 498.28 687.476 498.28C691.752 498.28 695.932 498.696 699.976 499.49L831.208 230.923C822.96 220.083 818.063 206.554 818.063 191.882C818.063 156.242 846.955 127.35 882.594 127.35C888.506 127.35 894.232 128.145 899.671 129.634L995.397 63.8358Z" fill="url(#paint0_linear_173_54)"/>
<defs>
<linearGradient id="paint0_linear_173_54" x1="539.742" y1="2" x2="539.742" y2="1077.89" gradientUnits="userSpaceOnUse">
<stop stop-color="#09A4FF"/>
<stop offset="1" stop-color="#9B48FA"/>
</linearGradient>
</defs>
</svg>
