<svg width="1080" height="1080" viewBox="0 0 1080 1080" fill="none" xmlns="http://www.w3.org/2000/svg">
<path fill-rule="evenodd" clip-rule="evenodd" d="M565 2C522.474 2 488 36.4741 488 79V380C488 422.526 522.474 457 565 457H652.466C670.944 457 684.355 474.584 679.469 492.404L646.725 611.826C639.376 638.628 671.347 658.609 692.217 640.257L892.698 463.973C897.808 459.479 904.381 457 911.187 457H1001C1043.53 457 1078 422.526 1078 380V79C1078 36.4741 1043.53 2 1001 2H565Z" fill="url(#paint0_linear_202_244)"/>
<mask id="mask0_202_244" style="mask-type:alpha" maskUnits="userSpaceOnUse" x="488" y="2" width="590" height="646">
<path fill-rule="evenodd" clip-rule="evenodd" d="M565 2C522.474 2 488 36.4741 488 79V380C488 422.526 522.474 457 565 457H652.466C670.944 457 684.355 474.584 679.469 492.404L646.725 611.826C639.376 638.628 671.347 658.609 692.217 640.257L892.698 463.973C897.808 459.479 904.381 457 911.187 457H1001C1043.53 457 1078 422.526 1078 380V79C1078 36.4741 1043.53 2 1001 2H565Z" fill="url(#paint1_linear_202_244)"/>
</mask>
<g mask="url(#mask0_202_244)">
<g filter="url(#filter0_f_202_244)">
<path fill-rule="evenodd" clip-rule="evenodd" d="M370 239C252.977 239 154.808 319.727 128.146 428.531C97.0567 440.52 75 470.684 75 506V555.163C75 565.014 82.9858 573 92.8367 573H121H158H180.48V494.477C180.48 389.486 265.592 304.374 370.583 304.374C475.574 304.374 560.686 389.486 560.686 494.477V573H581H619H646.163C656.014 573 664 565.014 664 555.163V506C664 471.104 642.465 441.239 611.96 428.967C585.454 319.943 487.179 239 370 239ZM526.078 499.045C526.078 585.226 456.215 655.089 370.033 655.089C283.852 655.089 213.989 585.226 213.989 499.045C213.989 412.864 283.852 343 370.033 343C456.215 343 526.078 412.864 526.078 499.045ZM55 984.778C55 834.811 176.573 713.238 326.54 713.238H412.79C562.758 713.238 684.331 834.811 684.331 984.778C684.331 1067.74 617.074 1135 534.109 1135H205.222C122.257 1135 55 1067.74 55 984.778Z" fill="black" fill-opacity="0.6"/>
</g>
</g>
<path fill-rule="evenodd" clip-rule="evenodd" d="M317 182C199.977 182 101.808 262.727 75.146 371.531C44.0567 383.52 22 413.684 22 449V498.163C22 508.014 29.9858 516 39.8367 516H68H105H127.48V437.477C127.48 332.486 212.592 247.374 317.583 247.374C422.574 247.374 507.686 332.486 507.686 437.477V516H528H566H593.163C603.014 516 611 508.014 611 498.163V449C611 414.104 589.465 384.239 558.96 371.967C532.454 262.943 434.179 182 317 182ZM473.078 442.045C473.078 528.226 403.215 598.089 317.033 598.089C230.852 598.089 160.989 528.226 160.989 442.045C160.989 355.864 230.852 286 317.033 286C403.215 286 473.078 355.864 473.078 442.045ZM2 927.778C2 777.811 123.573 656.238 273.54 656.238H359.79C509.758 656.238 631.331 777.811 631.331 927.778C631.331 1010.74 564.074 1078 481.109 1078H152.222C69.2566 1078 2 1010.74 2 927.778Z" fill="url(#paint2_linear_202_244)"/>
<g filter="url(#filter1_f_202_244)">
<path fill-rule="evenodd" clip-rule="evenodd" d="M764.473 324.784H822.96C823.104 313.562 824.687 304.065 827.708 296.296C830.729 288.382 836.341 280.757 844.542 273.419C854.182 264.642 862.959 256.225 870.872 248.168C878.785 239.967 885.116 231.19 889.864 221.838C894.612 212.342 896.986 201.335 896.986 188.817C896.986 170.545 893.03 155.077 885.116 142.416C877.347 129.755 866.052 120.187 851.232 113.712C836.557 107.237 818.931 104 798.356 104C779.796 104 762.962 107.165 747.854 113.496C732.891 119.683 720.949 129.395 712.028 142.632C703.108 155.725 698.432 172.559 698 193.134H765.768C766.055 184.501 767.71 177.523 770.731 172.199C773.753 166.876 777.71 162.991 782.602 160.545C787.493 157.955 792.745 156.66 798.356 156.66C805.119 156.66 810.73 158.027 815.19 160.761C819.795 163.351 823.248 167.235 825.55 172.415C827.996 177.451 829.219 183.925 829.219 191.839C829.219 198.457 827.852 204.572 825.118 210.184C822.384 215.795 818.5 221.262 813.464 226.586C808.428 231.766 802.529 237.305 795.767 243.204C787.997 250.254 781.81 257.664 777.206 265.434C772.602 273.059 769.293 281.692 767.278 291.332C765.408 300.828 764.473 311.979 764.473 324.784ZM767.062 366.438C760.156 373.056 756.703 381.185 756.703 390.825C756.703 400.609 760.156 408.81 767.062 415.429C774.113 421.903 783.249 425.141 794.472 425.141C805.694 425.141 814.759 421.903 821.665 415.429C828.571 408.81 832.024 400.609 832.024 390.825C832.024 381.185 828.571 373.056 821.665 366.438C814.759 359.819 805.694 356.51 794.472 356.51C783.249 356.51 774.113 359.819 767.062 366.438Z" fill="black" fill-opacity="0.25"/>
</g>
<path fill-rule="evenodd" clip-rule="evenodd" d="M750.473 298.784H808.96C809.104 287.562 810.687 278.065 813.708 270.296C816.729 262.382 822.341 254.757 830.542 247.419C840.182 238.642 848.959 230.225 856.872 222.168C864.785 213.967 871.116 205.19 875.864 195.838C880.612 186.342 882.986 175.335 882.986 162.817C882.986 144.545 879.03 129.077 871.116 116.416C863.347 103.755 852.052 94.1865 837.232 87.7119C822.557 81.2373 804.931 78 784.356 78C765.796 78 748.962 81.1654 733.854 87.4961C718.891 93.6829 706.949 103.395 698.028 116.632C689.108 129.725 684.432 146.559 684 167.134H751.768C752.055 158.501 753.71 151.523 756.731 146.199C759.753 140.876 763.71 136.991 768.602 134.545C773.493 131.955 778.745 130.66 784.356 130.66C791.119 130.66 796.73 132.027 801.19 134.761C805.795 137.351 809.248 141.235 811.55 146.415C813.996 151.451 815.219 157.925 815.219 165.839C815.219 172.457 813.852 178.572 811.118 184.184C808.384 189.795 804.5 195.262 799.464 200.586C794.428 205.766 788.529 211.305 781.767 217.204C773.997 224.254 767.81 231.664 763.206 239.434C758.602 247.059 755.293 255.692 753.278 265.332C751.408 274.828 750.473 285.979 750.473 298.784ZM753.062 340.438C746.156 347.056 742.703 355.185 742.703 364.825C742.703 374.609 746.156 382.81 753.062 389.429C760.113 395.903 769.249 399.141 780.472 399.141C791.694 399.141 800.759 395.903 807.665 389.429C814.571 382.81 818.024 374.609 818.024 364.825C818.024 355.185 814.571 347.056 807.665 340.438C800.759 333.819 791.694 330.51 780.472 330.51C769.249 330.51 760.113 333.819 753.062 340.438Z" fill="url(#paint3_linear_202_244)"/>
<defs>
<filter id="filter0_f_202_244" x="-45" y="139" width="829.331" height="1096" filterUnits="userSpaceOnUse" color-interpolation-filters="sRGB">
<feFlood flood-opacity="0" result="BackgroundImageFix"/>
<feBlend mode="normal" in="SourceGraphic" in2="BackgroundImageFix" result="shape"/>
<feGaussianBlur stdDeviation="50" result="effect1_foregroundBlur_202_244"/>
</filter>
<filter id="filter1_f_202_244" x="638" y="44" width="318.986" height="441.141" filterUnits="userSpaceOnUse" color-interpolation-filters="sRGB">
<feFlood flood-opacity="0" result="BackgroundImageFix"/>
<feBlend mode="normal" in="SourceGraphic" in2="BackgroundImageFix" result="shape"/>
<feGaussianBlur stdDeviation="30" result="effect1_foregroundBlur_202_244"/>
</filter>
<linearGradient id="paint0_linear_202_244" x1="705" y1="107" x2="808.5" y2="714.5" gradientUnits="userSpaceOnUse">
<stop stop-color="#0096C7"/>
<stop offset="1" stop-color="#1A759F"/>
</linearGradient>
<linearGradient id="paint1_linear_202_244" x1="783" y1="2" x2="783" y2="653.151" gradientUnits="userSpaceOnUse">
<stop stop-color="#0096C7"/>
<stop offset="1" stop-color="#1A759F"/>
</linearGradient>
<linearGradient id="paint2_linear_202_244" x1="2" y1="182" x2="533.5" y2="1247.5" gradientUnits="userSpaceOnUse">
<stop stop-color="#48CAE4"/>
<stop offset="1" stop-color="#0096C7"/>
</linearGradient>
<linearGradient id="paint3_linear_202_244" x1="699" y1="101.5" x2="906.5" y2="458.5" gradientUnits="userSpaceOnUse">
<stop stop-color="white"/>
<stop offset="1" stop-color="#D6D6D6"/>
</linearGradient>
</defs>
</svg>
