<svg width="1080" height="1080" viewBox="0 0 1080 1080" fill="none" xmlns="http://www.w3.org/2000/svg">
<path fill-rule="evenodd" clip-rule="evenodd" d="M88.9131 684L45 717.328V965H539.5H1034V717.328L990.087 684H539.5H88.9131Z" fill="#FF7900"/>
<path d="M2 1003C2 982.013 19.0132 965 40 965H1040C1060.99 965 1078 982.013 1078 1003V1058C1078 1069.05 1069.05 1078 1058 1078H22C10.9543 1078 2 1069.05 2 1058V1003Z" fill="#FFB600"/>
<path fill-rule="evenodd" clip-rule="evenodd" d="M517.4 17.8602C525.379 -2.42738 554.09 -2.42734 562.069 17.8602L678.344 313.494C679.081 315.369 680.052 317.143 681.232 318.775L868.256 577.339C870.817 580.879 874.296 583.653 878.318 585.362L913.057 600.122C915.055 600.971 916.928 602.086 918.625 603.438L1071.7 725.367C1075.33 728.265 1076.81 733.104 1075.41 737.538C1073.47 743.675 1066.79 746.934 1060.76 744.678L933.518 697.063C930.828 696.056 927.979 695.54 925.107 695.54H539.735H154.363C151.491 695.54 148.642 696.056 145.951 697.063L18.7108 744.678C12.6834 746.934 5.99672 743.675 4.05905 737.538C2.65888 733.104 4.13543 728.265 7.77289 725.367L160.844 603.438C162.542 602.086 164.415 600.971 166.413 600.122L201.152 585.362C205.174 583.653 208.652 580.879 211.213 577.339L398.237 318.775C399.418 317.143 400.388 315.369 401.126 313.494L517.4 17.8602Z" fill="#FFB600"/>
<path fill-rule="evenodd" clip-rule="evenodd" d="M195.448 588L177 541.575L325.175 454H540H754.825L903 541.575L884.552 588L808.977 556.346H540H271.023L195.448 588Z" fill="#FF7900"/>
<g filter="url(#filter0_f_702_68)">
<path fill-rule="evenodd" clip-rule="evenodd" d="M555.792 501.123C548.23 490.292 532.198 490.292 524.635 501.123L343.455 760.613C334.661 773.208 343.672 790.49 359.033 790.49H721.395C736.756 790.49 745.767 773.208 736.973 760.613L555.792 501.123Z" fill="black" fill-opacity="0.1"/>
</g>
<path fill-rule="evenodd" clip-rule="evenodd" d="M555.792 462.123C548.23 451.292 532.198 451.292 524.635 462.123L343.455 721.613C334.661 734.208 343.672 751.49 359.033 751.49H721.395C736.756 751.49 745.767 734.208 736.973 721.613L555.792 462.123Z" fill="#FFD000"/>
<defs>
<filter id="filter0_f_702_68" x="240" y="393" width="600.428" height="497.49" filterUnits="userSpaceOnUse" color-interpolation-filters="sRGB">
<feFlood flood-opacity="0" result="BackgroundImageFix"/>
<feBlend mode="normal" in="SourceGraphic" in2="BackgroundImageFix" result="shape"/>
<feGaussianBlur stdDeviation="50" result="effect1_foregroundBlur_702_68"/>
</filter>
</defs>
</svg>
