<svg width="1080" height="1080" viewBox="0 0 1080 1080" fill="none" xmlns="http://www.w3.org/2000/svg">
<circle cx="540" cy="540" r="538" fill="url(#paint0_linear_160_3473)"/>
<path fill-rule="evenodd" clip-rule="evenodd" d="M401.737 455.134C383.011 472.928 357.69 483.848 329.818 483.848C272.147 483.848 225.394 437.096 225.394 379.424C225.394 321.752 272.147 275 329.818 275C359.685 275 386.623 287.539 405.656 307.639C392.517 330.406 385 356.825 385 385C385 410.242 391.034 434.074 401.737 455.134ZM678.47 454.724C689.044 433.765 695 410.078 695 385C695 356.998 687.575 330.73 674.585 308.059C693.64 287.713 720.744 275 750.818 275C808.49 275 855.242 321.752 855.242 379.424C855.242 437.096 808.49 483.848 750.818 483.848C722.733 483.848 697.238 472.76 678.47 454.724ZM371.348 523.212C367.081 522.913 362.774 522.76 358.431 522.76H300.713C200.356 522.76 119 604.116 119 704.473C119 759.993 164.007 805 219.527 805H318.802C294.254 781.179 279 747.835 279 710.927C279 634.507 315.181 566.537 371.348 523.212ZM761.198 805C785.746 781.179 801 747.835 801 710.927C801 634.512 764.824 566.546 708.664 523.222C712.974 522.916 717.325 522.76 721.713 522.76H779.431C879.788 522.76 961.143 604.116 961.143 704.473C961.143 759.993 916.136 805 860.616 805H761.198Z" fill="white" fill-opacity="0.53"/>
<path fill-rule="evenodd" clip-rule="evenodd" d="M539.818 483.848C597.49 483.848 644.242 437.096 644.242 379.424C644.242 321.752 597.49 275 539.818 275C482.147 275 435.394 321.752 435.394 379.424C435.394 437.096 482.147 483.848 539.818 483.848ZM510.713 522.76C410.356 522.76 329 604.116 329 704.473C329 759.993 374.007 805 429.527 805H649.616C705.136 805 750.143 759.993 750.143 704.473C750.143 604.116 668.788 522.76 568.431 522.76H510.713Z" fill="white"/>
<defs>
<linearGradient id="paint0_linear_160_3473" x1="540" y1="2" x2="540" y2="1078" gradientUnits="userSpaceOnUse">
<stop stop-color="#26B4FF"/>
<stop offset="1" stop-color="#2C89FF"/>
</linearGradient>
</defs>
</svg>
