<svg width="1080" height="1080" viewBox="0 0 1080 1080" fill="none" xmlns="http://www.w3.org/2000/svg">
<path fill-rule="evenodd" clip-rule="evenodd" d="M821.143 329.74C891.487 329.74 948.513 272.714 948.513 202.37C948.513 132.025 891.487 75 821.143 75C750.798 75 693.773 132.025 693.773 202.37C693.773 272.714 750.798 329.74 821.143 329.74ZM785.642 377.203C663.233 377.203 564 476.435 564 598.845C564 666.564 618.897 721.462 686.617 721.462H955.068C1022.79 721.462 1077.68 666.564 1077.68 598.845C1077.68 476.435 978.452 377.203 856.043 377.203H785.642Z" fill="url(#paint0_linear_155_231)"/>
<mask id="mask0_155_231" style="mask-type:alpha" maskUnits="userSpaceOnUse" x="564" y="75" width="514" height="647">
<path fill-rule="evenodd" clip-rule="evenodd" d="M821.143 329.74C891.487 329.74 948.513 272.714 948.513 202.37C948.513 132.025 891.487 75 821.143 75C750.798 75 693.773 132.025 693.773 202.37C693.773 272.714 750.798 329.74 821.143 329.74ZM785.642 377.203C663.233 377.203 564 476.435 564 598.845C564 666.564 618.897 721.462 686.617 721.462H955.068C1022.79 721.462 1077.68 666.564 1077.68 598.845C1077.68 476.435 978.452 377.203 856.043 377.203H785.642Z" fill="url(#paint1_linear_155_231)"/>
</mask>
<g mask="url(#mask0_155_231)">
<g filter="url(#filter0_f_155_231)">
<path fill-rule="evenodd" clip-rule="evenodd" d="M317.033 314.089C403.215 314.089 473.078 244.226 473.078 158.045C473.078 71.8636 403.215 2 317.033 2C230.852 2 160.989 71.8636 160.989 158.045C160.989 244.226 230.852 314.089 317.033 314.089ZM273.54 372.238C123.573 372.238 2 493.811 2 643.778C2 726.743 69.2566 794 152.222 794H481.109C564.074 794 631.331 726.743 631.331 643.778C631.331 493.811 509.758 372.238 359.79 372.238H273.54Z" fill="black" fill-opacity="0.6"/>
</g>
</g>
<path fill-rule="evenodd" clip-rule="evenodd" d="M317.033 314.089C403.215 314.089 473.078 244.226 473.078 158.045C473.078 71.8636 403.215 2 317.033 2C230.852 2 160.989 71.8636 160.989 158.045C160.989 244.226 230.852 314.089 317.033 314.089ZM273.54 372.238C123.573 372.238 2 493.811 2 643.778C2 726.743 69.2566 794 152.222 794H481.109C564.074 794 631.331 726.743 631.331 643.778C631.331 493.811 509.758 372.238 359.79 372.238H273.54Z" fill="url(#paint2_linear_155_231)"/>
<mask id="mask1_155_231" style="mask-type:alpha" maskUnits="userSpaceOnUse" x="2" y="2" width="1076" height="792">
<path fill-rule="evenodd" clip-rule="evenodd" d="M473.078 158.045C473.078 244.226 403.215 314.089 317.033 314.089C230.852 314.089 160.989 244.226 160.989 158.045C160.989 71.8636 230.852 2 317.033 2C403.215 2 473.078 71.8636 473.078 158.045ZM2 643.778C2 493.811 123.573 372.238 273.54 372.238H359.79C455.85 372.238 540.259 422.117 588.532 497.389C625.346 426.01 699.794 377.203 785.642 377.203H856.042C978.452 377.203 1077.68 476.435 1077.68 598.845C1077.68 666.564 1022.79 721.462 955.068 721.462H686.617C661.959 721.462 639.002 714.184 619.775 701.658C597.112 755.891 543.561 794 481.109 794H152.222C69.2566 794 2 726.743 2 643.778ZM948.513 202.37C948.513 272.714 891.487 329.74 821.143 329.74C750.798 329.74 693.773 272.714 693.773 202.37C693.773 132.025 750.798 75 821.143 75C891.487 75 948.513 132.025 948.513 202.37Z" fill="url(#paint3_linear_155_231)"/>
</mask>
<g mask="url(#mask1_155_231)">
<g filter="url(#filter1_f_155_231)">
<circle cx="540.5" cy="820.5" r="299.5" fill="black" fill-opacity="0.6"/>
</g>
</g>
<circle cx="540.5" cy="778.5" r="299.5" fill="url(#paint4_linear_155_231)"/>
<g filter="url(#filter2_f_155_231)">
<path d="M480.921 873.305L435.183 792.521H415.581V873.305H374.001V665.999H451.815C467.853 665.999 481.515 668.87 492.801 674.612C504.087 680.156 512.502 687.779 518.046 697.481C523.788 706.985 526.659 717.677 526.659 729.557C526.659 743.219 522.699 755.594 514.779 766.682C506.859 777.572 495.078 785.096 479.436 789.254L529.035 873.305H480.921ZM415.581 761.336H450.33C461.616 761.336 470.031 758.663 475.575 753.317C481.119 747.773 483.891 740.15 483.891 730.448C483.891 720.944 481.119 713.618 475.575 708.47C470.031 703.124 461.616 700.451 450.33 700.451H415.581V761.336Z" fill="black" fill-opacity="0.25"/>
</g>
<g filter="url(#filter3_f_155_231)">
<path d="M601.61 732.472C606.956 724.948 614.282 718.711 623.588 713.761C633.092 708.613 643.883 706.039 655.961 706.039C670.019 706.039 682.691 709.504 693.977 716.434C705.461 723.364 714.47 733.264 721.004 746.134C727.736 758.806 731.102 773.557 731.102 790.387C731.102 807.217 727.736 822.166 721.004 835.234C714.47 848.104 705.461 858.103 693.977 865.231C682.691 872.359 670.019 875.923 655.961 875.923C643.883 875.923 633.191 873.448 623.885 868.498C614.777 863.548 607.352 857.311 601.61 849.787V951.658H560.03V708.712H601.61V732.472ZM688.631 790.387C688.631 780.487 686.552 771.973 682.394 764.845C678.434 757.519 673.088 751.975 666.356 748.213C659.822 744.451 652.694 742.57 644.972 742.57C637.448 742.57 630.32 744.55 623.588 748.51C617.054 752.272 611.708 757.816 607.55 765.142C603.59 772.468 601.61 781.081 601.61 790.981C601.61 800.881 603.59 809.494 607.55 816.82C611.708 824.146 617.054 829.789 623.588 833.749C630.32 837.511 637.448 839.392 644.972 839.392C652.694 839.392 659.822 837.412 666.356 833.452C673.088 829.492 678.434 823.849 682.394 816.523C686.552 809.197 688.631 800.485 688.631 790.387Z" fill="black" fill-opacity="0.25"/>
</g>
<path fill-rule="evenodd" clip-rule="evenodd" d="M435.182 772.522L480.92 853.306H529.034L479.435 769.255C495.077 765.097 506.858 757.573 514.778 746.683C522.698 735.595 526.658 723.22 526.658 709.558C526.658 697.678 523.787 686.986 518.045 677.482C512.501 667.78 504.086 660.157 492.8 654.613C481.514 648.871 467.852 646 451.814 646H374V853.306H415.58V772.522H435.182ZM450.329 741.337H415.58V680.452H450.329C461.615 680.452 470.03 683.125 475.574 688.471C481.118 693.619 483.89 700.945 483.89 710.449C483.89 720.151 481.118 727.774 475.574 733.318C470.03 738.664 461.615 741.337 450.329 741.337ZM623.588 693.761C614.282 698.711 606.956 704.948 601.61 712.472V688.712H560.03V931.658H601.61V829.787C607.352 837.311 614.777 843.548 623.885 848.498C633.191 853.448 643.883 855.923 655.961 855.923C670.019 855.923 682.691 852.359 693.977 845.231C705.461 838.103 714.47 828.104 721.004 815.234C727.736 802.166 731.102 787.217 731.102 770.387C731.102 753.557 727.736 738.806 721.004 726.134C714.47 713.264 705.461 703.364 693.977 696.434C682.691 689.504 670.019 686.039 655.961 686.039C643.883 686.039 633.092 688.613 623.588 693.761ZM682.394 744.845C686.552 751.973 688.631 760.487 688.631 770.387C688.631 780.485 686.552 789.197 682.394 796.523C678.434 803.849 673.088 809.492 666.356 813.452C659.822 817.412 652.694 819.392 644.972 819.392C637.448 819.392 630.32 817.511 623.588 813.749C617.054 809.789 611.708 804.146 607.55 796.82C603.59 789.494 601.61 780.881 601.61 770.981C601.61 761.081 603.59 752.468 607.55 745.142C611.708 737.816 617.054 732.272 623.588 728.51C630.32 724.55 637.448 722.57 644.972 722.57C652.694 722.57 659.822 724.451 666.356 728.213C673.088 731.975 678.434 737.519 682.394 744.845Z" fill="white"/>
<defs>
<filter id="filter0_f_155_231" x="-98" y="-98" width="829.33" height="992" filterUnits="userSpaceOnUse" color-interpolation-filters="sRGB">
<feFlood flood-opacity="0" result="BackgroundImageFix"/>
<feBlend mode="normal" in="SourceGraphic" in2="BackgroundImageFix" result="shape"/>
<feGaussianBlur stdDeviation="50" result="effect1_foregroundBlur_155_231"/>
</filter>
<filter id="filter1_f_155_231" x="141" y="421" width="799" height="799" filterUnits="userSpaceOnUse" color-interpolation-filters="sRGB">
<feFlood flood-opacity="0" result="BackgroundImageFix"/>
<feBlend mode="normal" in="SourceGraphic" in2="BackgroundImageFix" result="shape"/>
<feGaussianBlur stdDeviation="50" result="effect1_foregroundBlur_155_231"/>
</filter>
<filter id="filter2_f_155_231" x="314" y="606" width="275.035" height="327.305" filterUnits="userSpaceOnUse" color-interpolation-filters="sRGB">
<feFlood flood-opacity="0" result="BackgroundImageFix"/>
<feBlend mode="normal" in="SourceGraphic" in2="BackgroundImageFix" result="shape"/>
<feGaussianBlur stdDeviation="30" result="effect1_foregroundBlur_155_231"/>
</filter>
<filter id="filter3_f_155_231" x="500.029" y="646.039" width="291.072" height="365.617" filterUnits="userSpaceOnUse" color-interpolation-filters="sRGB">
<feFlood flood-opacity="0" result="BackgroundImageFix"/>
<feBlend mode="normal" in="SourceGraphic" in2="BackgroundImageFix" result="shape"/>
<feGaussianBlur stdDeviation="30" result="effect1_foregroundBlur_155_231"/>
</filter>
<linearGradient id="paint0_linear_155_231" x1="704.5" y1="205" x2="805" y2="652" gradientUnits="userSpaceOnUse">
<stop stop-color="#1E88E5"/>
<stop offset="1" stop-color="#1565C0"/>
</linearGradient>
<linearGradient id="paint1_linear_155_231" x1="588.702" y1="139.646" x2="877.771" y2="737.755" gradientUnits="userSpaceOnUse">
<stop stop-color="#168AAD"/>
<stop offset="1" stop-color="#1A759F"/>
</linearGradient>
<linearGradient id="paint2_linear_155_231" x1="245.5" y1="101" x2="398.5" y2="707" gradientUnits="userSpaceOnUse">
<stop stop-color="#26B4FF"/>
<stop offset="1" stop-color="#2C89FF"/>
</linearGradient>
<linearGradient id="paint3_linear_155_231" x1="194" y1="116" x2="386" y2="727" gradientUnits="userSpaceOnUse">
<stop stop-color="#64B5F6"/>
<stop offset="1" stop-color="#2196F3"/>
</linearGradient>
<linearGradient id="paint4_linear_155_231" x1="540" y1="516" x2="540.5" y2="1060.74" gradientUnits="userSpaceOnUse">
<stop stop-color="#FFC300"/>
<stop offset="1" stop-color="#FFA200"/>
</linearGradient>
</defs>
</svg>
