<svg width="1080" height="1080" viewBox="0 0 1080 1080" fill="none" xmlns="http://www.w3.org/2000/svg">
<circle cx="540" cy="540" r="538" fill="url(#paint0_linear_595_63)"/>
<mask id="mask0_595_63" style="mask-type:alpha" maskUnits="userSpaceOnUse" x="2" y="2" width="1076" height="1076">
<circle cx="540" cy="540" r="538" fill="#C4C4C4"/>
</mask>
<g mask="url(#mask0_595_63)">
<path d="M2094.2 248.495C2133.44 625.426 1881.14 960.567 1530.68 997.054C1180.22 1033.54 864.298 757.557 825.055 380.626C785.812 3.69557 1038.11 -331.446 1388.57 -367.933C1739.03 -404.42 2054.95 -128.436 2094.2 248.495ZM890.921 373.769C926.091 711.576 1209.22 958.914 1523.31 926.214C1837.39 893.514 2063.5 593.159 2028.33 255.352C1993.16 -82.4544 1710.03 -329.792 1395.95 -297.092C1081.86 -264.393 855.752 35.9623 890.921 373.769Z" fill="#292929"/>
</g>
<mask id="mask1_595_63" style="mask-type:alpha" maskUnits="userSpaceOnUse" x="2" y="2" width="1076" height="1076">
<circle cx="540" cy="540" r="538" fill="#C4C4C4"/>
</mask>
<g mask="url(#mask1_595_63)">
<path d="M504.768 329.56C600.704 631.417 406.251 962.639 70.4454 1069.36C-265.36 1176.09 -615.356 1017.91 -711.292 716.048C-807.228 414.192 -612.776 82.97 -276.97 -23.7557C58.8361 -130.481 408.832 27.7036 504.768 329.56ZM-648.73 696.165C-562.665 966.962 -248.681 1108.87 52.5719 1013.13C353.825 917.382 528.27 620.242 442.205 349.444C356.141 78.6466 42.1571 -63.2621 -259.096 32.4822C-560.35 128.226 -734.794 425.367 -648.73 696.165Z" fill="#292929"/>
</g>
<mask id="mask2_595_63" style="mask-type:alpha" maskUnits="userSpaceOnUse" x="2" y="2" width="1076" height="1076">
<circle cx="540" cy="540" r="538" fill="#C4C4C4"/>
</mask>
<g mask="url(#mask2_595_63)">
<path d="M729 540.5C729 1264.82 141.821 1852 -582.5 1852C-1306.82 1852 -1894 1264.82 -1894 540.5C-1894 -183.821 -1306.82 -771 -582.5 -771C141.821 -771 729 -183.821 729 540.5ZM-1829.27 540.5C-1829.27 1229.07 -1271.07 1787.27 -582.5 1787.27C106.072 1787.27 664.269 1229.07 664.269 540.5C664.269 -148.072 106.072 -706.269 -582.5 -706.269C-1271.07 -706.269 -1829.27 -148.072 -1829.27 540.5Z" fill="#292929"/>
</g>
<mask id="mask3_595_63" style="mask-type:alpha" maskUnits="userSpaceOnUse" x="2" y="2" width="1076" height="1076">
<circle cx="540" cy="540" r="538" fill="#C4C4C4"/>
</mask>
<g mask="url(#mask3_595_63)">
<path d="M1992 1675.5C1992 2399.82 1404.82 2987 680.5 2987C-43.8215 2987 -631 2399.82 -631 1675.5C-631 951.179 -43.8215 364 680.5 364C1404.82 364 1992 951.179 1992 1675.5ZM-564.52 1675.5C-564.52 2363.11 -7.10565 2920.52 680.5 2920.52C1368.11 2920.52 1925.52 2363.11 1925.52 1675.5C1925.52 987.894 1368.11 430.48 680.5 430.48C-7.10565 430.48 -564.52 987.894 -564.52 1675.5Z" fill="#292929"/>
</g>
<defs>
<linearGradient id="paint0_linear_595_63" x1="325.5" y1="55" x2="775.5" y2="1276" gradientUnits="userSpaceOnUse">
<stop stop-color="#FFAA00"/>
<stop offset="1" stop-color="#E15413"/>
</linearGradient>
</defs>
</svg>
