<svg width="1080" height="1080" viewBox="0 0 1080 1080" fill="none" xmlns="http://www.w3.org/2000/svg">
<path d="M2 132C2 60.203 60.203 2 132 2H948C1019.8 2 1078 60.203 1078 132V238H2V132Z" fill="#1E88E5"/>
<path d="M2 238H1078V948C1078 1019.8 1019.8 1078 948 1078H132C60.203 1078 2 1019.8 2 948V238Z" fill="#1565C0"/>
<path fill-rule="evenodd" clip-rule="evenodd" d="M657 120.5C657 150.047 633.047 174 603.5 174C573.953 174 550 150.047 550 120.5C550 90.9528 573.953 67 603.5 67C633.047 67 657 90.9528 657 120.5ZM811 120.5C811 150.047 787.047 174 757.5 174C727.953 174 704 150.047 704 120.5C704 90.9528 727.953 67 757.5 67C787.047 67 811 90.9528 811 120.5ZM911.5 174C941.047 174 965 150.047 965 120.5C965 90.9528 941.047 67 911.5 67C881.953 67 858 90.9528 858 120.5C858 150.047 881.953 174 911.5 174Z" fill="#90CAF9"/>
<g filter="url(#filter0_f_168_358)">
<path fill-rule="evenodd" clip-rule="evenodd" d="M366.534 540L315.153 749.385H243.576L214.767 621.081L185.364 749.385H113.787L63 540H125.964L150.318 683.154L183.285 540H247.14L279.216 681.966L303.57 540H366.534ZM691.513 540.383L640.133 749.768H568.555L539.746 621.464L510.343 749.768H438.766L387.979 540.383H450.943L475.297 683.537L508.264 540.383H572.119L604.195 682.349L628.549 540.383H691.513ZM965.153 749.385L1016.53 540H953.57L929.216 681.966L897.14 540H833.285L800.318 683.154L775.964 540H713L763.787 749.385H835.364L864.767 621.081L893.576 749.385H965.153Z" fill="black" fill-opacity="0.33"/>
</g>
<path fill-rule="evenodd" clip-rule="evenodd" d="M965.172 710.385L1016.55 501H953.589L929.235 642.966L897.159 501H833.304L800.337 644.154L775.983 501H713.019L763.806 710.385H835.383L864.786 582.081L893.595 710.385H965.172ZM366.554 501.002L315.173 710.387H243.596L214.787 582.083L185.384 710.387H113.807L63.0195 501.002H125.984L150.338 644.156L183.305 501.002H247.16L279.236 642.968L303.59 501.002H366.554ZM691.534 501.385L640.153 710.771H568.576L539.767 582.467L510.364 710.771H438.787L388 501.385H450.964L475.318 644.54L508.285 501.385H572.14L604.216 643.352L628.57 501.385H691.534Z" fill="white"/>
<defs>
<filter id="filter0_f_168_358" x="-37" y="440" width="1153.53" height="409.77" filterUnits="userSpaceOnUse" color-interpolation-filters="sRGB">
<feFlood flood-opacity="0" result="BackgroundImageFix"/>
<feBlend mode="normal" in="SourceGraphic" in2="BackgroundImageFix" result="shape"/>
<feGaussianBlur stdDeviation="50" result="effect1_foregroundBlur_168_358"/>
</filter>
</defs>
</svg>
