<svg width="1080" height="1080" viewBox="0 0 1080 1080" fill="none" xmlns="http://www.w3.org/2000/svg">
<path d="M2 476.166C2 450.669 22.6691 430 48.1658 430H139C412.381 430 634 651.619 634 925H450.834C202.95 925 2 724.05 2 476.166Z" fill="url(#paint0_linear_160_3419)"/>
<mask id="mask0_160_3419" style="mask-type:alpha" maskUnits="userSpaceOnUse" x="2" y="430" width="632" height="495">
<path d="M2 476.166C2 450.669 22.6691 430 48.1658 430H139C412.381 430 634 651.619 634 925H450.834C202.95 925 2 724.05 2 476.166Z" fill="url(#paint1_linear_160_3419)"/>
</mask>
<g mask="url(#mask0_160_3419)">
<g filter="url(#filter0_f_160_3419)">
<circle cx="540.5" cy="396.5" r="394.5" fill="black" fill-opacity="0.6"/>
</g>
</g>
<circle cx="540.5" cy="396.5" r="394.5" fill="url(#paint2_linear_160_3419)"/>
<circle cx="540.5" cy="396.5" r="257.5" fill="url(#paint3_linear_160_3419)"/>
<mask id="mask1_160_3419" style="mask-type:alpha" maskUnits="userSpaceOnUse" x="2" y="2" width="933" height="923">
<path fill-rule="evenodd" clip-rule="evenodd" d="M613.695 784.223C796.598 749.907 935 589.366 935 396.5C935 178.624 758.376 2 540.5 2C322.624 2 146 178.624 146 396.5C146 407.807 146.476 419.004 147.408 430.07C144.611 430.023 141.808 430 139 430H48.1658C22.6691 430 2 450.669 2 476.166C2 724.05 202.95 925 450.834 925H634C634 876.094 626.907 828.844 613.695 784.223Z" fill="url(#paint4_linear_160_3419)"/>
</mask>
<g mask="url(#mask1_160_3419)">
<g filter="url(#filter1_f_160_3419)">
<path fill-rule="evenodd" clip-rule="evenodd" d="M957.834 501C983.331 501 1004 521.669 1004 547.166C1004 793.437 805.657 993.382 560 995.975V1055C560 1106.91 517.915 1149 466 1149C414.085 1149 372 1106.91 372 1055V996V991C372 990.084 372.02 989.173 372.059 988.266C376.192 718.452 596.202 501 867 501H957.834Z" fill="black" fill-opacity="0.33"/>
</g>
</g>
<path fill-rule="evenodd" clip-rule="evenodd" d="M1031.83 430C1057.33 430 1078 450.669 1078 476.166C1078 722.437 879.657 922.382 634 924.974V984C634 1035.91 591.915 1078 540 1078C488.085 1078 446 1035.91 446 984V925V920C446 919.084 446.02 918.173 446.059 917.266C450.192 647.452 670.202 430 941 430H1031.83Z" fill="url(#paint5_linear_160_3419)"/>
<defs>
<filter id="filter0_f_160_3419" x="46" y="-98" width="989" height="989" filterUnits="userSpaceOnUse" color-interpolation-filters="sRGB">
<feFlood flood-opacity="0" result="BackgroundImageFix"/>
<feBlend mode="normal" in="SourceGraphic" in2="BackgroundImageFix" result="shape"/>
<feGaussianBlur stdDeviation="50" result="effect1_foregroundBlur_160_3419"/>
</filter>
<filter id="filter1_f_160_3419" x="272" y="401" width="832" height="848" filterUnits="userSpaceOnUse" color-interpolation-filters="sRGB">
<feFlood flood-opacity="0" result="BackgroundImageFix"/>
<feBlend mode="normal" in="SourceGraphic" in2="BackgroundImageFix" result="shape"/>
<feGaussianBlur stdDeviation="50" result="effect1_foregroundBlur_160_3419"/>
</filter>
<linearGradient id="paint0_linear_160_3419" x1="278.5" y1="505" x2="431.5" y2="941.5" gradientUnits="userSpaceOnUse">
<stop stop-color="#007F5F"/>
<stop offset="1" stop-color="#007F5F"/>
</linearGradient>
<linearGradient id="paint1_linear_160_3419" x1="278.5" y1="505" x2="431.5" y2="941.5" gradientUnits="userSpaceOnUse">
<stop stop-color="#007F5F"/>
<stop offset="1" stop-color="#007F5F"/>
</linearGradient>
<linearGradient id="paint2_linear_160_3419" x1="428.5" y1="-86.5" x2="659" y2="958" gradientUnits="userSpaceOnUse">
<stop stop-color="#FFEA00"/>
<stop offset="1" stop-color="#FFB700"/>
</linearGradient>
<linearGradient id="paint3_linear_160_3419" x1="771.5" y1="91.5" x2="156.5" y2="868" gradientUnits="userSpaceOnUse">
<stop stop-color="#FFAA00"/>
<stop offset="1" stop-color="#FFD000"/>
</linearGradient>
<linearGradient id="paint4_linear_160_3419" x1="428.5" y1="-86.5" x2="659" y2="958" gradientUnits="userSpaceOnUse">
<stop stop-color="#FFEA00"/>
<stop offset="1" stop-color="#FFB700"/>
</linearGradient>
<linearGradient id="paint5_linear_160_3419" x1="1031" y1="357.5" x2="554" y2="1094.5" gradientUnits="userSpaceOnUse">
<stop stop-color="#AACC00"/>
<stop offset="1" stop-color="#55A630"/>
</linearGradient>
</defs>
</svg>
