<svg width="1080" height="1080" viewBox="0 0 1080 1080" fill="none" xmlns="http://www.w3.org/2000/svg">
<path fill-rule="evenodd" clip-rule="evenodd" d="M540.869 596.917C627.279 596.917 697.328 526.868 697.328 440.458C697.328 354.049 627.279 284 540.869 284C454.46 284 384.411 354.049 384.411 440.458C384.411 526.868 454.46 596.917 540.869 596.917ZM497.261 655.222C346.895 655.222 225 777.117 225 927.483C225 1010.67 292.435 1078.1 375.62 1078.1H705.38C788.565 1078.1 856 1010.67 856 927.483C856 777.117 734.105 655.222 583.739 655.222H497.261Z" fill="url(#paint0_linear_167_47)"/>
<path fill-rule="evenodd" clip-rule="evenodd" d="M526.564 11.4757C530.878 -1.15855 548.747 -1.15859 553.062 11.4757L573.519 71.3822C574.92 75.4841 578.141 78.7059 582.243 80.1067L642.15 100.564C654.784 104.878 654.784 122.747 642.15 127.062L582.243 147.519C578.141 148.92 574.92 152.141 573.519 156.243L553.062 216.15C548.747 228.784 530.878 228.784 526.564 216.15L506.107 156.243C504.706 152.141 501.484 148.92 497.382 147.519L437.476 127.062C424.841 122.747 424.841 104.878 437.476 100.564L497.382 80.1067C501.484 78.7059 504.706 75.4841 506.107 71.3822L526.564 11.4757ZM181.735 243.476C177.421 230.841 159.552 230.841 155.238 243.476L120.863 344.138C119.462 348.24 116.24 351.462 112.138 352.863L11.4757 387.238C-1.15856 391.552 -1.15858 409.421 11.4757 413.735L112.138 448.11C116.24 449.511 119.462 452.733 120.863 456.835L155.238 557.497C159.552 570.131 177.421 570.132 181.735 557.497L216.11 456.835C217.511 452.733 220.733 449.511 224.835 448.11L325.497 413.735C338.132 409.421 338.132 391.552 325.497 387.238L224.835 352.863C220.733 351.462 217.511 348.24 216.11 344.138L181.735 243.476ZM924.735 243.476C920.421 230.841 902.552 230.841 898.238 243.476L863.863 344.138C862.462 348.24 859.24 351.462 855.138 352.863L754.476 387.238C741.841 391.552 741.841 409.421 754.476 413.735L855.138 448.11C859.24 449.511 862.462 452.733 863.863 456.835L898.238 557.497C902.552 570.132 920.421 570.132 924.735 557.497L959.11 456.835C960.511 452.733 963.733 449.511 967.835 448.11L1068.5 413.735C1081.13 409.421 1081.13 391.552 1068.5 387.238L967.835 352.863C963.733 351.462 960.511 348.24 959.11 344.138L924.735 243.476Z" fill="url(#paint1_linear_167_47)"/>
<defs>
<linearGradient id="paint0_linear_167_47" x1="712" y1="308" x2="246.498" y2="1357.5" gradientUnits="userSpaceOnUse">
<stop stop-color="#B333E9"/>
<stop offset="1" stop-color="#7B2CBF"/>
</linearGradient>
<linearGradient id="paint1_linear_167_47" x1="496" y1="-145.5" x2="383" y2="535" gradientUnits="userSpaceOnUse">
<stop stop-color="#FFC300"/>
<stop offset="1" stop-color="#FF8500"/>
</linearGradient>
</defs>
</svg>
