<svg width="1080" height="1080" viewBox="0 0 1080 1080" fill="none" xmlns="http://www.w3.org/2000/svg">
<rect x="2" y="2" width="463" height="1076" rx="130" fill="#0D41E1"/>
<mask id="mask0_1106_2" style="mask-type:alpha" maskUnits="userSpaceOnUse" x="2" y="2" width="463" height="1076">
<path d="M2 132C2 60.203 60.203 2 132 2H465V1078H132C60.203 1078 2 1019.8 2 948V132Z" fill="#0D41E1"/>
</mask>
<g mask="url(#mask0_1106_2)">
<g filter="url(#filter0_f_1106_2)">
<rect x="77" y="26" width="463" height="1076" rx="130" fill="black" fill-opacity="0.33"/>
</g>
</g>
<rect x="95" y="2" width="472" height="1076" rx="130" fill="#0C63E7"/>
<mask id="mask1_1106_2" style="mask-type:alpha" maskUnits="userSpaceOnUse" x="95" y="2" width="370" height="1076">
<path d="M95 132C95 60.203 153.203 2 225 2H465V1078H225C153.203 1078 95 1019.8 95 948V132Z" fill="#0C63E7"/>
</mask>
<g mask="url(#mask1_1106_2)">
<g filter="url(#filter1_f_1106_2)">
<rect x="181" y="16" width="873" height="1076" rx="130" fill="black" fill-opacity="0.33"/>
</g>
</g>
<rect x="205" y="2" width="873" height="1076" rx="130" fill="url(#paint0_linear_1106_2)"/>
<path d="M205 132C205 60.203 263.203 2 335 2H465V1078H335C263.203 1078 205 1019.8 205 948V132Z" fill="url(#paint1_linear_1106_2)"/>
<path fill-rule="evenodd" clip-rule="evenodd" d="M960 2H744V341.995L851.996 246.744L960 342.002V2Z" fill="url(#paint2_linear_1106_2)"/>
<defs>
<filter id="filter0_f_1106_2" x="-23" y="-74" width="663" height="1276" filterUnits="userSpaceOnUse" color-interpolation-filters="sRGB">
<feFlood flood-opacity="0" result="BackgroundImageFix"/>
<feBlend mode="normal" in="SourceGraphic" in2="BackgroundImageFix" result="shape"/>
<feGaussianBlur stdDeviation="50" result="effect1_foregroundBlur_1106_2"/>
</filter>
<filter id="filter1_f_1106_2" x="81" y="-84" width="1073" height="1276" filterUnits="userSpaceOnUse" color-interpolation-filters="sRGB">
<feFlood flood-opacity="0" result="BackgroundImageFix"/>
<feBlend mode="normal" in="SourceGraphic" in2="BackgroundImageFix" result="shape"/>
<feGaussianBlur stdDeviation="50" result="effect1_foregroundBlur_1106_2"/>
</filter>
<linearGradient id="paint0_linear_1106_2" x1="812.5" y1="57" x2="277.5" y2="1447" gradientUnits="userSpaceOnUse">
<stop stop-color="#07C8F9"/>
<stop offset="1" stop-color="#09A6F3"/>
</linearGradient>
<linearGradient id="paint1_linear_1106_2" x1="465" y1="2" x2="205" y2="1078" gradientUnits="userSpaceOnUse">
<stop stop-color="#0A85ED"/>
<stop offset="1" stop-color="#0A85ED"/>
</linearGradient>
<linearGradient id="paint2_linear_1106_2" x1="960" y1="2" x2="744" y2="342" gradientUnits="userSpaceOnUse">
<stop stop-color="#09A6F3"/>
<stop offset="1" stop-color="#0A85ED"/>
</linearGradient>
</defs>
</svg>
