<svg width="1080" height="1080" viewBox="0 0 1080 1080" fill="none" xmlns="http://www.w3.org/2000/svg">
<path d="M2 152C2 69.1573 69.1573 2 152 2H540V540H2V152Z" fill="#09A6F3"/>
<path d="M540 2H928C1010.84 2 1078 69.1573 1078 152V540H540V2Z" fill="#0A85ED"/>
<path d="M540 540H1078V928C1078 1010.84 1010.84 1078 928 1078H540V540Z" fill="#0C63E7"/>
<path d="M2 540H540V1078H152C69.1573 1078 2 1010.84 2 928V540Z" fill="#0D41E1"/>
<g filter="url(#filter0_f_1068_44)">
<circle cx="581" cy="630" r="310" fill="black" fill-opacity="0.33"/>
</g>
<circle cx="540" cy="540" r="353" fill="url(#paint0_linear_1068_44)"/>
<path fill-rule="evenodd" clip-rule="evenodd" d="M420.07 535.97L473.2 629.81H529.09L471.475 532.175C489.645 527.345 503.33 518.605 512.53 505.955C521.73 493.075 526.33 478.7 526.33 462.83C526.33 449.03 522.995 436.61 516.325 425.57C509.885 414.3 500.11 405.445 487 399.005C473.89 392.335 458.02 389 439.39 389H349V629.81H397.3V535.97H420.07ZM437.665 499.745H397.3V429.02H437.665C450.775 429.02 460.55 432.125 466.99 438.335C473.43 444.315 476.65 452.825 476.65 463.865C476.65 475.135 473.43 483.99 466.99 490.43C460.55 496.64 450.775 499.745 437.665 499.745ZM628.83 444.549C618.02 450.299 609.51 457.544 603.3 466.284V438.684H555V720.894H603.3V602.559C609.97 611.299 618.595 618.544 629.175 624.294C639.985 630.044 652.405 632.919 666.435 632.919C682.765 632.919 697.485 628.779 710.595 620.499C723.935 612.219 734.4 600.604 741.99 585.654C749.81 570.474 753.72 553.109 753.72 533.559C753.72 514.009 749.81 496.874 741.99 482.154C734.4 467.204 723.935 455.704 710.595 447.654C697.485 439.604 682.765 435.579 666.435 435.579C652.405 435.579 639.87 438.569 628.83 444.549ZM697.14 503.889C701.97 512.169 704.385 522.059 704.385 533.559C704.385 545.289 701.97 555.409 697.14 563.919C692.54 572.429 686.33 578.984 678.51 583.584C670.92 588.184 662.64 590.484 653.67 590.484C644.93 590.484 636.65 588.299 628.83 583.929C621.24 579.329 615.03 572.774 610.2 564.264C605.6 555.754 603.3 545.749 603.3 534.249C603.3 522.749 605.6 512.744 610.2 504.234C615.03 495.724 621.24 489.284 628.83 484.914C636.65 480.314 644.93 478.014 653.67 478.014C662.64 478.014 670.92 480.199 678.51 484.569C686.33 488.939 692.54 495.379 697.14 503.889Z" fill="white"/>
<defs>
<filter id="filter0_f_1068_44" x="171" y="220" width="820" height="820" filterUnits="userSpaceOnUse" color-interpolation-filters="sRGB">
<feFlood flood-opacity="0" result="BackgroundImageFix"/>
<feBlend mode="normal" in="SourceGraphic" in2="BackgroundImageFix" result="shape"/>
<feGaussianBlur stdDeviation="50" result="effect1_foregroundBlur_1068_44"/>
</filter>
<linearGradient id="paint0_linear_1068_44" x1="399.369" y1="359.515" x2="715.361" y2="873.642" gradientUnits="userSpaceOnUse">
<stop stop-color="#07C8F9"/>
<stop offset="1" stop-color="#09A6F3"/>
</linearGradient>
</defs>
</svg>
