<svg width="1080" height="1080" viewBox="0 0 1080 1080" fill="none" xmlns="http://www.w3.org/2000/svg">
<path d="M250 1057.7C250 1068.91 259.089 1078 270.301 1078H809.699C820.911 1078 830 1068.91 830 1057.7C830 1004.29 786.707 961 733.301 961H346.699C293.293 961 250 1004.29 250 1057.7Z" fill="#0A85ED"/>
<rect x="478" y="827" width="124" height="134" fill="#0C63E7"/>
<mask id="mask0_1097_68" style="mask-type:alpha" maskUnits="userSpaceOnUse" x="478" y="827" width="124" height="134">
<rect x="478" y="827" width="124" height="134" fill="#0C63E7"/>
</mask>
<g mask="url(#mask0_1097_68)">
<g filter="url(#filter0_f_1097_68)">
<path d="M2 694H1078V717C1078 788.797 1019.8 847 948 847H132C60.203 847 2 788.797 2 717V694Z" fill="black" fill-opacity="0.33"/>
</g>
</g>
<rect x="2" y="2" width="1076" height="825" rx="130" fill="url(#paint0_linear_1097_68)"/>
<g filter="url(#filter1_f_1097_68)">
<path fill-rule="evenodd" clip-rule="evenodd" d="M691.542 245.689C737.906 275.631 779.27 317.513 811.151 366.816C815.176 373.054 817.327 380.316 817.348 387.74C817.37 395.163 815.261 402.437 811.272 408.698C779.511 458.412 738.232 500.45 691.892 530.295C640.817 563.176 584.067 580.563 527.787 580.563C470.241 580.563 414.937 563.695 363.549 530.404C317.908 500.872 276.954 458.93 245.133 409.132C241.001 402.722 238.869 395.229 239.006 387.604C239.144 379.979 241.544 372.567 245.904 366.31C284.52 310.946 328.981 267.944 378.056 238.508C426.179 209.639 476.555 195 527.787 195C583.621 195 640.25 212.531 691.542 245.689ZM463.934 483.957C482.956 496.666 505.319 503.45 528.196 503.45C558.863 503.415 588.263 491.217 609.948 469.533C631.632 447.848 643.83 418.448 643.865 387.781C643.865 364.904 637.081 342.541 624.371 323.519C611.661 304.498 593.596 289.672 572.461 280.917C551.325 272.163 528.068 269.872 505.63 274.335C483.193 278.798 462.583 289.815 446.406 305.991C430.229 322.168 419.213 342.778 414.75 365.216C410.287 387.653 412.577 410.91 421.332 432.046C430.087 453.182 444.912 471.247 463.934 483.957ZM605.311 387.782C605.311 430.37 570.787 464.894 528.199 464.894C485.611 464.894 451.086 430.37 451.086 387.782C451.086 345.194 485.611 310.669 528.199 310.669C570.787 310.669 605.311 345.194 605.311 387.782Z" fill="black" fill-opacity="0.17"/>
</g>
<path fill-rule="evenodd" clip-rule="evenodd" d="M703.542 204.689C749.906 234.631 791.27 276.513 823.151 325.816C827.176 332.054 829.327 339.316 829.348 346.74C829.37 354.163 827.261 361.437 823.272 367.698C791.511 417.412 750.232 459.45 703.892 489.295C652.817 522.176 596.067 539.563 539.787 539.563C482.241 539.563 426.937 522.695 375.549 489.404C329.908 459.872 288.954 417.93 257.133 368.132C253.001 361.722 250.869 354.229 251.006 346.604C251.144 338.979 253.544 331.567 257.904 325.31C296.52 269.946 340.981 226.944 390.056 197.508C438.179 168.639 488.555 154 539.787 154C595.621 154 652.25 171.531 703.542 204.689ZM475.934 442.957C494.956 455.666 517.319 462.45 540.196 462.45C570.863 462.415 600.263 450.217 621.948 428.533C643.632 406.848 655.83 377.448 655.865 346.781C655.865 323.904 649.081 301.541 636.371 282.519C623.661 263.498 605.596 248.672 584.461 239.917C563.325 231.163 540.068 228.872 517.63 233.335C495.193 237.798 474.583 248.815 458.406 264.991C442.229 281.168 431.213 301.778 426.75 324.216C422.287 346.653 424.577 369.91 433.332 391.046C442.087 412.182 456.912 430.247 475.934 442.957ZM617.312 346.782C617.312 389.37 582.787 423.894 540.199 423.894C497.611 423.894 463.086 389.37 463.086 346.782C463.086 304.194 497.611 269.669 540.199 269.669C582.787 269.669 617.312 304.194 617.312 346.782Z" fill="white"/>
<path d="M2 674H1078V697C1078 768.797 1019.8 827 948 827H132C60.203 827 2 768.797 2 697V674Z" fill="url(#paint1_linear_1097_68)"/>
<defs>
<filter id="filter0_f_1097_68" x="-98" y="594" width="1276" height="353" filterUnits="userSpaceOnUse" color-interpolation-filters="sRGB">
<feFlood flood-opacity="0" result="BackgroundImageFix"/>
<feBlend mode="normal" in="SourceGraphic" in2="BackgroundImageFix" result="shape"/>
<feGaussianBlur stdDeviation="50" result="effect1_foregroundBlur_1097_68"/>
</filter>
<filter id="filter1_f_1097_68" x="139" y="95" width="778.348" height="585.563" filterUnits="userSpaceOnUse" color-interpolation-filters="sRGB">
<feFlood flood-opacity="0" result="BackgroundImageFix"/>
<feBlend mode="normal" in="SourceGraphic" in2="BackgroundImageFix" result="shape"/>
<feGaussianBlur stdDeviation="50" result="effect1_foregroundBlur_1097_68"/>
</filter>
<linearGradient id="paint0_linear_1097_68" x1="888.5" y1="49.5961" x2="126.358" y2="707.01" gradientUnits="userSpaceOnUse">
<stop stop-color="#07C8F9"/>
<stop offset="1" stop-color="#09A6F3"/>
</linearGradient>
<linearGradient id="paint1_linear_1097_68" x1="703.5" y1="556.214" x2="611.664" y2="840.461" gradientUnits="userSpaceOnUse">
<stop stop-color="#09A6F3"/>
<stop offset="1" stop-color="#0A85ED"/>
</linearGradient>
</defs>
</svg>
