<svg width="1080" height="1080" viewBox="0 0 1080 1080" fill="none" xmlns="http://www.w3.org/2000/svg">
<rect x="2" y="2" width="684" height="1076" rx="68" fill="url(#paint0_linear_1109_188)"/>
<path fill-rule="evenodd" clip-rule="evenodd" d="M144.5 152C116.057 152 93 175.057 93 203.5C93 231.943 116.057 255 144.5 255H544.5C572.943 255 596 231.943 596 203.5C596 175.057 572.943 152 544.5 152H144.5ZM144.5 350C116.057 350 93 373.057 93 401.5C93 429.943 116.057 453 144.5 453H544.5C572.943 453 596 429.943 596 401.5C596 373.057 572.943 350 544.5 350H144.5ZM93 599.5C93 571.057 116.057 548 144.5 548H544.5C572.943 548 596 571.057 596 599.5C596 627.943 572.943 651 544.5 651H144.5C116.057 651 93 627.943 93 599.5ZM144.5 834C116.057 834 93 857.057 93 885.5C93 913.943 116.057 937 144.5 937H297.5C325.943 937 349 913.943 349 885.5C349 857.057 325.943 834 297.5 834H144.5Z" fill="white" fill-opacity="0.5"/>
<mask id="mask0_1109_188" style="mask-type:alpha" maskUnits="userSpaceOnUse" x="2" y="2" width="684" height="1076">
<rect x="2" y="2" width="684" height="1076" rx="68" fill="url(#paint1_linear_1109_188)"/>
</mask>
<g mask="url(#mask0_1109_188)">
<g filter="url(#filter0_f_1109_188)">
<circle cx="772.5" cy="725.5" r="305.5" fill="black" fill-opacity="0.33"/>
</g>
</g>
<circle cx="772.5" cy="687.5" r="305.5" fill="url(#paint2_linear_1109_188)"/>
<circle cx="670.5" cy="568.5" r="55.5" fill="white"/>
<circle cx="874.5" cy="805.5" r="55.5" fill="white"/>
<rect width="83.63" height="391.23" rx="41.815" transform="matrix(-0.707107 -0.707107 -0.707107 0.707107 939.777 578.137)" fill="white"/>
<defs>
<filter id="filter0_f_1109_188" x="367" y="320" width="811" height="811" filterUnits="userSpaceOnUse" color-interpolation-filters="sRGB">
<feFlood flood-opacity="0" result="BackgroundImageFix"/>
<feBlend mode="normal" in="SourceGraphic" in2="BackgroundImageFix" result="shape"/>
<feGaussianBlur stdDeviation="50" result="effect1_foregroundBlur_1109_188"/>
</filter>
<linearGradient id="paint0_linear_1109_188" x1="147" y1="54.5" x2="661.5" y2="975.5" gradientUnits="userSpaceOnUse">
<stop stop-color="#05AB01"/>
<stop offset="1" stop-color="#027600"/>
</linearGradient>
<linearGradient id="paint1_linear_1109_188" x1="46.5" y1="120" x2="552.5" y2="1242" gradientUnits="userSpaceOnUse">
<stop stop-color="#1976D2"/>
<stop offset="1" stop-color="#1565C0"/>
</linearGradient>
<linearGradient id="paint2_linear_1109_188" x1="772" y1="466.5" x2="626.5" y2="1031.5" gradientUnits="userSpaceOnUse">
<stop stop-color="#06DB00"/>
<stop offset="1" stop-color="#05C300"/>
</linearGradient>
</defs>
</svg>
