<svg width="1080" height="1080" viewBox="0 0 1080 1080" fill="none" xmlns="http://www.w3.org/2000/svg">
<rect x="2" y="2" width="1076" height="1076" rx="130" fill="#FF5400"/>
<g filter="url(#filter0_f_1083_38)">
<path fill-rule="evenodd" clip-rule="evenodd" d="M219 427C155.487 427 104 478.487 104 542C104 605.513 155.487 657 219 657C282.513 657 334 605.513 334 542C334 478.487 282.513 427 219 427ZM519 427C455.487 427 404 478.487 404 542C404 605.513 455.487 657 519 657C582.513 657 634 605.513 634 542C634 478.487 582.513 427 519 427ZM704 542C704 478.487 755.487 427 819 427C882.513 427 934 478.487 934 542C934 605.513 882.513 657 819 657C755.487 657 704 605.513 704 542ZM819 737C755.487 737 704 788.487 704 852C704 915.513 755.487 967 819 967C882.513 967 934 915.513 934 852C934 788.487 882.513 737 819 737ZM404 852C404 788.487 455.487 737 519 737C582.513 737 634 788.487 634 852C634 915.513 582.513 967 519 967C455.487 967 404 915.513 404 852ZM219 737C155.487 737 104 788.487 104 852C104 915.513 155.487 967 219 967C282.513 967 334 915.513 334 852C334 788.487 282.513 737 219 737Z" fill="black" fill-opacity="0.13"/>
</g>
<path d="M2 132C2 60.203 60.203 2 132 2H948C1019.8 2 1078 60.203 1078 132V286H2V132Z" fill="url(#paint0_linear_1083_38)"/>
<rect x="273" y="77" width="534" height="134" rx="67" fill="#FF6D00"/>
<path fill-rule="evenodd" clip-rule="evenodd" d="M240 392C176.487 392 125 443.487 125 507C125 570.513 176.487 622 240 622C303.513 622 355 570.513 355 507C355 443.487 303.513 392 240 392ZM540 392C476.487 392 425 443.487 425 507C425 570.513 476.487 622 540 622C603.513 622 655 570.513 655 507C655 443.487 603.513 392 540 392ZM725 507C725 443.487 776.487 392 840 392C903.513 392 955 443.487 955 507C955 570.513 903.513 622 840 622C776.487 622 725 570.513 725 507ZM840 702C776.487 702 725 753.487 725 817C725 880.513 776.487 932 840 932C903.513 932 955 880.513 955 817C955 753.487 903.513 702 840 702ZM425 817C425 753.487 476.487 702 540 702C603.513 702 655 753.487 655 817C655 880.513 603.513 932 540 932C476.487 932 425 880.513 425 817ZM240 702C176.487 702 125 753.487 125 817C125 880.513 176.487 932 240 932C303.513 932 355 880.513 355 817C355 753.487 303.513 702 240 702Z" fill="url(#paint1_linear_1083_38)"/>
<defs>
<filter id="filter0_f_1083_38" x="4" y="327" width="1030" height="740" filterUnits="userSpaceOnUse" color-interpolation-filters="sRGB">
<feFlood flood-opacity="0" result="BackgroundImageFix"/>
<feBlend mode="normal" in="SourceGraphic" in2="BackgroundImageFix" result="shape"/>
<feGaussianBlur stdDeviation="50" result="effect1_foregroundBlur_1083_38"/>
</filter>
<linearGradient id="paint0_linear_1083_38" x1="540" y1="2" x2="540" y2="286" gradientUnits="userSpaceOnUse">
<stop stop-color="#FFB600"/>
<stop offset="1" stop-color="#FF9E00"/>
</linearGradient>
<linearGradient id="paint1_linear_1083_38" x1="540" y1="392" x2="540" y2="932" gradientUnits="userSpaceOnUse">
<stop stop-color="#FFB600"/>
<stop offset="1" stop-color="#FF9E00"/>
</linearGradient>
</defs>
</svg>
