<svg width="1080" height="1080" viewBox="0 0 1080 1080" fill="none" xmlns="http://www.w3.org/2000/svg">
<path d="M148.667 463.775C159.417 418.758 199.651 387 245.933 387H834.956C881.289 387 921.554 418.827 932.253 463.908L1048.79 954.908C1063.7 1017.73 1016.05 1078 951.488 1078H128.69C64.0689 1078 16.4158 1017.63 31.4243 954.775L148.667 463.775Z" fill="url(#paint0_linear_1097_90)"/>
<g filter="url(#filter0_f_1097_90)">
<path fill-rule="evenodd" clip-rule="evenodd" d="M339.182 589.182C392.442 535.921 464.679 506 540 506C615.321 506 687.558 535.921 740.818 589.182C794.079 642.442 824 714.679 824 790H653.6C653.6 759.871 641.631 730.977 620.327 709.673C599.023 688.369 570.129 676.4 540 676.4C509.871 676.4 480.977 688.369 459.673 709.673C438.369 730.977 426.4 759.871 426.4 790H256C256 714.679 285.921 642.442 339.182 589.182Z" fill="black" fill-opacity="0.12"/>
</g>
<path d="M2 62C2 28.8629 28.8629 2 62 2H1018C1051.14 2 1078 28.8629 1078 62V76C1078 158.843 1010.84 226 928 226H152C69.1573 226 2 158.843 2 76V62Z" fill="url(#paint1_linear_1097_90)"/>
<rect x="426" y="226" width="227" height="161" fill="url(#paint2_linear_1097_90)"/>
<path d="M339.182 553.182C285.921 606.442 256 678.679 256 754L426.4 754C426.4 723.871 438.369 694.977 459.673 673.673L339.182 553.182Z" fill="white" fill-opacity="0.25"/>
<path d="M540 470C464.679 470 392.442 499.921 339.182 553.182L459.673 673.673C480.977 652.369 509.871 640.4 540 640.4V470Z" fill="white" fill-opacity="0.5"/>
<path d="M740.818 553.182C687.558 499.921 615.321 470 540 470V640.4C570.129 640.4 599.023 652.369 620.327 673.673L740.818 553.182Z" fill="white" fill-opacity="0.75"/>
<path d="M824 754C824 678.679 794.079 606.442 740.818 553.182L620.327 673.673C641.631 694.977 653.6 723.871 653.6 754H824Z" fill="white"/>
<defs>
<filter id="filter0_f_1097_90" x="156" y="406" width="768" height="484" filterUnits="userSpaceOnUse" color-interpolation-filters="sRGB">
<feFlood flood-opacity="0" result="BackgroundImageFix"/>
<feBlend mode="normal" in="SourceGraphic" in2="BackgroundImageFix" result="shape"/>
<feGaussianBlur stdDeviation="50" result="effect1_foregroundBlur_1097_90"/>
</filter>
<linearGradient id="paint0_linear_1097_90" x1="701" y1="387" x2="418.111" y2="1153.02" gradientUnits="userSpaceOnUse">
<stop stop-color="#07C8F9"/>
<stop offset="1" stop-color="#0A85ED"/>
</linearGradient>
<linearGradient id="paint1_linear_1097_90" x1="585" y1="45" x2="544.666" y2="308.215" gradientUnits="userSpaceOnUse">
<stop stop-color="#09A6F3"/>
<stop offset="1" stop-color="#0A85ED"/>
</linearGradient>
<linearGradient id="paint2_linear_1097_90" x1="590.5" y1="197.53" x2="541.232" y2="387.449" gradientUnits="userSpaceOnUse">
<stop stop-color="#0C63E7"/>
<stop offset="1" stop-color="#0D41E1"/>
</linearGradient>
</defs>
</svg>
