<svg width="1080" height="1080" viewBox="0 0 1080 1080" fill="none" xmlns="http://www.w3.org/2000/svg">
<path fill-rule="evenodd" clip-rule="evenodd" d="M1049.78 275.027C1087.19 249.636 1087.19 194.501 1049.78 169.11L819.936 13.1502C777.441 -15.6848 720 14.7548 720 66.1089V110H464C353.543 110 264 199.543 264 310V334H720V378.028C720 429.382 777.441 459.822 819.936 430.987L1049.78 275.027Z" fill="url(#paint0_linear_1101_58)"/>
<path fill-rule="evenodd" clip-rule="evenodd" d="M30.0645 805.109C-7.3548 830.501 -7.35486 885.636 30.0645 911.027L259.904 1066.99C302.399 1095.82 359.84 1065.38 359.84 1014.03V970.137H615.84C726.297 970.137 815.84 880.594 815.84 770.137V746.137H359.84V702.109C359.84 650.755 302.399 620.315 259.904 649.15L30.0645 805.109Z" fill="url(#paint1_linear_1101_58)"/>
<mask id="mask0_1101_58" style="mask-type:alpha" maskUnits="userSpaceOnUse" x="2" y="2" width="1076" height="1077">
<path fill-rule="evenodd" clip-rule="evenodd" d="M1049.78 169.11C1087.19 194.501 1087.19 249.636 1049.78 275.027L819.936 430.987C777.441 459.822 720 429.382 720 378.028V334H264V310C264 199.543 353.543 110 464 110H720V66.1089C720 14.7548 777.441 -15.6848 819.936 13.1502L1049.78 169.11ZM30.0645 911.027C-7.35485 885.636 -7.35479 830.501 30.0645 805.109L259.904 649.15C302.399 620.315 359.84 650.755 359.84 702.109V746.137H815.84V770.137C815.84 880.594 726.297 970.137 615.84 970.137H359.84V1014.03C359.84 1065.38 302.399 1095.82 259.904 1066.99L30.0645 911.027Z" fill="url(#paint2_linear_1101_58)"/>
</mask>
<g mask="url(#mask0_1101_58)">
<g filter="url(#filter0_f_1101_58)">
<circle cx="540" cy="540" r="353" fill="black" fill-opacity="0.33"/>
</g>
</g>
<circle cx="540" cy="540" r="353" fill="url(#paint3_linear_1101_58)"/>
<path fill-rule="evenodd" clip-rule="evenodd" d="M420.07 535.97L473.2 629.81H529.09L471.475 532.175C489.645 527.345 503.33 518.605 512.53 505.955C521.73 493.075 526.33 478.7 526.33 462.83C526.33 449.03 522.995 436.61 516.325 425.57C509.885 414.3 500.11 405.445 487 399.005C473.89 392.335 458.02 389 439.39 389H349V629.81H397.3V535.97H420.07ZM437.665 499.745H397.3V429.02H437.665C450.775 429.02 460.55 432.125 466.99 438.335C473.43 444.315 476.65 452.825 476.65 463.865C476.65 475.135 473.43 483.99 466.99 490.43C460.55 496.64 450.775 499.745 437.665 499.745ZM628.83 444.549C618.02 450.299 609.51 457.544 603.3 466.284V438.684H555V720.894H603.3V602.559C609.97 611.299 618.595 618.544 629.175 624.294C639.985 630.044 652.405 632.919 666.435 632.919C682.765 632.919 697.485 628.779 710.595 620.499C723.935 612.219 734.4 600.604 741.99 585.654C749.81 570.474 753.72 553.109 753.72 533.559C753.72 514.009 749.81 496.874 741.99 482.154C734.4 467.204 723.935 455.704 710.595 447.654C697.485 439.604 682.765 435.579 666.435 435.579C652.405 435.579 639.87 438.569 628.83 444.549ZM697.14 503.889C701.97 512.169 704.385 522.059 704.385 533.559C704.385 545.289 701.97 555.409 697.14 563.919C692.54 572.429 686.33 578.984 678.51 583.584C670.92 588.184 662.64 590.484 653.67 590.484C644.93 590.484 636.65 588.299 628.83 583.929C621.24 579.329 615.03 572.774 610.2 564.264C605.6 555.754 603.3 545.749 603.3 534.249C603.3 522.749 605.6 512.744 610.2 504.234C615.03 495.724 621.24 489.284 628.83 484.914C636.65 480.314 644.93 478.014 653.67 478.014C662.64 478.014 670.92 480.199 678.51 484.569C686.33 488.939 692.54 495.379 697.14 503.889Z" fill="white"/>
<defs>
<filter id="filter0_f_1101_58" x="37" y="37" width="1006" height="1006" filterUnits="userSpaceOnUse" color-interpolation-filters="sRGB">
<feFlood flood-opacity="0" result="BackgroundImageFix"/>
<feBlend mode="normal" in="SourceGraphic" in2="BackgroundImageFix" result="shape"/>
<feGaussianBlur stdDeviation="75" result="effect1_foregroundBlur_1101_58"/>
</filter>
<linearGradient id="paint0_linear_1101_58" x1="264" y1="221.502" x2="720" y2="221.502" gradientUnits="userSpaceOnUse">
<stop stop-color="#6910A8"/>
<stop offset="1" stop-color="#8C07DD"/>
</linearGradient>
<linearGradient id="paint1_linear_1101_58" x1="815.84" y1="858.634" x2="359.84" y2="858.634" gradientUnits="userSpaceOnUse">
<stop stop-color="#6910A8"/>
<stop offset="1" stop-color="#8C07DD"/>
</linearGradient>
<linearGradient id="paint2_linear_1101_58" x1="815.84" y1="858.635" x2="359.84" y2="858.635" gradientUnits="userSpaceOnUse">
<stop stop-color="#6910A8"/>
<stop offset="1" stop-color="#8C07DD"/>
</linearGradient>
<linearGradient id="paint3_linear_1101_58" x1="540" y1="323" x2="540" y2="893" gradientUnits="userSpaceOnUse">
<stop stop-color="#CB5DF1"/>
<stop offset="1" stop-color="#B333E9"/>
</linearGradient>
</defs>
</svg>
