<svg width="1080" height="1080" viewBox="0 0 1080 1080" fill="none" xmlns="http://www.w3.org/2000/svg">
<path fill-rule="evenodd" clip-rule="evenodd" d="M18.1492 576.703C-3.38305 556.895 -3.38306 522.914 18.1492 503.106L260.356 280.3C292.405 250.818 344.207 273.552 344.207 317.099V423.775H735.773V317.099C735.773 273.552 787.575 250.818 819.624 280.3L1061.83 503.106C1083.36 522.914 1083.36 556.895 1061.83 576.703L819.624 799.509C787.575 828.991 735.773 806.257 735.773 762.71V657.19H344.207V762.71C344.207 806.257 292.405 828.991 260.356 799.509L18.1492 576.703Z" fill="url(#paint0_linear_1093_264)"/>
<mask id="mask0_1093_264" style="mask-type:alpha" maskUnits="userSpaceOnUse" x="2" y="267" width="1076" height="546">
<path fill-rule="evenodd" clip-rule="evenodd" d="M18.1492 576.703C-3.38305 556.895 -3.38306 522.914 18.1492 503.106L260.356 280.3C292.405 250.818 344.207 273.552 344.207 317.099V423.775H735.773V317.099C735.773 273.552 787.575 250.818 819.624 280.3L1061.83 503.106C1083.36 522.914 1083.36 556.895 1061.83 576.703L819.624 799.509C787.575 828.991 735.773 806.257 735.773 762.71V657.19H344.207V762.71C344.207 806.257 292.405 828.991 260.356 799.509L18.1492 576.703Z" fill="url(#paint1_linear_1093_264)"/>
</mask>
<g mask="url(#mask0_1093_264)">
<g filter="url(#filter0_f_1093_264)">
<path fill-rule="evenodd" clip-rule="evenodd" d="M576.789 1061.75C556.981 1083.28 523 1083.28 503.192 1061.75L280.386 819.539C250.904 787.49 273.638 735.688 317.185 735.688H423.861L423.861 344.122H317.185C273.638 344.122 250.904 292.32 280.386 260.271L503.192 18.0641C523 -3.46814 556.981 -3.46814 576.789 18.0641L799.595 260.271C829.077 292.32 806.343 344.122 762.796 344.122H657.276L657.276 735.688L762.796 735.688C806.343 735.688 829.077 787.49 799.595 819.539L576.789 1061.75Z" fill="black" fill-opacity="0.33"/>
</g>
</g>
<path fill-rule="evenodd" clip-rule="evenodd" d="M576.789 1061.75C556.981 1083.28 523 1083.28 503.192 1061.75L280.386 819.539C250.904 787.49 273.638 735.688 317.185 735.688H423.861L423.861 344.122H317.185C273.638 344.122 250.904 292.32 280.386 260.271L503.192 18.0641C523 -3.46814 556.981 -3.46814 576.789 18.0641L799.595 260.271C829.077 292.32 806.343 344.122 762.796 344.122H657.276L657.276 735.688L762.796 735.688C806.343 735.688 829.077 787.49 799.595 819.539L576.789 1061.75Z" fill="url(#paint2_linear_1093_264)"/>
<defs>
<filter id="filter0_f_1093_264" x="117.086" y="-148.085" width="845.809" height="1375.98" filterUnits="userSpaceOnUse" color-interpolation-filters="sRGB">
<feFlood flood-opacity="0" result="BackgroundImageFix"/>
<feBlend mode="normal" in="SourceGraphic" in2="BackgroundImageFix" result="shape"/>
<feGaussianBlur stdDeviation="75" result="effect1_foregroundBlur_1093_264"/>
</filter>
<linearGradient id="paint0_linear_1093_264" x1="540" y1="47" x2="450.276" y2="1023.76" gradientUnits="userSpaceOnUse">
<stop stop-color="#0C63E7"/>
<stop offset="1" stop-color="#0D41E1"/>
</linearGradient>
<linearGradient id="paint1_linear_1093_264" x1="540" y1="47" x2="450.276" y2="1023.76" gradientUnits="userSpaceOnUse">
<stop stop-color="#0C63E7"/>
<stop offset="1" stop-color="#0D41E1"/>
</linearGradient>
<linearGradient id="paint2_linear_1093_264" x1="540" y1="2.00006" x2="441.987" y2="1069" gradientUnits="userSpaceOnUse">
<stop stop-color="#07C8F9"/>
<stop offset="1" stop-color="#09A6F3"/>
</linearGradient>
</defs>
</svg>
