<svg width="1080" height="1080" viewBox="0 0 1080 1080" fill="none" xmlns="http://www.w3.org/2000/svg">
<rect x="61" y="487" width="958" height="591.182" rx="80" fill="#038C00"/>
<path fill-rule="evenodd" clip-rule="evenodd" d="M164.281 662.865V901.59C164.284 901.59 164.287 901.59 164.29 901.59C216.401 901.59 258.646 943.655 258.646 995.546C258.646 995.546 258.646 995.546 258.646 995.546H820.93C820.93 995.546 820.93 995.546 820.93 995.546C820.93 943.658 863.17 901.595 915.276 901.59V662.865C863.17 662.86 820.931 620.797 820.93 568.91H258.646C258.646 620.8 216.401 662.865 164.29 662.865C164.287 662.865 164.284 662.865 164.281 662.865ZM540.264 854.612C580.411 854.612 612.957 822.204 612.957 782.228C612.957 742.251 580.411 709.843 540.264 709.843C500.117 709.843 467.572 742.251 467.572 782.228C467.572 822.204 500.117 854.612 540.264 854.612Z" fill="black" fill-opacity="0.25"/>
<rect x="32" y="227" width="1016" height="626.974" rx="80" fill="#05AB01"/>
<path fill-rule="evenodd" clip-rule="evenodd" d="M141.531 413.514V666.691C141.533 666.691 141.534 666.691 141.536 666.691C196.802 666.691 241.604 711.303 241.604 766.335H837.932C837.932 711.305 882.73 666.695 937.994 666.691V413.514C882.731 413.51 837.932 368.899 837.932 313.87H241.604C241.604 368.901 196.802 413.514 141.536 413.514C141.534 413.514 141.533 413.514 141.531 413.514ZM540.274 616.869C582.851 616.869 617.367 582.5 617.367 540.102C617.367 497.705 582.851 463.336 540.274 463.336C497.696 463.336 463.18 497.705 463.18 540.102C463.18 582.5 497.696 616.869 540.274 616.869Z" fill="black" fill-opacity="0.25"/>
<rect x="2" y="2" width="1076" height="664" rx="80" fill="#06DB00"/>
<path fill-rule="evenodd" clip-rule="evenodd" d="M118.005 199.529C176.535 199.529 223.983 152.282 223.983 94L855.527 94.0001C855.527 94.0001 855.527 94.0001 855.527 94.0002C855.527 152.279 902.971 199.525 961.498 199.529V467.657C902.971 467.662 855.527 514.907 855.527 573.186H223.983C223.983 514.904 176.535 467.657 118.005 467.657C118.003 467.657 118.002 467.657 118 467.657V199.529C118.002 199.529 118.003 199.529 118.005 199.529ZM540.291 414.893C585.383 414.893 621.937 378.494 621.937 333.593C621.937 288.692 585.383 252.293 540.291 252.293C495.199 252.293 458.645 288.692 458.645 333.593C458.645 378.494 495.199 414.893 540.291 414.893Z" fill="black" fill-opacity="0.25"/>
</svg>
